<svg xmlns="http://www.w3.org/2000/svg" xmlns:xlink="http://www.w3.org/1999/xlink" width="50" zoomAndPan="magnify" viewBox="0 0 37.5 37.499999" height="50" preserveAspectRatio="xMidYMid meet" version="1.0"><defs><clipPath id="b573c1efb5"><path d="M 1.113281 1.183594 L 36 1.183594 L 36 35.816406 L 1.113281 35.816406 Z M 1.113281 1.183594 " clip-rule="nonzero"/></clipPath><clipPath id="d515a4cff2"><path d="M 35.886719 7.105469 L 35.886719 29.894531 C 35.886719 31.464844 35.261719 32.972656 34.152344 34.082031 C 33.042969 35.191406 31.535156 35.816406 29.964844 35.816406 L 7.03125 35.816406 C 5.464844 35.816406 3.957031 35.191406 2.847656 34.082031 C 1.738281 32.972656 1.113281 31.464844 1.113281 29.894531 L 1.113281 7.105469 C 1.113281 5.535156 1.738281 4.027344 2.847656 2.917969 C 3.957031 1.808594 5.464844 1.183594 7.03125 1.183594 L 29.964844 1.183594 C 31.535156 1.183594 33.042969 1.808594 34.152344 2.917969 C 35.261719 4.027344 35.886719 5.535156 35.886719 7.105469 Z M 35.886719 7.105469 " clip-rule="nonzero"/></clipPath><clipPath id="47bccedc3f"><path d="M 0.113281 0.183594 L 35 0.183594 L 35 34.816406 L 0.113281 34.816406 Z M 0.113281 0.183594 " clip-rule="nonzero"/></clipPath><clipPath id="97f0da529e"><path d="M 34.886719 6.105469 L 34.886719 28.894531 C 34.886719 30.464844 34.261719 31.972656 33.152344 33.082031 C 32.042969 34.191406 30.535156 34.816406 28.964844 34.816406 L 6.03125 34.816406 C 4.464844 34.816406 2.957031 34.191406 1.847656 33.082031 C 0.738281 31.972656 0.113281 30.464844 0.113281 28.894531 L 0.113281 6.105469 C 0.113281 4.535156 0.738281 3.027344 1.847656 1.917969 C 2.957031 0.808594 4.464844 0.183594 6.03125 0.183594 L 28.964844 0.183594 C 30.535156 0.183594 32.042969 0.808594 33.152344 1.917969 C 34.261719 3.027344 34.886719 4.535156 34.886719 6.105469 Z M 34.886719 6.105469 " clip-rule="nonzero"/></clipPath><clipPath id="564555380d"><rect x="0" width="35" y="0" height="35"/></clipPath><clipPath id="f7dafa48f4"><path d="M 3 8 L 34.441406 8 L 34.441406 28.722656 L 3 28.722656 Z M 3 8 " clip-rule="nonzero"/></clipPath><clipPath id="cdd6df3b4f"><path d="M 2.617188 8 L 34 8 L 34 28.722656 L 2.617188 28.722656 Z M 2.617188 8 " clip-rule="nonzero"/></clipPath></defs><g clip-path="url(#b573c1efb5)"><g clip-path="url(#d515a4cff2)"><g transform="matrix(1, 0, 0, 1, 1, 1)"><g clip-path="url(#564555380d)"><g clip-path="url(#47bccedc3f)"><g clip-path="url(#97f0da529e)"><path fill="#ff5757" d="M 0.113281 0.183594 L 34.878906 0.183594 L 34.878906 34.816406 L 0.113281 34.816406 Z M 0.113281 0.183594 " fill-opacity="1" fill-rule="nonzero"/></g></g></g></g></g></g><g clip-path="url(#f7dafa48f4)"><path fill="#7d7d7d" d="M 32.652344 9.960938 C 31.773438 9.164062 30.675781 8.773438 29.554688 8.867188 C 28.726562 8.933594 27.949219 9.257812 27.292969 9.796875 C 26.527344 9.226562 25.589844 8.832031 24.523438 8.660156 C 24.074219 8.589844 23.136719 8.554688 22.539062 8.679688 C 21.160156 8.964844 20.242188 9.949219 20.085938 11.308594 C 20.070312 11.457031 20.0625 11.671875 20.054688 11.867188 C 19.988281 11.867188 19.917969 11.871094 19.84375 11.871094 C 19.558594 11.878906 19.039062 11.894531 18.691406 11.902344 C 18.355469 11.910156 18.09375 11.914062 17.855469 11.945312 C 17.566406 11.371094 17.199219 10.871094 16.765625 10.476562 C 15.886719 9.675781 14.789062 9.285156 13.667969 9.378906 C 12.925781 9.441406 12.222656 9.707031 11.613281 10.152344 L 11.089844 9.902344 L 9.984375 9.914062 C 9.574219 9.917969 9.054688 9.941406 8.554688 9.980469 C 8.109375 10.019531 7.644531 10.039062 7 10.050781 C 5.917969 10.074219 5.625 10.082031 5.140625 10.257812 C 4.363281 10.546875 3.742188 11.144531 3.433594 11.902344 C 3.125 12.65625 3.152344 13.507812 3.507812 14.242188 C 3.816406 14.875 4.304688 15.347656 4.960938 15.644531 L 5.554688 15.914062 L 5.566406 15.914062 C 5.589844 16.457031 5.613281 17.027344 5.636719 17.488281 C 5.679688 18.390625 5.71875 18.550781 5.746094 18.679688 C 5.960938 19.628906 6.65625 20.429688 7.5625 20.773438 C 7.683594 20.820312 7.804688 20.855469 7.921875 20.882812 L 7.90625 22.644531 C 7.894531 23.757812 7.890625 24.945312 7.894531 25.296875 C 7.902344 26.117188 7.910156 26.964844 8.757812 27.808594 C 9.175781 28.226562 9.660156 28.488281 10.269531 28.625 C 10.542969 28.6875 10.804688 28.703125 11.015625 28.703125 C 11.09375 28.703125 11.164062 28.703125 11.226562 28.699219 C 11.628906 28.675781 12.792969 28.621094 13.238281 28.605469 C 13.773438 28.582031 14.203125 28.566406 14.738281 28.304688 C 14.847656 28.355469 14.957031 28.398438 15.074219 28.4375 C 15.351562 28.527344 15.652344 28.570312 15.960938 28.570312 C 16.378906 28.570312 16.800781 28.488281 17.171875 28.328125 C 17.464844 28.199219 17.726562 28.03125 17.953125 27.832031 C 18.054688 27.90625 18.164062 27.980469 18.277344 28.050781 C 18.960938 28.46875 19.636719 28.59375 20.210938 28.660156 C 20.359375 28.679688 20.503906 28.6875 20.648438 28.6875 C 21.46875 28.6875 22.210938 28.429688 22.722656 28.191406 C 23.148438 27.996094 23.890625 27.589844 24.460938 26.917969 C 24.796875 27.417969 25.28125 27.8125 25.851562 28.027344 C 26.261719 28.183594 26.660156 28.21875 26.921875 28.222656 C 26.933594 28.222656 26.941406 28.222656 26.949219 28.222656 C 27.429688 28.222656 27.824219 28.128906 28.253906 27.917969 C 28.941406 27.578125 29.476562 26.988281 29.722656 26.292969 C 29.886719 25.839844 29.890625 25.476562 29.875 25.019531 C 29.867188 24.65625 29.835938 24.023438 29.777344 22.804688 C 30.03125 22.714844 30.289062 22.578125 30.546875 22.378906 C 31.355469 21.746094 31.773438 20.769531 31.664062 19.769531 C 31.660156 19.726562 31.652344 19.683594 31.644531 19.640625 C 32.222656 19.367188 32.742188 18.953125 33.167969 18.429688 C 33.714844 17.753906 34.109375 16.878906 34.304688 15.898438 C 34.484375 14.992188 34.488281 14.039062 34.316406 13.144531 C 34.066406 11.84375 33.476562 10.714844 32.652344 9.960938 Z M 32.652344 9.960938 " fill-opacity="1" fill-rule="nonzero"/></g><g clip-path="url(#cdd6df3b4f)"><path fill="#fafafa" d="M 32.046875 9.367188 C 31.171875 8.566406 30.070312 8.179688 28.949219 8.269531 C 28.121094 8.339844 27.34375 8.664062 26.6875 9.203125 C 25.925781 8.632812 24.984375 8.234375 23.917969 8.066406 C 23.46875 7.992188 22.53125 7.960938 21.933594 8.085938 C 20.554688 8.371094 19.636719 9.355469 19.484375 10.714844 C 19.464844 10.863281 19.457031 11.074219 19.453125 11.269531 C 19.382812 11.273438 19.3125 11.273438 19.238281 11.277344 C 18.953125 11.285156 18.4375 11.296875 18.085938 11.304688 C 17.75 11.316406 17.488281 11.320312 17.25 11.351562 C 16.960938 10.777344 16.59375 10.277344 16.160156 9.878906 C 15.285156 9.082031 14.183594 8.691406 13.0625 8.785156 C 12.320312 8.84375 11.617188 9.113281 11.007812 9.558594 L 10.488281 9.304688 L 9.382812 9.316406 C 8.96875 9.320312 8.449219 9.347656 7.949219 9.386719 C 7.507812 9.421875 7.042969 9.445312 6.394531 9.457031 C 5.3125 9.480469 5.023438 9.484375 4.535156 9.664062 C 3.761719 9.949219 3.136719 10.550781 2.828125 11.304688 C 2.519531 12.058594 2.546875 12.914062 2.90625 13.648438 C 3.210938 14.28125 3.699219 14.75 4.355469 15.046875 L 4.949219 15.316406 L 4.960938 15.316406 C 4.984375 15.859375 5.011719 16.429688 5.03125 16.890625 C 5.078125 17.796875 5.113281 17.957031 5.140625 18.085938 C 5.359375 19.035156 6.054688 19.835938 6.957031 20.175781 C 7.078125 20.222656 7.199219 20.257812 7.316406 20.285156 L 7.300781 22.050781 C 7.292969 23.160156 7.285156 24.351562 7.289062 24.703125 C 7.300781 25.523438 7.308594 26.367188 8.152344 27.210938 C 8.574219 27.632812 9.054688 27.894531 9.664062 28.03125 C 9.941406 28.089844 10.203125 28.109375 10.414062 28.109375 C 10.488281 28.109375 10.558594 28.105469 10.621094 28.101562 C 11.023438 28.082031 12.191406 28.027344 12.632812 28.007812 C 13.167969 27.988281 13.597656 27.96875 14.132812 27.707031 C 14.242188 27.757812 14.355469 27.804688 14.46875 27.839844 C 14.746094 27.929688 15.050781 27.976562 15.355469 27.976562 C 15.773438 27.976562 16.195312 27.894531 16.566406 27.730469 C 16.859375 27.605469 17.121094 27.4375 17.347656 27.234375 C 17.453125 27.3125 17.558594 27.382812 17.671875 27.453125 C 18.355469 27.871094 19.03125 28 19.605469 28.066406 C 19.753906 28.082031 19.898438 28.089844 20.042969 28.089844 C 20.863281 28.089844 21.609375 27.832031 22.121094 27.597656 C 22.542969 27.402344 23.285156 26.992188 23.859375 26.320312 C 24.195312 26.820312 24.679688 27.21875 25.246094 27.433594 C 25.65625 27.589844 26.054688 27.625 26.316406 27.625 L 26.320312 27.625 C 26.328125 27.625 26.335938 27.625 26.34375 27.625 C 26.828125 27.625 27.21875 27.535156 27.652344 27.320312 C 28.335938 26.984375 28.871094 26.390625 29.117188 25.699219 C 29.28125 25.242188 29.285156 24.882812 29.273438 24.421875 C 29.261719 24.058594 29.230469 23.425781 29.175781 22.210938 C 29.429688 22.121094 29.683594 21.984375 29.941406 21.785156 C 30.75 21.152344 31.167969 20.175781 31.058594 19.175781 C 31.054688 19.132812 31.046875 19.089844 31.042969 19.046875 C 31.617188 18.773438 32.140625 18.355469 32.5625 17.835938 C 33.113281 17.160156 33.503906 16.285156 33.699219 15.304688 C 33.882812 14.398438 33.886719 13.445312 33.714844 12.546875 C 33.460938 11.25 32.871094 10.117188 32.046875 9.367188 Z M 32.046875 9.367188 " fill-opacity="1" fill-rule="nonzero"/></g><path fill="#000000" d="M 23.070312 17.496094 C 23.203125 17.472656 23.347656 17.441406 23.492188 17.410156 C 23.535156 17.398438 23.578125 17.386719 23.621094 17.375 C 23.652344 17.367188 23.660156 17.363281 23.667969 17.359375 C 23.796875 17.328125 23.914062 17.289062 24.019531 17.253906 C 24.191406 17.191406 24.359375 17.121094 24.527344 17.039062 C 24.609375 17 24.691406 16.953125 24.769531 16.910156 C 24.851562 16.859375 24.929688 16.8125 25.007812 16.757812 C 25.15625 16.640625 25.289062 16.515625 25.421875 16.378906 C 25.484375 16.3125 25.546875 16.246094 25.609375 16.175781 C 25.667969 16.101562 25.730469 16.03125 25.78125 15.949219 C 25.886719 15.792969 25.980469 15.628906 26.066406 15.460938 C 26.148438 15.289062 26.222656 15.113281 26.289062 14.933594 C 26.351562 14.75 26.40625 14.566406 26.445312 14.375 C 26.488281 14.183594 26.519531 13.992188 26.535156 13.792969 C 26.542969 13.710938 26.546875 13.625 26.546875 13.542969 C 26.546875 13.5 26.550781 13.457031 26.550781 13.417969 C 26.546875 13.375 26.546875 13.332031 26.542969 13.292969 C 26.535156 13.125 26.519531 12.960938 26.488281 12.804688 C 26.464844 12.6875 26.433594 12.5625 26.390625 12.433594 C 26.351562 12.308594 26.300781 12.183594 26.242188 12.058594 C 26.183594 11.9375 26.117188 11.820312 26.042969 11.710938 C 25.96875 11.601562 25.894531 11.5 25.816406 11.414062 C 25.820312 11.421875 25.8125 11.414062 25.796875 11.398438 C 25.777344 11.382812 25.75 11.355469 25.71875 11.320312 C 25.683594 11.289062 25.644531 11.25 25.601562 11.210938 C 25.554688 11.171875 25.507812 11.128906 25.457031 11.089844 C 25.425781 11.066406 25.394531 11.039062 25.363281 11.019531 C 24.882812 10.644531 24.269531 10.382812 23.554688 10.269531 C 23.261719 10.222656 22.628906 10.222656 22.402344 10.269531 C 21.972656 10.359375 21.78125 10.558594 21.734375 10.964844 C 21.730469 11.003906 21.726562 11.074219 21.722656 11.160156 C 21.71875 11.15625 21.714844 11.160156 21.707031 11.308594 C 21.710938 11.207031 21.714844 11.128906 21.71875 11.050781 C 21.722656 11.011719 21.722656 10.972656 21.730469 10.933594 C 21.734375 10.890625 21.742188 10.847656 21.757812 10.796875 C 21.757812 10.792969 21.753906 10.800781 21.75 10.816406 C 21.746094 10.828125 21.742188 10.851562 21.738281 10.878906 C 21.730469 10.910156 21.726562 10.941406 21.722656 10.976562 C 21.71875 11.011719 21.71875 11.046875 21.714844 11.085938 C 21.707031 11.226562 21.707031 11.355469 21.703125 11.285156 C 21.707031 11.1875 21.710938 11.082031 21.71875 10.976562 C 21.730469 10.867188 21.753906 10.761719 21.796875 10.664062 C 21.792969 10.671875 21.78125 10.6875 21.773438 10.710938 C 21.769531 10.722656 21.765625 10.738281 21.757812 10.75 C 21.753906 10.765625 21.75 10.78125 21.746094 10.800781 C 21.726562 10.867188 21.714844 10.953125 21.710938 11.039062 C 21.699219 11.203125 21.695312 11.355469 21.691406 11.339844 C 21.695312 11.285156 21.699219 11.140625 21.710938 11.003906 C 21.714844 10.933594 21.726562 10.871094 21.738281 10.820312 C 21.746094 10.792969 21.75 10.773438 21.753906 10.753906 C 21.757812 10.738281 21.761719 10.726562 21.765625 10.722656 C 21.765625 10.71875 21.761719 10.730469 21.753906 10.75 C 21.75 10.769531 21.738281 10.796875 21.730469 10.828125 C 21.726562 10.859375 21.71875 10.894531 21.714844 10.929688 C 21.710938 10.945312 21.710938 10.957031 21.707031 10.972656 C 21.722656 10.832031 21.757812 10.707031 21.804688 10.613281 C 21.859375 10.507812 21.929688 10.445312 21.96875 10.414062 C 21.988281 10.398438 21.996094 10.390625 22 10.386719 C 22.003906 10.382812 21.996094 10.386719 21.980469 10.398438 C 21.972656 10.40625 21.960938 10.414062 21.945312 10.421875 C 21.933594 10.433594 21.917969 10.449219 21.898438 10.464844 C 21.875 10.488281 21.847656 10.519531 21.820312 10.5625 C 21.839844 10.53125 21.863281 10.5 21.890625 10.46875 C 21.933594 10.425781 21.988281 10.382812 22.042969 10.351562 C 22.144531 10.296875 22.253906 10.261719 22.351562 10.238281 C 22.304688 10.25 22.246094 10.261719 22.191406 10.28125 C 22.15625 10.296875 22.117188 10.3125 22.085938 10.328125 C 22.171875 10.285156 22.269531 10.253906 22.363281 10.234375 C 22.34375 10.238281 22.324219 10.238281 22.300781 10.246094 C 22.265625 10.253906 22.230469 10.265625 22.195312 10.277344 C 22.21875 10.269531 22.242188 10.261719 22.265625 10.253906 C 22.203125 10.269531 22.132812 10.289062 22.058594 10.328125 C 21.992188 10.363281 21.925781 10.410156 21.875 10.464844 C 21.820312 10.515625 21.78125 10.582031 21.75 10.640625 C 21.691406 10.761719 21.675781 10.878906 21.664062 10.957031 C 21.65625 11.039062 21.652344 11.117188 21.652344 11.195312 C 21.648438 11.273438 21.644531 11.351562 21.644531 11.429688 C 21.640625 11.585938 21.640625 11.742188 21.640625 11.902344 C 21.644531 12.214844 21.648438 12.527344 21.65625 12.839844 C 21.671875 13.464844 21.6875 14.085938 21.707031 14.710938 C 21.710938 14.714844 21.710938 14.648438 21.71875 14.75 C 21.71875 14.789062 21.722656 14.832031 21.722656 14.871094 C 21.726562 14.910156 21.726562 14.949219 21.730469 14.988281 C 21.730469 15.0625 21.730469 15.132812 21.734375 15.207031 C 21.734375 15.351562 21.738281 15.5 21.746094 15.660156 C 21.746094 15.667969 21.75 15.675781 21.75 15.683594 C 21.753906 15.933594 21.753906 16.195312 21.765625 16.464844 C 21.773438 16.589844 21.78125 16.71875 21.8125 16.84375 C 21.824219 16.90625 21.839844 16.96875 21.863281 17.03125 C 21.886719 17.097656 21.925781 17.160156 21.964844 17.210938 C 21.988281 17.238281 22.007812 17.261719 22.03125 17.285156 C 22.054688 17.308594 22.078125 17.332031 22.101562 17.355469 C 22.15625 17.398438 22.214844 17.4375 22.277344 17.46875 C 22.339844 17.496094 22.40625 17.515625 22.472656 17.527344 C 22.539062 17.535156 22.605469 17.539062 22.671875 17.539062 C 22.65625 17.535156 22.652344 17.535156 22.703125 17.535156 C 22.808594 17.53125 22.933594 17.515625 23.070312 17.496094 Z M 22.148438 10.292969 L 22.140625 10.296875 C 22.144531 10.296875 22.148438 10.292969 22.148438 10.292969 Z M 22.085938 10.320312 C 22.085938 10.320312 22.085938 10.320312 22.085938 10.324219 C 22.085938 10.320312 22.085938 10.320312 22.085938 10.320312 Z M 21.804688 10.582031 C 21.808594 10.578125 21.808594 10.574219 21.8125 10.570312 C 21.808594 10.574219 21.808594 10.578125 21.804688 10.582031 Z M 24.359375 12.003906 C 24.640625 12.1875 24.839844 12.414062 24.960938 12.679688 C 25.066406 12.90625 25.097656 13.042969 25.105469 13.324219 C 25.101562 13.324219 25.097656 13.324219 25.097656 13.402344 C 25.09375 13.292969 25.09375 13.238281 25.085938 13.128906 C 25.082031 13.121094 25.089844 13.207031 25.09375 13.285156 C 25.097656 13.359375 25.09375 13.429688 25.089844 13.390625 C 25.09375 13.285156 25.085938 13.167969 25.070312 13.058594 C 25.070312 13.078125 25.082031 13.171875 25.082031 13.261719 C 25.085938 13.347656 25.085938 13.429688 25.082031 13.421875 C 25.082031 13.390625 25.082031 13.3125 25.082031 13.242188 C 25.078125 13.167969 25.070312 13.101562 25.066406 13.09375 C 25.066406 13.089844 25.074219 13.195312 25.078125 13.253906 C 25.074219 13.167969 25.0625 13.09375 25.050781 13.035156 C 25.039062 12.976562 25.027344 12.933594 25.019531 12.914062 C 25.007812 12.890625 25.003906 12.886719 25.011719 12.90625 C 25.011719 12.925781 25.027344 12.96875 25.035156 13.042969 C 25.027344 12.992188 25.015625 12.929688 24.992188 12.871094 C 24.972656 12.808594 24.949219 12.75 24.921875 12.699219 C 24.921875 12.699219 24.925781 12.699219 24.925781 12.699219 C 24.949219 12.75 24.984375 12.839844 24.996094 12.886719 C 24.980469 12.828125 24.953125 12.769531 24.929688 12.710938 C 24.929688 12.722656 24.933594 12.730469 24.9375 12.742188 C 24.957031 12.785156 24.972656 12.832031 24.988281 12.878906 C 24.976562 12.839844 24.960938 12.800781 24.945312 12.761719 C 24.953125 12.789062 24.964844 12.824219 24.976562 12.863281 C 25.023438 13.003906 25.027344 13.140625 25.03125 13.222656 C 25.035156 13.304688 25.035156 13.386719 25.035156 13.46875 C 25.035156 13.550781 25.027344 13.632812 25.019531 13.714844 C 25.007812 13.878906 24.976562 14.039062 24.933594 14.195312 C 24.890625 14.355469 24.832031 14.507812 24.761719 14.65625 C 24.695312 14.808594 24.617188 14.953125 24.523438 15.085938 C 24.527344 15.089844 24.550781 15.0625 24.519531 15.109375 C 24.496094 15.144531 24.472656 15.175781 24.449219 15.207031 C 24.421875 15.234375 24.398438 15.265625 24.371094 15.292969 C 24.34375 15.320312 24.320312 15.347656 24.289062 15.375 C 24.273438 15.386719 24.261719 15.398438 24.246094 15.414062 C 24.230469 15.425781 24.214844 15.441406 24.199219 15.453125 C 24.199219 15.457031 24.195312 15.460938 24.195312 15.464844 C 24.089844 15.546875 23.972656 15.617188 23.847656 15.679688 C 23.730469 15.734375 23.609375 15.78125 23.484375 15.824219 L 23.390625 15.859375 L 23.34375 15.871094 L 23.324219 15.878906 L 23.308594 15.882812 C 23.304688 15.882812 23.304688 15.886719 23.300781 15.882812 C 23.300781 15.878906 23.300781 15.882812 23.300781 15.875 L 23.296875 15.832031 C 23.296875 15.835938 23.296875 15.839844 23.292969 15.816406 C 23.285156 15.707031 23.285156 15.554688 23.28125 15.402344 C 23.277344 15.378906 23.277344 15.355469 23.277344 15.332031 C 23.277344 15.3125 23.273438 15.308594 23.273438 15.304688 C 23.269531 15.234375 23.269531 15.171875 23.269531 15.113281 C 23.234375 14.347656 23.199219 13.566406 23.164062 12.722656 C 23.15625 12.542969 23.144531 12.363281 23.136719 12.191406 C 23.132812 12.105469 23.132812 12.007812 23.128906 11.910156 C 23.125 11.820312 23.121094 11.726562 23.121094 11.640625 C 23.171875 11.644531 23.273438 11.652344 23.347656 11.664062 C 23.335938 11.65625 23.367188 11.65625 23.417969 11.664062 C 23.46875 11.667969 23.535156 11.679688 23.601562 11.691406 C 23.621094 11.695312 23.640625 11.699219 23.65625 11.703125 C 23.914062 11.773438 24.175781 11.882812 24.359375 12.003906 Z M 24.359375 12.003906 " fill-opacity="1" fill-rule="nonzero"/><path fill="#000000" d="M 22.390625 10.230469 C 22.378906 10.230469 22.367188 10.234375 22.351562 10.238281 C 22.367188 10.234375 22.378906 10.230469 22.390625 10.226562 C 22.390625 10.226562 22.390625 10.226562 22.390625 10.230469 Z M 22.390625 10.230469 " fill-opacity="1" fill-rule="nonzero"/><path fill="#000000" d="M 15.605469 25.785156 C 15.621094 25.78125 15.636719 25.777344 15.652344 25.773438 C 15.667969 25.765625 15.683594 25.761719 15.695312 25.753906 C 15.753906 25.726562 15.808594 25.695312 15.859375 25.65625 C 15.90625 25.617188 15.953125 25.574219 15.992188 25.523438 C 16.027344 25.472656 16.058594 25.414062 16.082031 25.355469 C 16.082031 25.355469 16.074219 25.367188 16.074219 25.371094 C 16.070312 25.371094 16.074219 25.363281 16.085938 25.324219 C 16.128906 25.203125 16.140625 25.089844 16.136719 24.976562 C 16.136719 24.921875 16.128906 24.863281 16.125 24.8125 C 16.121094 24.757812 16.113281 24.703125 16.109375 24.644531 C 16.105469 24.640625 16.105469 24.632812 16.101562 24.628906 C 16.089844 24.449219 16.089844 24.261719 16.085938 24.070312 C 16.074219 23.714844 16.066406 23.359375 16.058594 23.007812 C 16.054688 23.015625 16.054688 23.019531 16.050781 22.988281 C 16.046875 22.839844 16.042969 22.636719 16.039062 22.425781 C 16.039062 22.394531 16.039062 22.363281 16.039062 22.332031 C 16.035156 22.308594 16.035156 22.304688 16.03125 22.300781 C 16.03125 22.203125 16.027344 22.121094 16.027344 22.042969 C 16.019531 21.785156 16.015625 21.527344 16.015625 21.265625 C 16.011719 21.003906 16.011719 20.742188 16.019531 20.476562 C 16.019531 20.410156 16.023438 20.34375 16.027344 20.277344 C 16.027344 20.242188 16.03125 20.210938 16.035156 20.175781 C 16.039062 20.144531 16.039062 20.109375 16.039062 20.074219 C 16.042969 19.933594 16.023438 19.789062 15.957031 19.65625 C 15.824219 19.390625 15.511719 19.234375 15.207031 19.277344 C 15.144531 19.285156 15.082031 19.304688 15.023438 19.328125 C 14.96875 19.355469 14.910156 19.382812 14.863281 19.425781 L 14.84375 19.4375 L 14.828125 19.453125 L 14.792969 19.484375 C 14.773438 19.507812 14.75 19.53125 14.730469 19.554688 C 14.691406 19.601562 14.660156 19.65625 14.640625 19.710938 C 14.609375 19.792969 14.589844 19.886719 14.578125 19.980469 C 14.566406 20.074219 14.558594 20.171875 14.550781 20.269531 C 14.539062 20.464844 14.527344 20.65625 14.523438 20.824219 C 14.535156 20.800781 14.535156 20.992188 14.542969 21.167969 C 14.542969 21.195312 14.546875 21.222656 14.546875 21.25 C 14.546875 21.578125 14.554688 21.957031 14.570312 22.359375 C 14.578125 22.511719 14.585938 23.019531 14.59375 23.484375 C 14.601562 23.847656 14.605469 24.140625 14.617188 24.378906 C 14.613281 24.375 14.609375 24.382812 14.613281 24.488281 C 14.605469 24.339844 14.601562 24.265625 14.597656 24.117188 C 14.597656 24.105469 14.601562 24.222656 14.605469 24.324219 C 14.609375 24.429688 14.613281 24.523438 14.605469 24.46875 C 14.601562 24.328125 14.59375 24.167969 14.589844 24.019531 C 14.585938 24.042969 14.589844 24.171875 14.59375 24.292969 C 14.597656 24.414062 14.601562 24.523438 14.597656 24.511719 C 14.589844 24.429688 14.589844 24.09375 14.582031 24.066406 C 14.582031 24.058594 14.585938 24.207031 14.585938 24.28125 C 14.578125 24.054688 14.570312 23.875 14.566406 23.808594 C 14.5625 23.738281 14.558594 23.78125 14.558594 23.992188 C 14.558594 23.84375 14.554688 23.640625 14.550781 23.488281 C 14.550781 23.5625 14.554688 23.695312 14.554688 23.765625 C 14.554688 23.679688 14.550781 23.59375 14.550781 23.507812 C 14.550781 23.519531 14.546875 23.535156 14.546875 23.550781 C 14.546875 23.617188 14.546875 23.683594 14.550781 23.75 C 14.546875 23.691406 14.546875 23.632812 14.546875 23.578125 C 14.542969 23.621094 14.542969 23.667969 14.542969 23.722656 C 14.539062 23.929688 14.539062 24.128906 14.542969 24.238281 C 14.546875 24.464844 14.558594 24.691406 14.578125 24.917969 C 14.589844 25.035156 14.601562 25.148438 14.632812 25.265625 C 14.648438 25.320312 14.671875 25.382812 14.703125 25.4375 C 14.734375 25.492188 14.773438 25.542969 14.820312 25.589844 C 14.90625 25.675781 15.019531 25.742188 15.136719 25.785156 L 15.15625 25.792969 L 15.183594 25.800781 C 15.199219 25.804688 15.214844 25.808594 15.230469 25.808594 C 15.261719 25.816406 15.296875 25.816406 15.328125 25.820312 C 15.390625 25.820312 15.449219 25.816406 15.511719 25.804688 C 15.542969 25.800781 15.574219 25.796875 15.605469 25.785156 Z M 15.605469 25.785156 " fill-opacity="1" fill-rule="nonzero"/><path fill="#000000" d="M 8.703125 16.21875 C 8.695312 16.265625 8.667969 15.867188 8.648438 15.570312 C 8.636719 15.339844 8.625 15.085938 8.609375 14.800781 C 8.59375 14.421875 8.570312 13.851562 8.5625 13.539062 L 8.546875 12.96875 L 8.714844 12.953125 C 8.808594 12.945312 9.121094 12.933594 9.414062 12.925781 C 9.996094 12.910156 10.101562 12.894531 10.246094 12.78125 C 10.402344 12.660156 10.488281 12.496094 10.515625 12.328125 C 10.515625 12.332031 10.519531 12.328125 10.519531 12.308594 C 10.523438 12.296875 10.523438 12.28125 10.527344 12.257812 C 10.53125 12.234375 10.527344 12.203125 10.527344 12.164062 C 10.539062 12.277344 10.519531 12.367188 10.492188 12.449219 L 10.484375 12.480469 C 10.480469 12.492188 10.476562 12.5 10.46875 12.511719 C 10.460938 12.53125 10.449219 12.550781 10.4375 12.574219 C 10.414062 12.613281 10.386719 12.65625 10.34375 12.699219 C 10.34375 12.703125 10.347656 12.695312 10.359375 12.683594 C 10.367188 12.675781 10.375 12.667969 10.382812 12.65625 C 10.390625 12.648438 10.398438 12.636719 10.40625 12.621094 C 10.417969 12.609375 10.425781 12.59375 10.4375 12.578125 C 10.445312 12.5625 10.453125 12.546875 10.460938 12.527344 C 10.46875 12.519531 10.472656 12.511719 10.476562 12.5 C 10.480469 12.492188 10.484375 12.480469 10.488281 12.472656 C 10.492188 12.453125 10.5 12.433594 10.507812 12.414062 C 10.511719 12.394531 10.515625 12.375 10.519531 12.355469 C 10.519531 12.347656 10.523438 12.335938 10.523438 12.328125 C 10.527344 12.320312 10.527344 12.308594 10.527344 12.300781 C 10.527344 12.285156 10.53125 12.265625 10.53125 12.25 C 10.53125 12.238281 10.53125 12.222656 10.53125 12.210938 C 10.53125 12.164062 10.53125 12.148438 10.535156 12.1875 C 10.539062 12.300781 10.519531 12.421875 10.464844 12.53125 C 10.414062 12.640625 10.328125 12.734375 10.234375 12.804688 C 10.242188 12.804688 10.246094 12.800781 10.253906 12.792969 C 10.261719 12.789062 10.273438 12.78125 10.28125 12.769531 C 10.304688 12.753906 10.332031 12.730469 10.355469 12.699219 C 10.414062 12.640625 10.464844 12.554688 10.5 12.464844 C 10.515625 12.421875 10.523438 12.375 10.535156 12.335938 C 10.535156 12.3125 10.539062 12.292969 10.539062 12.273438 C 10.539062 12.265625 10.542969 12.253906 10.542969 12.246094 C 10.542969 12.238281 10.542969 12.226562 10.542969 12.21875 C 10.542969 12.15625 10.53125 12.117188 10.535156 12.125 C 10.539062 12.140625 10.542969 12.164062 10.542969 12.191406 C 10.542969 12.21875 10.546875 12.25 10.542969 12.285156 C 10.539062 12.300781 10.539062 12.320312 10.535156 12.335938 C 10.53125 12.355469 10.527344 12.375 10.523438 12.390625 C 10.523438 12.402344 10.519531 12.410156 10.515625 12.421875 L 10.507812 12.449219 C 10.5 12.46875 10.496094 12.484375 10.488281 12.503906 C 10.421875 12.648438 10.3125 12.75 10.296875 12.765625 C 10.296875 12.769531 10.304688 12.757812 10.324219 12.742188 C 10.332031 12.738281 10.339844 12.726562 10.351562 12.714844 C 10.363281 12.703125 10.375 12.691406 10.386719 12.675781 C 10.398438 12.664062 10.410156 12.644531 10.421875 12.628906 C 10.429688 12.617188 10.4375 12.605469 10.445312 12.59375 C 10.421875 12.636719 10.394531 12.671875 10.363281 12.703125 C 10.339844 12.734375 10.308594 12.761719 10.28125 12.785156 C 10.253906 12.808594 10.226562 12.828125 10.195312 12.847656 C 10.140625 12.882812 10.082031 12.902344 10.035156 12.914062 C 9.988281 12.925781 9.949219 12.929688 9.921875 12.933594 C 9.867188 12.941406 9.859375 12.941406 9.902344 12.941406 C 9.925781 12.9375 9.960938 12.9375 10.011719 12.929688 C 10.039062 12.925781 10.070312 12.917969 10.101562 12.90625 C 10.128906 12.898438 10.152344 12.890625 10.179688 12.875 C 10.164062 12.886719 10.144531 12.894531 10.125 12.902344 C 10.09375 12.914062 10.058594 12.921875 10.027344 12.929688 C 9.957031 12.941406 9.886719 12.949219 9.816406 12.953125 C 9.675781 12.960938 9.535156 12.964844 9.417969 12.96875 C 9.511719 12.964844 9.65625 12.960938 9.769531 12.957031 C 9.660156 12.964844 9.554688 12.964844 9.445312 12.96875 C 9.46875 12.96875 9.492188 12.96875 9.519531 12.96875 C 9.589844 12.96875 9.660156 12.96875 9.730469 12.964844 C 9.671875 12.964844 9.613281 12.96875 9.558594 12.96875 C 9.625 12.972656 9.703125 12.972656 9.789062 12.96875 C 9.871094 12.964844 9.953125 12.957031 10.035156 12.945312 C 10.078125 12.933594 10.117188 12.925781 10.15625 12.90625 C 10.195312 12.890625 10.230469 12.871094 10.261719 12.847656 C 10.324219 12.804688 10.375 12.757812 10.417969 12.707031 C 10.421875 12.699219 10.425781 12.695312 10.433594 12.691406 C 10.4375 12.683594 10.441406 12.675781 10.445312 12.671875 C 10.453125 12.660156 10.460938 12.648438 10.46875 12.636719 C 10.476562 12.625 10.484375 12.613281 10.492188 12.601562 C 10.5 12.589844 10.503906 12.578125 10.507812 12.566406 C 10.617188 12.363281 10.621094 12.109375 10.515625 11.902344 C 10.460938 11.796875 10.386719 11.707031 10.292969 11.636719 C 10.25 11.601562 10.195312 11.574219 10.144531 11.546875 L 9.988281 11.472656 L 9.597656 11.472656 C 9.476562 11.476562 9.351562 11.476562 9.226562 11.476562 C 8.976562 11.484375 8.730469 11.496094 8.480469 11.511719 C 8.355469 11.519531 8.234375 11.527344 8.109375 11.539062 C 7.988281 11.546875 7.863281 11.554688 7.742188 11.5625 C 7.496094 11.578125 7.25 11.589844 7.003906 11.597656 C 7 11.601562 7.074219 11.601562 6.957031 11.605469 C 6.589844 11.621094 6.296875 11.613281 5.925781 11.628906 C 5.917969 11.628906 5.910156 11.632812 5.898438 11.632812 C 5.828125 11.636719 5.757812 11.636719 5.683594 11.636719 C 5.609375 11.640625 5.535156 11.644531 5.457031 11.652344 C 5.417969 11.65625 5.378906 11.664062 5.335938 11.675781 C 5.316406 11.683594 5.296875 11.691406 5.277344 11.699219 C 5.257812 11.707031 5.238281 11.714844 5.222656 11.722656 C 5.148438 11.757812 5.078125 11.808594 5.019531 11.867188 C 4.824219 12.0625 4.753906 12.367188 4.84375 12.625 C 4.855469 12.65625 4.871094 12.6875 4.882812 12.71875 C 4.898438 12.75 4.914062 12.777344 4.929688 12.804688 C 4.96875 12.863281 5.011719 12.917969 5.066406 12.960938 C 5.117188 13.007812 5.175781 13.042969 5.238281 13.070312 C 5.265625 13.085938 5.292969 13.097656 5.324219 13.109375 L 5.421875 13.15625 C 5.488281 13.152344 5.550781 13.152344 5.617188 13.152344 C 5.601562 13.152344 5.59375 13.148438 5.648438 13.148438 C 5.878906 13.144531 6.199219 13.144531 6.527344 13.144531 C 6.578125 13.140625 6.625 13.140625 6.671875 13.140625 C 6.710938 13.140625 6.71875 13.136719 6.726562 13.136719 C 6.855469 13.136719 6.96875 13.136719 7.074219 13.136719 L 7.078125 13.136719 L 7.078125 13.148438 L 7.082031 13.21875 L 7.085938 13.371094 C 7.089844 13.46875 7.09375 13.570312 7.101562 13.667969 C 7.109375 13.867188 7.121094 14.070312 7.128906 14.269531 C 7.148438 14.671875 7.171875 15.078125 7.191406 15.488281 C 7.210938 15.898438 7.230469 16.316406 7.253906 16.738281 C 7.261719 16.949219 7.277344 17.164062 7.292969 17.378906 C 7.296875 17.429688 7.304688 17.484375 7.308594 17.539062 L 7.3125 17.582031 C 7.316406 17.589844 7.316406 17.597656 7.316406 17.605469 L 7.324219 17.625 C 7.332031 17.652344 7.339844 17.679688 7.347656 17.707031 C 7.390625 17.8125 7.457031 17.910156 7.542969 17.988281 C 7.613281 18.054688 7.699219 18.105469 7.796875 18.132812 C 7.890625 18.160156 7.988281 18.167969 8.082031 18.164062 C 8.132812 18.164062 8.179688 18.160156 8.230469 18.148438 C 8.277344 18.132812 8.320312 18.113281 8.359375 18.089844 C 8.445312 18.046875 8.519531 17.988281 8.582031 17.917969 C 8.628906 17.867188 8.671875 17.808594 8.699219 17.742188 C 8.714844 17.707031 8.726562 17.675781 8.734375 17.636719 C 8.742188 17.597656 8.742188 17.5625 8.742188 17.523438 C 8.746094 17.378906 8.742188 17.226562 8.734375 17.078125 C 8.726562 16.777344 8.714844 16.480469 8.703125 16.21875 Z M 10.46875 12.550781 C 10.46875 12.550781 10.472656 12.546875 10.472656 12.542969 C 10.472656 12.546875 10.46875 12.550781 10.46875 12.550781 Z M 10.46875 12.550781 " fill-opacity="1" fill-rule="nonzero"/><path fill="#000000" d="M 10.007812 25.867188 C 10.042969 25.878906 10.078125 25.890625 10.109375 25.898438 C 10.128906 25.902344 10.144531 25.90625 10.160156 25.914062 C 10.179688 25.917969 10.195312 25.921875 10.214844 25.921875 C 10.28125 25.933594 10.347656 25.941406 10.410156 25.941406 C 10.441406 25.941406 10.472656 25.941406 10.5 25.941406 C 10.527344 25.941406 10.554688 25.9375 10.578125 25.9375 C 10.628906 25.9375 10.671875 25.933594 10.710938 25.933594 C 11.308594 25.90625 11.90625 25.878906 12.507812 25.855469 L 12.734375 25.84375 C 12.808594 25.839844 12.882812 25.839844 12.960938 25.828125 C 13.003906 25.824219 13.042969 25.820312 13.085938 25.804688 C 13.109375 25.800781 13.132812 25.792969 13.148438 25.78125 C 13.167969 25.773438 13.1875 25.765625 13.203125 25.753906 C 13.273438 25.714844 13.34375 25.667969 13.402344 25.605469 C 13.457031 25.546875 13.507812 25.476562 13.539062 25.402344 C 13.574219 25.324219 13.59375 25.246094 13.601562 25.164062 C 13.609375 25.085938 13.605469 25.003906 13.589844 24.921875 C 13.582031 24.882812 13.570312 24.84375 13.558594 24.804688 C 13.542969 24.765625 13.523438 24.726562 13.503906 24.691406 C 13.5 24.691406 13.507812 24.707031 13.507812 24.710938 C 13.507812 24.714844 13.503906 24.707031 13.472656 24.660156 C 13.425781 24.589844 13.363281 24.535156 13.304688 24.484375 C 13.277344 24.460938 13.242188 24.4375 13.207031 24.417969 C 13.171875 24.398438 13.132812 24.382812 13.097656 24.371094 C 13.019531 24.347656 12.945312 24.339844 12.871094 24.335938 C 12.792969 24.332031 12.71875 24.332031 12.640625 24.332031 C 12.632812 24.332031 12.625 24.335938 12.617188 24.335938 C 12.496094 24.335938 12.371094 24.339844 12.246094 24.34375 C 12.121094 24.34375 11.992188 24.347656 11.863281 24.351562 C 11.746094 24.355469 11.628906 24.359375 11.507812 24.363281 C 11.390625 24.367188 11.273438 24.375 11.15625 24.378906 L 11.066406 24.378906 L 11.027344 24.382812 L 11.023438 24.382812 C 11.023438 24.382812 11.023438 24.378906 11.023438 24.378906 L 11.023438 24.3125 C 11.023438 24.199219 11.023438 24.082031 11.023438 23.96875 C 11.023438 23.980469 11.019531 23.984375 11.019531 23.9375 C 11.019531 23.746094 11.027344 23.480469 11.03125 23.203125 C 11.03125 23.164062 11.03125 23.121094 11.03125 23.082031 C 11.03125 23.050781 11.027344 23.042969 11.027344 23.039062 C 11.027344 22.914062 11.027344 22.800781 11.03125 22.699219 C 11.03125 22.359375 11.027344 22.019531 11.027344 21.675781 C 11.027344 21.335938 11.03125 20.988281 11.023438 20.640625 C 11.019531 20.550781 11.019531 20.464844 11.015625 20.375 C 11.015625 20.285156 11.011719 20.199219 11.003906 20.109375 C 11 20.0625 10.996094 20.015625 10.976562 19.964844 C 10.96875 19.941406 10.957031 19.921875 10.945312 19.898438 L 10.929688 19.867188 L 10.914062 19.839844 C 10.863281 19.757812 10.792969 19.6875 10.714844 19.628906 C 10.558594 19.519531 10.351562 19.476562 10.160156 19.511719 C 9.96875 19.542969 9.789062 19.65625 9.679688 19.820312 C 9.664062 19.839844 9.65625 19.859375 9.644531 19.878906 C 9.632812 19.898438 9.621094 19.917969 9.613281 19.9375 C 9.59375 19.980469 9.574219 20.023438 9.554688 20.0625 C 9.554688 20.292969 9.554688 20.523438 9.558594 20.746094 C 9.550781 21.195312 9.546875 21.769531 9.542969 22.207031 C 9.550781 22.171875 9.558594 22.445312 9.5625 22.683594 C 9.558594 23.578125 9.554688 24.40625 9.558594 24.679688 C 9.5625 25.386719 9.578125 25.457031 9.765625 25.644531 C 9.882812 25.761719 9.976562 25.808594 10.171875 25.851562 C 10.257812 25.871094 10.378906 25.882812 10.492188 25.875 C 10.589844 25.871094 10.734375 25.863281 10.898438 25.855469 C 10.894531 25.859375 10.867188 25.863281 11.039062 25.859375 C 10.839844 25.867188 10.742188 25.871094 10.542969 25.882812 C 10.519531 25.886719 11.152344 25.851562 11.015625 25.863281 C 10.921875 25.867188 10.820312 25.871094 10.71875 25.878906 C 10.617188 25.882812 10.515625 25.890625 10.414062 25.890625 C 10.449219 25.898438 10.621094 25.886719 10.78125 25.882812 C 10.9375 25.875 11.085938 25.867188 11.070312 25.871094 C 10.964844 25.878906 10.515625 25.890625 10.476562 25.898438 C 10.46875 25.902344 10.667969 25.890625 10.765625 25.886719 C 10.6875 25.890625 10.617188 25.894531 10.550781 25.898438 C 10.484375 25.902344 10.421875 25.90625 10.367188 25.902344 C 10.3125 25.902344 10.261719 25.898438 10.222656 25.894531 C 10.183594 25.890625 10.148438 25.882812 10.128906 25.875 C 10.082031 25.867188 10.074219 25.867188 10.109375 25.878906 C 10.144531 25.890625 10.230469 25.914062 10.375 25.921875 C 10.324219 25.917969 10.269531 25.914062 10.210938 25.90625 C 10.152344 25.894531 10.097656 25.878906 10.035156 25.863281 C 9.976562 25.84375 9.917969 25.816406 9.867188 25.785156 C 9.816406 25.75 9.773438 25.710938 9.734375 25.675781 C 9.734375 25.675781 9.738281 25.675781 9.738281 25.675781 C 9.773438 25.710938 9.828125 25.761719 9.890625 25.800781 C 9.914062 25.8125 9.941406 25.828125 9.964844 25.835938 C 9.941406 25.828125 9.921875 25.816406 9.898438 25.804688 C 9.84375 25.773438 9.796875 25.734375 9.753906 25.695312 C 9.765625 25.707031 9.78125 25.722656 9.796875 25.738281 C 9.828125 25.765625 9.863281 25.789062 9.898438 25.808594 C 9.875 25.796875 9.847656 25.78125 9.824219 25.761719 C 9.871094 25.800781 9.9375 25.839844 10.007812 25.867188 Z M 10 25.851562 C 9.988281 25.847656 9.976562 25.839844 9.964844 25.835938 C 9.976562 25.84375 9.988281 25.847656 10 25.851562 Z M 10.03125 25.863281 C 10.027344 25.859375 10.023438 25.859375 10.019531 25.859375 C 10.023438 25.859375 10.027344 25.859375 10.03125 25.863281 Z M 9.9375 25.832031 C 9.933594 25.828125 9.925781 25.824219 9.921875 25.820312 C 9.925781 25.824219 9.933594 25.828125 9.9375 25.832031 Z M 10 25.855469 C 9.992188 25.855469 9.988281 25.851562 9.980469 25.847656 C 9.988281 25.851562 9.992188 25.855469 10 25.855469 Z M 10 25.855469 " fill-opacity="1" fill-rule="nonzero"/><path fill="#000000" d="M 20.015625 18.601562 C 19.902344 18.625 19.796875 18.65625 19.691406 18.691406 C 19.585938 18.730469 19.484375 18.769531 19.382812 18.816406 C 19.28125 18.863281 19.183594 18.917969 19.085938 18.976562 C 19.085938 18.980469 19.105469 18.96875 19.113281 18.964844 C 19.117188 18.964844 19.105469 18.972656 19.042969 19.011719 C 18.851562 19.144531 18.691406 19.28125 18.558594 19.445312 C 18.488281 19.527344 18.429688 19.613281 18.375 19.703125 C 18.316406 19.796875 18.265625 19.894531 18.222656 20.003906 C 18.222656 20.011719 18.21875 20.023438 18.214844 20.035156 C 18.152344 20.203125 18.109375 20.382812 18.09375 20.570312 C 18.085938 20.664062 18.089844 20.757812 18.097656 20.851562 C 18.105469 20.949219 18.125 21.042969 18.152344 21.136719 C 18.246094 21.480469 18.457031 21.78125 18.722656 22.011719 C 18.789062 22.070312 18.859375 22.125 18.933594 22.175781 C 18.96875 22.199219 19.003906 22.222656 19.042969 22.246094 C 19.078125 22.269531 19.113281 22.292969 19.152344 22.3125 C 19.304688 22.402344 19.464844 22.46875 19.621094 22.539062 C 19.605469 22.527344 19.597656 22.523438 19.660156 22.550781 C 19.792969 22.605469 19.949219 22.671875 20.113281 22.746094 C 20.28125 22.824219 20.457031 22.910156 20.621094 23.015625 C 20.671875 23.046875 20.71875 23.078125 20.761719 23.117188 C 20.796875 23.140625 20.804688 23.148438 20.8125 23.152344 C 20.875 23.210938 20.925781 23.273438 20.96875 23.335938 C 20.976562 23.351562 20.988281 23.367188 20.996094 23.386719 C 21.003906 23.402344 21.015625 23.417969 21.023438 23.433594 C 21.03125 23.449219 21.035156 23.46875 21.042969 23.484375 C 21.050781 23.5 21.054688 23.515625 21.0625 23.53125 C 21.070312 23.558594 21.074219 23.585938 21.082031 23.613281 C 21.082031 23.625 21.082031 23.640625 21.085938 23.652344 C 21.085938 23.667969 21.089844 23.679688 21.085938 23.695312 L 21.085938 23.734375 C 21.082031 23.746094 21.078125 23.757812 21.078125 23.773438 C 21.074219 23.800781 21.0625 23.824219 21.054688 23.847656 C 21.011719 23.949219 20.929688 24.035156 20.835938 24.105469 C 20.738281 24.175781 20.632812 24.230469 20.519531 24.28125 C 20.464844 24.304688 20.40625 24.328125 20.347656 24.347656 C 20.289062 24.371094 20.234375 24.386719 20.175781 24.398438 C 20.117188 24.410156 20.058594 24.414062 20 24.414062 C 19.941406 24.410156 19.882812 24.398438 19.820312 24.386719 C 19.757812 24.375 19.703125 24.363281 19.652344 24.339844 C 19.625 24.324219 19.601562 24.3125 19.574219 24.296875 L 19.496094 24.242188 C 19.4375 24.207031 19.382812 24.175781 19.316406 24.148438 C 19.253906 24.121094 19.1875 24.105469 19.117188 24.097656 C 18.980469 24.085938 18.839844 24.105469 18.714844 24.167969 C 18.589844 24.226562 18.484375 24.324219 18.410156 24.441406 C 18.339844 24.554688 18.296875 24.691406 18.296875 24.832031 C 18.296875 24.96875 18.339844 25.105469 18.417969 25.21875 C 18.496094 25.335938 18.601562 25.425781 18.710938 25.503906 C 18.820312 25.582031 18.9375 25.652344 19.066406 25.703125 C 19.191406 25.757812 19.324219 25.792969 19.457031 25.820312 C 19.589844 25.847656 19.726562 25.867188 19.863281 25.882812 C 19.898438 25.886719 19.933594 25.886719 19.96875 25.890625 C 19.984375 25.890625 20.003906 25.890625 20.019531 25.890625 L 20.070312 25.890625 C 20.105469 25.890625 20.140625 25.886719 20.175781 25.886719 L 20.28125 25.875 C 20.515625 25.839844 20.742188 25.773438 20.957031 25.691406 C 21.171875 25.605469 21.378906 25.5 21.566406 25.378906 C 21.640625 25.335938 21.707031 25.285156 21.78125 25.234375 C 21.847656 25.179688 21.921875 25.125 21.984375 25.058594 C 22.121094 24.933594 22.242188 24.785156 22.332031 24.621094 C 22.425781 24.457031 22.496094 24.28125 22.539062 24.105469 C 22.578125 23.929688 22.589844 23.753906 22.582031 23.59375 C 22.582031 23.605469 22.578125 23.59375 22.574219 23.5625 C 22.570312 23.527344 22.566406 23.476562 22.554688 23.414062 C 22.535156 23.285156 22.492188 23.113281 22.425781 22.957031 C 22.40625 22.910156 22.382812 22.867188 22.363281 22.824219 C 22.246094 22.582031 22.082031 22.355469 21.871094 22.148438 C 21.5625 21.847656 21.125 21.589844 20.40625 21.289062 C 19.957031 21.097656 19.796875 21.011719 19.683594 20.898438 C 19.558594 20.773438 19.542969 20.675781 19.613281 20.511719 C 19.667969 20.382812 19.828125 20.222656 19.96875 20.152344 C 20.128906 20.074219 20.363281 20.007812 20.503906 20.007812 C 20.710938 20.003906 20.839844 20.058594 20.925781 20.1875 C 21.023438 20.339844 21.125 20.429688 21.273438 20.496094 C 21.339844 20.523438 21.40625 20.542969 21.476562 20.546875 C 21.476562 20.550781 21.476562 20.554688 21.503906 20.554688 C 21.519531 20.554688 21.539062 20.558594 21.570312 20.558594 C 21.582031 20.558594 21.601562 20.558594 21.621094 20.554688 C 21.628906 20.554688 21.636719 20.554688 21.648438 20.550781 C 21.523438 20.570312 21.421875 20.554688 21.328125 20.527344 C 21.273438 20.507812 21.226562 20.484375 21.175781 20.453125 C 21.125 20.421875 21.074219 20.382812 21.023438 20.332031 C 21.019531 20.324219 21.050781 20.367188 21.113281 20.414062 C 21.175781 20.460938 21.273438 20.515625 21.371094 20.539062 C 21.46875 20.566406 21.570312 20.5625 21.625 20.554688 C 21.65625 20.554688 21.675781 20.550781 21.679688 20.550781 C 21.6875 20.546875 21.679688 20.550781 21.65625 20.558594 C 21.515625 20.578125 21.359375 20.558594 21.226562 20.488281 C 21.160156 20.453125 21.09375 20.410156 21.042969 20.359375 C 20.988281 20.304688 20.945312 20.246094 20.90625 20.1875 C 20.917969 20.207031 20.957031 20.273438 21.023438 20.34375 C 21.089844 20.417969 21.195312 20.488281 21.304688 20.53125 C 21.417969 20.570312 21.535156 20.578125 21.617188 20.566406 C 21.699219 20.558594 21.746094 20.542969 21.734375 20.550781 C 21.695312 20.558594 21.625 20.578125 21.539062 20.574219 C 21.449219 20.574219 21.347656 20.554688 21.261719 20.511719 C 21.171875 20.472656 21.09375 20.417969 21.042969 20.367188 C 20.988281 20.316406 20.957031 20.273438 20.949219 20.265625 C 20.945312 20.257812 20.984375 20.320312 21.050781 20.378906 C 21.101562 20.429688 21.167969 20.472656 21.226562 20.5 C 21.144531 20.460938 21.074219 20.410156 21.019531 20.351562 C 20.984375 20.316406 20.953125 20.277344 20.925781 20.242188 C 20.902344 20.203125 20.882812 20.171875 20.855469 20.148438 C 20.804688 20.09375 20.742188 20.070312 20.691406 20.054688 C 20.640625 20.042969 20.59375 20.039062 20.5625 20.039062 C 20.5 20.039062 20.488281 20.042969 20.539062 20.042969 C 20.566406 20.046875 20.609375 20.046875 20.664062 20.0625 C 20.714844 20.074219 20.777344 20.09375 20.832031 20.148438 C 20.792969 20.109375 20.738281 20.082031 20.675781 20.066406 C 20.640625 20.058594 20.601562 20.050781 20.5625 20.050781 C 20.542969 20.050781 20.523438 20.050781 20.5 20.050781 C 20.480469 20.050781 20.460938 20.050781 20.441406 20.054688 C 20.359375 20.0625 20.277344 20.082031 20.199219 20.109375 C 20.136719 20.128906 20.074219 20.152344 20.015625 20.175781 C 20.078125 20.148438 20.15625 20.121094 20.238281 20.097656 C 20.332031 20.070312 20.425781 20.054688 20.488281 20.050781 C 20.410156 20.054688 20.328125 20.074219 20.25 20.09375 C 20.171875 20.117188 20.09375 20.144531 20.019531 20.175781 C 20.042969 20.167969 20.070312 20.15625 20.097656 20.148438 C 20.15625 20.125 20.214844 20.109375 20.273438 20.09375 C 20.308594 20.085938 20.34375 20.078125 20.378906 20.070312 C 20.300781 20.085938 20.21875 20.105469 20.144531 20.132812 C 20.21875 20.109375 20.3125 20.085938 20.410156 20.074219 C 20.433594 20.070312 20.457031 20.066406 20.480469 20.066406 C 20.503906 20.0625 20.527344 20.0625 20.550781 20.066406 C 20.59375 20.066406 20.640625 20.074219 20.679688 20.085938 C 20.761719 20.105469 20.820312 20.152344 20.859375 20.210938 C 20.867188 20.21875 20.871094 20.226562 20.878906 20.238281 C 20.882812 20.246094 20.890625 20.253906 20.894531 20.265625 C 20.90625 20.28125 20.921875 20.300781 20.933594 20.316406 C 20.960938 20.347656 20.988281 20.378906 21.015625 20.40625 C 21.074219 20.460938 21.132812 20.5 21.183594 20.527344 C 21.210938 20.542969 21.234375 20.554688 21.265625 20.566406 C 21.277344 20.570312 21.292969 20.578125 21.304688 20.582031 L 21.351562 20.597656 C 21.410156 20.609375 21.46875 20.621094 21.527344 20.621094 C 21.589844 20.621094 21.648438 20.617188 21.707031 20.601562 C 21.765625 20.589844 21.824219 20.574219 21.878906 20.546875 C 21.90625 20.535156 21.929688 20.519531 21.957031 20.503906 C 21.980469 20.488281 22.007812 20.472656 22.03125 20.453125 C 22.054688 20.4375 22.074219 20.414062 22.097656 20.394531 C 22.117188 20.371094 22.140625 20.347656 22.15625 20.324219 C 22.226562 20.230469 22.277344 20.121094 22.300781 20 C 22.320312 19.882812 22.308594 19.761719 22.277344 19.652344 C 22.242188 19.539062 22.191406 19.433594 22.128906 19.339844 C 22.0625 19.246094 21.988281 19.160156 21.910156 19.082031 C 21.828125 19.003906 21.742188 18.929688 21.648438 18.867188 C 21.460938 18.738281 21.242188 18.652344 21.023438 18.605469 C 20.800781 18.554688 20.574219 18.546875 20.351562 18.554688 C 20.238281 18.5625 20.125 18.578125 20.015625 18.601562 Z M 20.378906 20.070312 C 20.40625 20.066406 20.429688 20.0625 20.457031 20.058594 C 20.429688 20.0625 20.40625 20.066406 20.378906 20.070312 Z M 21.25 20.511719 C 21.242188 20.507812 21.238281 20.507812 21.230469 20.503906 C 21.238281 20.507812 21.242188 20.507812 21.25 20.511719 Z M 21.25 20.511719 " fill-opacity="1" fill-rule="nonzero"/><path fill="#000000" d="M 19.988281 20.191406 C 19.992188 20.1875 19.996094 20.1875 20.003906 20.183594 C 19.996094 20.1875 19.992188 20.1875 19.984375 20.191406 C 19.988281 20.191406 19.988281 20.191406 19.988281 20.191406 Z M 19.988281 20.191406 " fill-opacity="1" fill-rule="nonzero"/><path fill="#000000" d="M 20.015625 20.175781 C 20.011719 20.179688 20.007812 20.179688 20.003906 20.183594 C 20.007812 20.179688 20.011719 20.179688 20.015625 20.175781 Z M 20.015625 20.175781 " fill-opacity="1" fill-rule="nonzero"/><path fill="#000000" d="M 19.546875 13.429688 C 19.019531 13.441406 18.488281 13.453125 17.960938 13.464844 C 17.957031 13.46875 17.988281 13.472656 17.941406 13.472656 C 17.875 13.476562 17.8125 13.476562 17.75 13.476562 C 17.6875 13.476562 17.625 13.476562 17.550781 13.488281 L 17.539062 13.496094 C 17.511719 13.5 17.480469 13.503906 17.449219 13.511719 C 17.417969 13.523438 17.386719 13.535156 17.363281 13.546875 C 17.308594 13.570312 17.253906 13.601562 17.203125 13.640625 C 17.113281 13.710938 17.039062 13.800781 16.992188 13.90625 C 16.96875 13.960938 16.949219 14.015625 16.9375 14.070312 C 16.929688 14.125 16.925781 14.179688 16.925781 14.234375 C 16.925781 14.230469 16.929688 14.226562 16.929688 14.25 C 16.929688 14.273438 16.929688 14.296875 16.933594 14.324219 C 16.9375 14.335938 16.9375 14.351562 16.941406 14.367188 C 16.941406 14.378906 16.945312 14.394531 16.949219 14.410156 C 16.960938 14.46875 16.980469 14.53125 17.011719 14.589844 C 17.023438 14.609375 17.03125 14.625 17.042969 14.644531 C 17.050781 14.65625 17.054688 14.65625 17.058594 14.660156 C 17.089844 14.710938 17.128906 14.75 17.164062 14.785156 C 17.226562 14.839844 17.300781 14.882812 17.375 14.914062 C 17.394531 14.921875 17.414062 14.929688 17.433594 14.9375 C 17.453125 14.941406 17.472656 14.949219 17.492188 14.953125 C 17.542969 14.964844 17.578125 14.964844 17.617188 14.96875 C 17.777344 14.972656 17.929688 14.96875 18.085938 14.964844 C 18.402344 14.957031 18.722656 14.941406 19.054688 14.925781 C 19.195312 14.917969 19.339844 14.910156 19.472656 14.902344 C 19.539062 14.898438 19.609375 14.898438 19.683594 14.894531 C 19.757812 14.894531 19.835938 14.890625 19.910156 14.890625 C 19.945312 14.871094 19.984375 14.855469 20.019531 14.835938 C 20.050781 14.820312 20.085938 14.804688 20.117188 14.789062 C 20.097656 14.789062 20.199219 14.730469 20.265625 14.648438 C 20.273438 14.636719 20.28125 14.625 20.292969 14.613281 C 20.292969 14.613281 20.292969 14.613281 20.292969 14.609375 C 20.40625 14.46875 20.4375 14.371094 20.4375 14.175781 C 20.4375 13.890625 20.261719 13.644531 19.984375 13.542969 C 19.871094 13.5 19.84375 13.492188 19.464844 13.503906 C 19.46875 13.5 19.464844 13.496094 19.402344 13.496094 C 19.488281 13.492188 19.535156 13.492188 19.621094 13.492188 C 19.632812 13.484375 19.351562 13.5 19.414062 13.488281 C 19.496094 13.488281 19.589844 13.484375 19.679688 13.484375 C 19.648438 13.476562 19.375 13.488281 19.386719 13.480469 C 19.4375 13.476562 19.632812 13.484375 19.652344 13.476562 C 19.65625 13.472656 19.566406 13.476562 19.523438 13.476562 C 19.65625 13.472656 19.761719 13.46875 19.804688 13.46875 C 19.824219 13.46875 19.828125 13.464844 19.8125 13.464844 C 19.796875 13.460938 19.757812 13.457031 19.695312 13.453125 C 19.738281 13.453125 19.789062 13.453125 19.847656 13.460938 C 19.875 13.464844 19.902344 13.46875 19.929688 13.476562 C 19.957031 13.484375 19.980469 13.496094 20 13.503906 C 19.980469 13.496094 19.949219 13.484375 19.917969 13.472656 C 19.898438 13.46875 19.875 13.464844 19.859375 13.460938 C 19.878906 13.464844 19.894531 13.46875 19.914062 13.472656 C 19.941406 13.480469 19.964844 13.488281 19.992188 13.496094 C 19.984375 13.492188 19.976562 13.488281 19.964844 13.484375 C 19.941406 13.476562 19.914062 13.46875 19.886719 13.460938 C 19.90625 13.464844 19.929688 13.472656 19.953125 13.476562 C 19.925781 13.46875 19.894531 13.457031 19.859375 13.449219 C 19.792969 13.4375 19.730469 13.4375 19.679688 13.433594 C 19.625 13.433594 19.582031 13.429688 19.546875 13.429688 Z M 19.546875 13.429688 " fill-opacity="1" fill-rule="nonzero"/><path fill="#000000" d="M 15.070312 16.824219 C 15.085938 16.800781 15.105469 16.773438 15.125 16.746094 C 15.269531 16.527344 15.382812 16.304688 15.429688 16.175781 C 15.640625 15.648438 15.746094 15.085938 15.757812 14.523438 C 15.765625 14.242188 15.75 13.960938 15.710938 13.683594 C 15.671875 13.402344 15.605469 13.128906 15.519531 12.859375 C 15.515625 12.859375 15.53125 12.917969 15.5 12.828125 C 15.453125 12.691406 15.402344 12.566406 15.351562 12.445312 C 15.296875 12.324219 15.238281 12.203125 15.164062 12.078125 C 15.15625 12.070312 15.152344 12.066406 15.148438 12.0625 C 15.027344 11.867188 14.886719 11.667969 14.707031 11.496094 C 14.542969 11.339844 14.355469 11.207031 14.148438 11.105469 C 13.941406 11.007812 13.714844 10.945312 13.484375 10.933594 C 13.496094 10.9375 13.5 10.9375 13.453125 10.9375 C 13.265625 10.925781 12.996094 10.957031 12.742188 11.058594 C 12.703125 11.074219 12.667969 11.089844 12.632812 11.109375 C 12.605469 11.121094 12.597656 11.128906 12.59375 11.132812 C 12.484375 11.1875 12.394531 11.246094 12.3125 11.304688 C 12.179688 11.402344 12.058594 11.515625 11.949219 11.640625 L 11.871094 11.734375 C 11.855469 11.75 11.84375 11.765625 11.832031 11.78125 L 11.796875 11.832031 L 11.722656 11.933594 C 11.710938 11.949219 11.703125 11.96875 11.691406 11.984375 L 11.660156 12.039062 C 11.492188 12.324219 11.371094 12.632812 11.28125 12.953125 C 11.195312 13.273438 11.140625 13.605469 11.121094 13.945312 C 11.097656 14.285156 11.109375 14.628906 11.15625 14.980469 C 11.199219 15.273438 11.269531 15.566406 11.363281 15.835938 C 11.429688 16.039062 11.523438 16.261719 11.636719 16.476562 C 11.75 16.6875 11.886719 16.886719 12.027344 17.042969 C 12.019531 17.027344 12.058594 17.066406 12.117188 17.125 C 12.148438 17.152344 12.183594 17.183594 12.222656 17.21875 C 12.261719 17.253906 12.308594 17.289062 12.351562 17.324219 C 12.371094 17.335938 12.390625 17.347656 12.410156 17.363281 C 12.609375 17.507812 12.828125 17.613281 13.058594 17.671875 C 13.726562 17.832031 14.410156 17.570312 14.90625 16.953125 C 15.125 16.6875 15.300781 16.355469 15.429688 15.988281 C 15.429688 15.988281 15.4375 15.976562 15.480469 15.863281 C 15.464844 15.90625 15.453125 15.945312 15.441406 15.980469 C 15.425781 16.015625 15.417969 16.046875 15.402344 16.078125 C 15.390625 16.113281 15.378906 16.144531 15.363281 16.179688 C 15.351562 16.214844 15.335938 16.25 15.316406 16.292969 C 15.316406 16.292969 15.320312 16.289062 15.324219 16.277344 C 15.332031 16.265625 15.339844 16.246094 15.347656 16.222656 C 15.367188 16.175781 15.390625 16.113281 15.414062 16.054688 C 15.457031 15.929688 15.492188 15.824219 15.476562 15.882812 C 15.449219 15.96875 15.417969 16.058594 15.382812 16.144531 C 15.363281 16.1875 15.351562 16.234375 15.328125 16.277344 C 15.308594 16.320312 15.289062 16.363281 15.269531 16.402344 C 15.277344 16.390625 15.300781 16.347656 15.328125 16.289062 C 15.339844 16.261719 15.355469 16.230469 15.367188 16.195312 C 15.382812 16.164062 15.394531 16.128906 15.410156 16.09375 C 15.425781 16.058594 15.4375 16.027344 15.445312 15.992188 C 15.457031 15.960938 15.46875 15.933594 15.476562 15.910156 C 15.492188 15.863281 15.503906 15.832031 15.503906 15.839844 C 15.496094 15.863281 15.480469 15.90625 15.460938 15.957031 C 15.453125 15.980469 15.445312 16.007812 15.433594 16.039062 C 15.425781 16.066406 15.410156 16.09375 15.398438 16.121094 C 15.375 16.179688 15.355469 16.234375 15.335938 16.277344 C 15.316406 16.316406 15.304688 16.347656 15.300781 16.355469 C 15.300781 16.359375 15.320312 16.320312 15.34375 16.269531 C 15.367188 16.214844 15.390625 16.152344 15.410156 16.109375 C 15.398438 16.140625 15.382812 16.171875 15.371094 16.203125 C 15.359375 16.234375 15.347656 16.265625 15.335938 16.292969 C 15.308594 16.351562 15.285156 16.402344 15.265625 16.449219 C 15.21875 16.539062 15.183594 16.605469 15.164062 16.644531 C 15.140625 16.679688 15.136719 16.6875 15.160156 16.660156 C 15.167969 16.644531 15.183594 16.621094 15.203125 16.585938 C 15.222656 16.550781 15.25 16.507812 15.28125 16.449219 C 15.261719 16.488281 15.234375 16.535156 15.210938 16.578125 C 15.199219 16.601562 15.183594 16.625 15.171875 16.648438 C 15.15625 16.671875 15.140625 16.695312 15.125 16.71875 C 15.109375 16.742188 15.097656 16.765625 15.082031 16.789062 C 15.074219 16.800781 15.066406 16.8125 15.058594 16.824219 C 15.050781 16.835938 15.042969 16.84375 15.035156 16.855469 C 15 16.898438 14.96875 16.941406 14.941406 16.980469 C 14.972656 16.941406 15.011719 16.886719 15.050781 16.835938 C 15.085938 16.785156 15.121094 16.730469 15.144531 16.691406 C 15.113281 16.738281 15.085938 16.785156 15.054688 16.832031 L 14.957031 16.960938 C 14.96875 16.949219 14.980469 16.933594 14.992188 16.917969 C 15.015625 16.886719 15.042969 16.855469 15.066406 16.824219 C 15.046875 16.847656 15.03125 16.871094 15.015625 16.894531 C 15.03125 16.871094 15.050781 16.851562 15.070312 16.824219 Z M 13.660156 16.242188 C 13.660156 16.234375 13.65625 16.238281 13.597656 16.273438 C 13.636719 16.25 13.664062 16.226562 13.691406 16.203125 C 13.714844 16.175781 13.742188 16.152344 13.769531 16.117188 C 13.773438 16.109375 13.726562 16.167969 13.679688 16.210938 C 13.632812 16.253906 13.582031 16.28125 13.605469 16.261719 C 13.679688 16.214844 13.746094 16.136719 13.804688 16.066406 C 13.792969 16.074219 13.742188 16.140625 13.6875 16.191406 C 13.660156 16.214844 13.632812 16.238281 13.613281 16.25 C 13.589844 16.265625 13.578125 16.269531 13.578125 16.265625 C 13.601562 16.253906 13.652344 16.222656 13.695312 16.179688 C 13.742188 16.136719 13.777344 16.09375 13.78125 16.082031 C 13.78125 16.078125 13.722656 16.148438 13.6875 16.179688 C 13.789062 16.082031 13.84375 15.984375 13.867188 15.949219 C 13.882812 15.910156 13.871094 15.933594 13.792969 16.03125 C 13.84375 15.960938 13.914062 15.855469 13.957031 15.769531 C 13.957031 15.769531 13.957031 15.769531 13.953125 15.769531 C 13.933594 15.8125 13.890625 15.882812 13.867188 15.917969 C 13.898438 15.875 13.925781 15.828125 13.949219 15.78125 C 13.945312 15.785156 13.9375 15.796875 13.933594 15.804688 C 13.914062 15.839844 13.890625 15.871094 13.871094 15.910156 C 13.890625 15.878906 13.90625 15.847656 13.921875 15.816406 C 13.910156 15.839844 13.890625 15.863281 13.871094 15.890625 C 13.804688 15.996094 13.722656 16.085938 13.675781 16.132812 C 13.628906 16.179688 13.578125 16.222656 13.527344 16.238281 C 13.511719 16.246094 13.5 16.25 13.484375 16.253906 C 13.46875 16.257812 13.453125 16.257812 13.449219 16.257812 L 13.429688 16.257812 C 13.425781 16.257812 13.417969 16.253906 13.410156 16.253906 C 13.402344 16.253906 13.398438 16.25 13.390625 16.25 C 13.382812 16.246094 13.378906 16.246094 13.371094 16.242188 C 13.316406 16.21875 13.265625 16.183594 13.21875 16.136719 C 13.167969 16.09375 13.128906 16.039062 13.085938 15.984375 C 13.007812 15.875 12.945312 15.75 12.890625 15.625 C 12.835938 15.5 12.789062 15.367188 12.75 15.234375 C 12.746094 15.234375 12.753906 15.261719 12.738281 15.21875 C 12.71875 15.148438 12.703125 15.085938 12.691406 15.019531 C 12.679688 14.957031 12.671875 14.890625 12.660156 14.824219 L 12.652344 14.8125 C 12.640625 14.703125 12.636719 14.585938 12.636719 14.464844 C 12.628906 14.246094 12.628906 14.023438 12.652344 13.808594 C 12.652344 13.8125 12.648438 13.816406 12.652344 13.792969 C 12.660156 13.707031 12.6875 13.582031 12.71875 13.457031 C 12.722656 13.441406 12.730469 13.421875 12.734375 13.402344 C 12.738281 13.390625 12.738281 13.386719 12.734375 13.382812 C 12.742188 13.355469 12.753906 13.328125 12.761719 13.304688 C 12.769531 13.277344 12.777344 13.253906 12.785156 13.230469 C 12.835938 13.082031 12.902344 12.933594 12.980469 12.796875 C 13.023438 12.726562 13.066406 12.660156 13.121094 12.601562 C 13.171875 12.542969 13.230469 12.488281 13.296875 12.460938 C 13.304688 12.457031 13.3125 12.453125 13.324219 12.449219 C 13.332031 12.445312 13.339844 12.445312 13.347656 12.441406 C 13.363281 12.441406 13.378906 12.4375 13.398438 12.441406 C 13.433594 12.441406 13.46875 12.457031 13.503906 12.472656 C 13.574219 12.507812 13.636719 12.5625 13.691406 12.625 C 13.808594 12.746094 13.902344 12.894531 13.976562 13.050781 C 14.042969 13.1875 14.097656 13.328125 14.136719 13.46875 C 14.164062 13.570312 14.191406 13.691406 14.210938 13.8125 C 14.226562 13.929688 14.238281 14.050781 14.246094 14.15625 C 14.253906 14.140625 14.269531 14.257812 14.277344 14.371094 C 14.277344 14.386719 14.277344 14.402344 14.28125 14.417969 C 14.28125 14.910156 14.1875 15.402344 13.992188 15.789062 C 13.894531 15.984375 13.769531 16.148438 13.660156 16.242188 Z M 15.136719 16.714844 L 15.078125 16.804688 C 15.078125 16.808594 15.074219 16.8125 15.074219 16.8125 C 15.09375 16.78125 15.117188 16.746094 15.136719 16.714844 Z M 15.136719 16.714844 " fill-opacity="1" fill-rule="nonzero"/><path fill="#000000" d="M 28.660156 18.996094 L 28.617188 18.957031 C 28.613281 18.949219 28.605469 18.945312 28.597656 18.9375 L 28.574219 18.921875 L 28.527344 18.886719 C 28.511719 18.875 28.496094 18.867188 28.476562 18.855469 C 28.460938 18.847656 28.445312 18.839844 28.429688 18.828125 L 28.378906 18.804688 C 28.34375 18.789062 28.304688 18.773438 28.269531 18.753906 C 28.144531 18.757812 28.019531 18.757812 27.886719 18.761719 C 27.757812 18.761719 27.628906 18.765625 27.492188 18.769531 C 27.226562 18.777344 26.945312 18.792969 26.667969 18.816406 C 26.476562 18.828125 26.289062 18.847656 26.105469 18.863281 C 25.917969 18.875 25.734375 18.886719 25.550781 18.894531 C 25.285156 18.910156 24.976562 18.917969 24.671875 18.921875 C 24.519531 18.925781 24.371094 18.929688 24.222656 18.933594 C 24.074219 18.9375 23.933594 18.9375 23.800781 18.949219 C 23.8125 18.949219 23.800781 18.953125 23.773438 18.957031 C 23.75 18.964844 23.707031 18.96875 23.652344 18.984375 C 23.640625 18.988281 23.628906 18.992188 23.613281 19 C 23.601562 19.003906 23.589844 19.011719 23.574219 19.019531 C 23.546875 19.03125 23.519531 19.046875 23.488281 19.066406 C 23.433594 19.101562 23.378906 19.148438 23.335938 19.203125 C 23.316406 19.222656 23.300781 19.246094 23.285156 19.269531 C 23.28125 19.277344 23.277344 19.28125 23.273438 19.285156 C 23.152344 19.476562 23.128906 19.71875 23.238281 19.9375 C 23.316406 20.101562 23.414062 20.195312 23.589844 20.273438 L 23.726562 20.335938 L 25.429688 20.324219 L 25.445312 20.800781 C 25.453125 21.066406 25.476562 21.59375 25.5 22.191406 C 25.5 22.207031 25.5 22.25 25.503906 22.347656 C 25.492188 22.117188 25.488281 22.003906 25.480469 21.773438 C 25.472656 21.746094 25.511719 22.480469 25.496094 22.320312 C 25.488281 22.097656 25.476562 21.851562 25.464844 21.621094 C 25.460938 21.703125 25.496094 22.417969 25.488281 22.382812 C 25.484375 22.257812 25.472656 21.738281 25.460938 21.695312 C 25.457031 21.683594 25.46875 21.914062 25.472656 22.027344 C 25.441406 21.324219 25.414062 20.933594 25.433594 21.578125 C 25.425781 21.355469 25.414062 21.039062 25.402344 20.800781 C 25.402344 20.800781 25.402344 20.800781 25.402344 20.804688 C 25.40625 20.921875 25.414062 21.125 25.421875 21.234375 C 25.414062 21.101562 25.410156 20.964844 25.402344 20.832031 C 25.402344 20.851562 25.402344 20.875 25.402344 20.902344 C 25.40625 21.003906 25.410156 21.101562 25.414062 21.207031 C 25.410156 21.117188 25.40625 21.03125 25.402344 20.941406 C 25.402344 21.007812 25.402344 21.085938 25.40625 21.167969 C 25.414062 21.488281 25.417969 21.792969 25.425781 21.964844 C 25.453125 22.660156 25.480469 23.355469 25.511719 24.050781 C 25.519531 24.226562 25.527344 24.402344 25.539062 24.574219 C 25.546875 24.664062 25.550781 24.75 25.5625 24.839844 L 25.566406 24.851562 L 25.566406 24.859375 C 25.566406 24.871094 25.570312 24.875 25.570312 24.878906 L 25.578125 24.914062 C 25.585938 24.9375 25.59375 24.960938 25.605469 24.984375 C 25.621094 25.027344 25.644531 25.070312 25.667969 25.113281 C 25.71875 25.195312 25.785156 25.265625 25.863281 25.328125 C 25.902344 25.355469 25.945312 25.382812 25.992188 25.402344 C 26.035156 25.421875 26.085938 25.4375 26.132812 25.449219 C 26.226562 25.46875 26.324219 25.472656 26.417969 25.46875 C 26.464844 25.464844 26.519531 25.457031 26.566406 25.4375 C 26.589844 25.429688 26.613281 25.421875 26.636719 25.410156 C 26.65625 25.402344 26.675781 25.390625 26.699219 25.378906 C 26.699219 25.375 26.679688 25.386719 26.675781 25.386719 C 26.671875 25.386719 26.683594 25.382812 26.738281 25.347656 C 26.820312 25.292969 26.890625 25.226562 26.949219 25.15625 C 27.003906 25.082031 27.050781 25 27.070312 24.90625 C 27.074219 24.878906 27.078125 24.859375 27.078125 24.835938 C 27.082031 24.816406 27.082031 24.792969 27.082031 24.769531 C 27.085938 24.730469 27.085938 24.6875 27.085938 24.644531 C 27.085938 24.558594 27.082031 24.472656 27.078125 24.382812 C 27.074219 24.375 27.074219 24.363281 27.070312 24.355469 C 27.0625 24.074219 27.054688 23.78125 27.042969 23.484375 C 27.027344 23.210938 27.015625 22.9375 27.003906 22.664062 C 26.988281 22.390625 26.972656 22.117188 26.964844 21.84375 C 26.960938 21.859375 26.960938 21.867188 26.957031 21.8125 C 26.949219 21.585938 26.9375 21.273438 26.925781 20.949219 C 26.925781 20.898438 26.921875 20.851562 26.921875 20.804688 C 26.917969 20.769531 26.917969 20.757812 26.914062 20.753906 C 26.910156 20.605469 26.910156 20.476562 26.90625 20.355469 C 26.90625 20.332031 26.902344 20.3125 26.902344 20.292969 C 26.902344 20.289062 26.902344 20.285156 26.902344 20.28125 L 26.910156 20.28125 L 26.941406 20.277344 C 26.972656 20.273438 27.007812 20.269531 27.039062 20.269531 C 27.105469 20.265625 27.171875 20.265625 27.238281 20.261719 C 27.371094 20.253906 27.503906 20.25 27.636719 20.242188 C 27.773438 20.238281 27.90625 20.234375 28.042969 20.226562 C 28.113281 20.222656 28.183594 20.214844 28.253906 20.207031 C 28.324219 20.195312 28.398438 20.179688 28.464844 20.144531 C 28.5 20.125 28.53125 20.105469 28.5625 20.082031 C 28.589844 20.058594 28.617188 20.035156 28.644531 20.007812 C 28.667969 19.980469 28.691406 19.953125 28.714844 19.925781 L 28.761719 19.855469 C 28.765625 19.847656 28.769531 19.839844 28.773438 19.832031 C 28.84375 19.699219 28.875 19.546875 28.855469 19.398438 C 28.832031 19.25 28.769531 19.105469 28.660156 18.996094 Z M 28.660156 18.996094 " fill-opacity="1" fill-rule="nonzero"/><path fill="#000000" d="M 31.488281 12.964844 C 31.414062 12.582031 31.300781 12.230469 31.152344 11.917969 C 31.15625 11.917969 31.15625 11.910156 31.101562 11.792969 C 31.125 11.835938 31.140625 11.871094 31.15625 11.90625 C 31.171875 11.9375 31.1875 11.96875 31.199219 12 C 31.214844 12.03125 31.226562 12.066406 31.242188 12.097656 C 31.257812 12.132812 31.269531 12.171875 31.289062 12.214844 C 31.292969 12.222656 31.242188 12.089844 31.191406 11.972656 C 31.164062 11.914062 31.136719 11.859375 31.121094 11.828125 C 31.105469 11.792969 31.101562 11.78125 31.117188 11.808594 C 31.195312 11.96875 31.273438 12.152344 31.332031 12.324219 C 31.328125 12.308594 31.316406 12.265625 31.292969 12.207031 C 31.273438 12.148438 31.246094 12.074219 31.214844 12.007812 C 31.1875 11.9375 31.15625 11.875 31.132812 11.828125 C 31.109375 11.785156 31.097656 11.757812 31.101562 11.761719 C 31.113281 11.785156 31.136719 11.824219 31.15625 11.871094 C 31.167969 11.898438 31.179688 11.921875 31.195312 11.949219 C 31.203125 11.976562 31.21875 12.007812 31.230469 12.035156 C 31.273438 12.148438 31.3125 12.253906 31.324219 12.269531 C 31.328125 12.273438 31.285156 12.160156 31.25 12.074219 C 31.347656 12.308594 31.402344 12.496094 31.425781 12.570312 C 31.441406 12.609375 31.445312 12.617188 31.4375 12.585938 C 31.433594 12.566406 31.425781 12.539062 31.417969 12.5 C 31.40625 12.460938 31.390625 12.414062 31.375 12.351562 C 31.386719 12.394531 31.402344 12.441406 31.417969 12.492188 C 31.429688 12.542969 31.445312 12.59375 31.460938 12.648438 C 31.472656 12.703125 31.484375 12.753906 31.496094 12.808594 C 31.507812 12.859375 31.519531 12.910156 31.527344 12.957031 C 31.519531 12.910156 31.507812 12.84375 31.492188 12.78125 C 31.488281 12.761719 31.484375 12.742188 31.480469 12.722656 C 31.496094 12.792969 31.511719 12.863281 31.523438 12.933594 C 31.523438 12.914062 31.519531 12.898438 31.515625 12.875 C 31.503906 12.796875 31.484375 12.71875 31.460938 12.636719 C 31.472656 12.671875 31.480469 12.707031 31.488281 12.742188 C 31.496094 12.777344 31.503906 12.8125 31.511719 12.847656 C 31.503906 12.792969 31.492188 12.730469 31.476562 12.664062 C 31.421875 12.414062 31.34375 12.179688 31.289062 12.050781 C 31.234375 11.921875 31.171875 11.792969 31.105469 11.667969 C 31.035156 11.542969 30.960938 11.421875 30.875 11.308594 C 30.707031 11.078125 30.496094 10.871094 30.25 10.714844 C 30.007812 10.558594 29.726562 10.449219 29.429688 10.421875 C 29.285156 10.40625 29.136719 10.414062 28.988281 10.4375 C 28.84375 10.460938 28.703125 10.503906 28.570312 10.5625 C 28.566406 10.566406 28.625 10.542969 28.539062 10.585938 C 28.402344 10.648438 28.285156 10.71875 28.175781 10.800781 C 28.0625 10.878906 27.960938 10.96875 27.859375 11.082031 C 27.855469 11.085938 27.851562 11.09375 27.847656 11.101562 C 27.828125 11.121094 27.808594 11.144531 27.789062 11.164062 C 27.773438 11.1875 27.753906 11.210938 27.734375 11.230469 C 27.695312 11.277344 27.664062 11.328125 27.628906 11.375 C 27.609375 11.398438 27.589844 11.421875 27.574219 11.449219 C 27.558594 11.472656 27.542969 11.5 27.527344 11.523438 C 27.496094 11.578125 27.464844 11.628906 27.4375 11.683594 L 27.359375 11.832031 L 27.296875 11.988281 C 27.285156 12.011719 27.273438 12.039062 27.261719 12.066406 L 27.234375 12.144531 C 27.21875 12.195312 27.199219 12.25 27.183594 12.300781 C 27.152344 12.410156 27.117188 12.515625 27.097656 12.621094 C 27.082031 12.675781 27.070312 12.730469 27.058594 12.785156 L 27.03125 12.945312 C 27.035156 12.9375 27.039062 12.929688 27.03125 12.972656 C 27.023438 13.019531 27.015625 13.070312 27.011719 13.121094 C 27.003906 13.175781 26.996094 13.230469 26.988281 13.289062 C 26.980469 13.410156 26.96875 13.539062 26.96875 13.667969 C 26.964844 13.707031 26.964844 13.746094 26.964844 13.785156 C 26.964844 13.8125 26.96875 13.820312 26.96875 13.828125 C 26.96875 13.886719 26.972656 13.941406 26.972656 13.996094 C 26.972656 14.023438 26.972656 14.046875 26.976562 14.074219 C 26.976562 14.097656 26.976562 14.125 26.980469 14.148438 C 27.027344 14.789062 27.191406 15.433594 27.519531 16.015625 C 27.539062 16.054688 27.5625 16.089844 27.585938 16.125 C 27.605469 16.160156 27.628906 16.195312 27.652344 16.230469 C 27.703125 16.296875 27.75 16.367188 27.804688 16.433594 C 27.855469 16.5 27.914062 16.5625 27.972656 16.625 C 28.035156 16.683594 28.097656 16.746094 28.164062 16.800781 C 28.300781 16.910156 28.449219 17.007812 28.609375 17.078125 C 28.773438 17.148438 28.945312 17.203125 29.125 17.222656 C 29.277344 17.238281 29.433594 17.234375 29.582031 17.210938 C 29.730469 17.1875 29.875 17.140625 30.007812 17.082031 C 30.058594 17.0625 30.109375 17.035156 30.160156 17.007812 C 30.183594 16.996094 30.207031 16.980469 30.234375 16.964844 C 30.257812 16.949219 30.285156 16.933594 30.308594 16.917969 C 30.359375 16.882812 30.40625 16.847656 30.453125 16.808594 C 30.476562 16.789062 30.503906 16.773438 30.523438 16.753906 L 30.59375 16.691406 C 30.617188 16.671875 30.636719 16.648438 30.65625 16.628906 C 30.679688 16.605469 30.699219 16.585938 30.71875 16.5625 C 30.738281 16.539062 30.757812 16.515625 30.777344 16.496094 C 30.796875 16.472656 30.816406 16.449219 30.835938 16.425781 C 30.871094 16.378906 30.90625 16.332031 30.9375 16.289062 C 30.96875 16.242188 30.996094 16.195312 31.023438 16.152344 C 31.019531 16.15625 31.023438 16.148438 31.03125 16.128906 C 31.042969 16.113281 31.054688 16.082031 31.074219 16.042969 C 31.089844 16.007812 31.113281 15.964844 31.136719 15.914062 C 31.15625 15.867188 31.179688 15.816406 31.203125 15.765625 C 31.210938 15.742188 31.222656 15.71875 31.230469 15.691406 C 31.558594 14.902344 31.664062 13.894531 31.488281 12.964844 Z M 29.546875 15.726562 C 29.542969 15.722656 29.539062 15.726562 29.484375 15.757812 C 29.523438 15.734375 29.550781 15.710938 29.578125 15.6875 C 29.601562 15.664062 29.628906 15.640625 29.65625 15.601562 C 29.660156 15.597656 29.613281 15.652344 29.566406 15.695312 C 29.519531 15.742188 29.464844 15.769531 29.492188 15.75 C 29.566406 15.703125 29.632812 15.625 29.691406 15.550781 C 29.679688 15.5625 29.628906 15.625 29.574219 15.675781 C 29.546875 15.703125 29.519531 15.722656 29.5 15.738281 C 29.476562 15.75 29.464844 15.757812 29.464844 15.753906 C 29.488281 15.742188 29.539062 15.707031 29.582031 15.664062 C 29.628906 15.621094 29.664062 15.578125 29.667969 15.570312 C 29.667969 15.566406 29.609375 15.636719 29.574219 15.667969 C 29.675781 15.566406 29.730469 15.46875 29.75 15.433594 C 29.769531 15.394531 29.757812 15.417969 29.675781 15.519531 C 29.730469 15.449219 29.800781 15.34375 29.84375 15.257812 C 29.839844 15.257812 29.839844 15.257812 29.839844 15.257812 C 29.820312 15.300781 29.777344 15.371094 29.753906 15.40625 C 29.785156 15.359375 29.808594 15.3125 29.835938 15.265625 C 29.828125 15.273438 29.824219 15.28125 29.820312 15.289062 C 29.800781 15.324219 29.777344 15.359375 29.757812 15.394531 C 29.773438 15.363281 29.792969 15.332031 29.808594 15.300781 C 29.796875 15.324219 29.777344 15.351562 29.757812 15.378906 C 29.6875 15.484375 29.609375 15.574219 29.5625 15.617188 C 29.515625 15.664062 29.464844 15.707031 29.414062 15.726562 C 29.398438 15.730469 29.386719 15.734375 29.371094 15.738281 C 29.355469 15.742188 29.339844 15.746094 29.335938 15.746094 L 29.316406 15.742188 C 29.308594 15.742188 29.304688 15.742188 29.296875 15.738281 C 29.289062 15.738281 29.285156 15.738281 29.277344 15.734375 C 29.269531 15.730469 29.261719 15.730469 29.257812 15.726562 C 29.203125 15.707031 29.152344 15.667969 29.105469 15.625 C 29.054688 15.578125 29.011719 15.527344 28.972656 15.472656 C 28.894531 15.359375 28.832031 15.238281 28.777344 15.113281 C 28.722656 14.984375 28.675781 14.855469 28.636719 14.71875 C 28.632812 14.71875 28.640625 14.75 28.625 14.707031 C 28.605469 14.636719 28.589844 14.570312 28.578125 14.507812 C 28.566406 14.445312 28.554688 14.378906 28.546875 14.308594 L 28.539062 14.300781 C 28.527344 14.1875 28.523438 14.070312 28.519531 13.953125 C 28.515625 13.730469 28.515625 13.511719 28.539062 13.296875 C 28.535156 13.300781 28.535156 13.304688 28.535156 13.28125 C 28.546875 13.195312 28.574219 13.070312 28.605469 12.945312 C 28.609375 12.925781 28.617188 12.910156 28.621094 12.890625 C 28.625 12.875 28.621094 12.871094 28.621094 12.867188 C 28.628906 12.839844 28.640625 12.816406 28.648438 12.789062 C 28.65625 12.765625 28.664062 12.742188 28.671875 12.71875 C 28.722656 12.566406 28.789062 12.417969 28.867188 12.28125 C 28.910156 12.214844 28.953125 12.144531 29.007812 12.085938 C 29.058594 12.03125 29.117188 11.976562 29.183594 11.945312 C 29.191406 11.941406 29.199219 11.9375 29.207031 11.933594 C 29.214844 11.933594 29.226562 11.929688 29.234375 11.929688 C 29.25 11.925781 29.265625 11.925781 29.285156 11.925781 C 29.320312 11.929688 29.355469 11.941406 29.390625 11.957031 C 29.457031 11.992188 29.519531 12.050781 29.578125 12.109375 C 29.695312 12.230469 29.789062 12.378906 29.863281 12.539062 C 29.929688 12.671875 29.984375 12.816406 30.023438 12.953125 C 30.050781 13.058594 30.078125 13.175781 30.09375 13.296875 C 30.113281 13.417969 30.125 13.539062 30.132812 13.640625 C 30.140625 13.625 30.15625 13.746094 30.164062 13.855469 C 30.164062 13.871094 30.164062 13.886719 30.164062 13.90625 C 30.164062 14.394531 30.074219 14.886719 29.878906 15.273438 C 29.78125 15.46875 29.65625 15.636719 29.546875 15.726562 Z M 29.546875 15.726562 " fill-opacity="1" fill-rule="nonzero"/></svg>