<svg xmlns="http://www.w3.org/2000/svg" xmlns:xlink="http://www.w3.org/1999/xlink" width="200" zoomAndPan="magnify" viewBox="0 0 150 149.999998" height="200" preserveAspectRatio="xMidYMid meet" version="1.0"><defs><clipPath id="d1790e185d"><path d="M 5.101562 5.101562 L 144.898438 5.101562 L 144.898438 144.898438 L 5.101562 144.898438 Z M 5.101562 5.101562 " clip-rule="nonzero"/></clipPath><clipPath id="4e0ea7ac22"><path d="M 41.101562 5.101562 L 108.898438 5.101562 C 128.78125 5.101562 144.898438 21.21875 144.898438 41.101562 L 144.898438 108.898438 C 144.898438 128.78125 128.78125 144.898438 108.898438 144.898438 L 41.101562 144.898438 C 21.21875 144.898438 5.101562 128.78125 5.101562 108.898438 L 5.101562 41.101562 C 5.101562 21.21875 21.21875 5.101562 41.101562 5.101562 Z M 41.101562 5.101562 " clip-rule="nonzero"/></clipPath><clipPath id="21906e5ee3"><path d="M 0.101562 0.101562 L 139.898438 0.101562 L 139.898438 139.898438 L 0.101562 139.898438 Z M 0.101562 0.101562 " clip-rule="nonzero"/></clipPath><clipPath id="bdda856fab"><path d="M 36.101562 0.101562 L 103.898438 0.101562 C 123.78125 0.101562 139.898438 16.21875 139.898438 36.101562 L 139.898438 103.898438 C 139.898438 123.78125 123.78125 139.898438 103.898438 139.898438 L 36.101562 139.898438 C 16.21875 139.898438 0.101562 123.78125 0.101562 103.898438 L 0.101562 36.101562 C 0.101562 16.21875 16.21875 0.101562 36.101562 0.101562 Z M 36.101562 0.101562 " clip-rule="nonzero"/></clipPath><clipPath id="577d65c63e"><rect x="0" width="140" y="0" height="140"/></clipPath><clipPath id="4f957c3cc1"><path d="M 18 38 L 133.691406 38 L 133.691406 113.949219 L 18 113.949219 Z M 18 38 " clip-rule="nonzero"/></clipPath><clipPath id="91b4fe4e44"><path d="M 15.941406 35.949219 L 132 35.949219 L 132 112 L 15.941406 112 Z M 15.941406 35.949219 " clip-rule="nonzero"/></clipPath></defs><g clip-path="url(#d1790e185d)"><g clip-path="url(#4e0ea7ac22)"><g transform="matrix(1, 0, 0, 1, 5, 5)"><g clip-path="url(#577d65c63e)"><g clip-path="url(#21906e5ee3)"><g clip-path="url(#bdda856fab)"><path fill="#ff3131" d="M 0.101562 0.101562 L 139.898438 0.101562 L 139.898438 139.898438 L 0.101562 139.898438 Z M 0.101562 0.101562 " fill-opacity="1" fill-rule="nonzero"/></g></g></g></g></g></g><g clip-path="url(#4f957c3cc1)"><path fill="#7d7d7d" d="M 127.0625 43.34375 C 123.820312 40.335938 119.753906 38.871094 115.605469 39.21875 C 112.546875 39.472656 109.667969 40.695312 107.238281 42.726562 C 104.414062 40.578125 100.933594 39.082031 96.992188 38.445312 C 95.335938 38.175781 91.859375 38.054688 89.648438 38.519531 C 84.542969 39.597656 81.15625 43.296875 80.582031 48.410156 C 80.519531 48.96875 80.484375 49.773438 80.464844 50.507812 C 80.214844 50.515625 79.953125 50.523438 79.675781 50.53125 C 78.617188 50.5625 76.707031 50.613281 75.414062 50.644531 C 74.167969 50.671875 73.203125 50.695312 72.324219 50.808594 C 71.257812 48.648438 69.890625 46.765625 68.285156 45.277344 C 65.042969 42.269531 60.976562 40.800781 56.828125 41.148438 C 54.082031 41.378906 51.480469 42.386719 49.222656 44.0625 L 47.292969 43.117188 L 43.207031 43.15625 C 41.6875 43.171875 39.753906 43.265625 37.90625 43.417969 C 36.269531 43.554688 34.550781 43.632812 32.160156 43.683594 C 28.152344 43.769531 27.074219 43.792969 25.28125 44.464844 C 22.40625 45.542969 20.101562 47.792969 18.957031 50.640625 C 17.816406 53.476562 17.921875 56.691406 19.242188 59.453125 C 20.382812 61.835938 22.1875 63.609375 24.609375 64.722656 L 26.808594 65.738281 L 26.851562 65.738281 C 26.941406 67.785156 27.035156 69.929688 27.117188 71.660156 C 27.277344 75.0625 27.414062 75.667969 27.523438 76.152344 C 28.320312 79.722656 30.894531 82.738281 34.238281 84.027344 C 34.691406 84.203125 35.136719 84.335938 35.570312 84.4375 L 35.511719 91.070312 C 35.476562 95.253906 35.457031 99.734375 35.46875 101.058594 C 35.503906 104.140625 35.535156 107.324219 38.660156 110.5 C 40.214844 112.082031 41.996094 113.0625 44.257812 113.578125 C 45.273438 113.808594 46.242188 113.875 47.019531 113.875 C 47.304688 113.875 47.566406 113.867188 47.792969 113.855469 C 49.285156 113.769531 53.597656 113.5625 55.234375 113.496094 C 57.222656 113.417969 58.804688 113.351562 60.789062 112.371094 C 61.191406 112.554688 61.605469 112.726562 62.035156 112.867188 C 63.054688 113.207031 64.179688 113.375 65.3125 113.375 C 66.855469 113.375 68.421875 113.066406 69.789062 112.457031 C 70.875 111.976562 71.847656 111.34375 72.6875 110.589844 C 73.0625 110.875 73.464844 111.148438 73.886719 111.414062 C 76.40625 112.988281 78.914062 113.457031 81.039062 113.710938 C 81.582031 113.777344 82.121094 113.804688 82.652344 113.804688 C 85.6875 113.804688 88.445312 112.839844 90.335938 111.953125 C 91.90625 111.214844 94.652344 109.675781 96.765625 107.152344 C 98.007812 109.03125 99.804688 110.519531 101.902344 111.328125 C 103.421875 111.914062 104.894531 112.046875 105.859375 112.058594 L 105.875 112.058594 C 105.90625 112.058594 105.9375 112.058594 105.96875 112.058594 C 107.75 112.058594 109.199219 111.714844 110.800781 110.910156 C 113.332031 109.640625 115.3125 107.410156 116.230469 104.800781 C 116.835938 103.089844 116.847656 101.734375 116.800781 100.007812 C 116.761719 98.636719 116.652344 96.253906 116.441406 91.679688 C 117.378906 91.335938 118.328125 90.828125 119.28125 90.070312 C 122.273438 87.6875 123.816406 84.019531 123.410156 80.253906 C 123.394531 80.09375 123.371094 79.929688 123.347656 79.769531 C 125.476562 78.738281 127.40625 77.179688 128.976562 75.210938 C 131.007812 72.667969 132.460938 69.375 133.1875 65.683594 C 133.855469 62.273438 133.867188 58.6875 133.230469 55.316406 C 132.300781 50.425781 130.113281 46.175781 127.0625 43.34375 Z M 127.0625 43.34375 " fill-opacity="1" fill-rule="nonzero"/></g><g clip-path="url(#91b4fe4e44)"><path fill="#fafafa" d="M 124.828125 41.105469 C 121.585938 38.09375 117.515625 36.628906 113.367188 36.976562 C 110.308594 37.234375 107.433594 38.453125 105.003906 40.488281 C 102.179688 38.335938 98.699219 36.84375 94.757812 36.207031 C 93.097656 35.9375 89.625 35.8125 87.414062 36.28125 C 82.308594 37.359375 78.917969 41.058594 78.347656 46.171875 C 78.285156 46.730469 78.25 47.535156 78.230469 48.269531 C 77.976562 48.273438 77.714844 48.28125 77.441406 48.289062 C 76.382812 48.320312 74.46875 48.371094 73.175781 48.402344 C 71.933594 48.433594 70.96875 48.457031 70.089844 48.566406 C 69.019531 46.40625 67.65625 44.523438 66.050781 43.035156 C 62.808594 40.027344 58.738281 38.5625 54.589844 38.910156 C 51.847656 39.136719 49.246094 40.148438 46.984375 41.824219 L 45.058594 40.875 L 40.972656 40.917969 C 39.449219 40.933594 37.519531 41.027344 35.671875 41.179688 C 34.035156 41.3125 32.316406 41.394531 29.925781 41.445312 C 25.917969 41.527344 24.839844 41.550781 23.046875 42.222656 C 20.171875 43.300781 17.867188 45.550781 16.722656 48.398438 C 15.582031 51.238281 15.683594 54.449219 17.007812 57.214844 C 18.148438 59.59375 19.953125 61.367188 22.371094 62.484375 L 24.574219 63.5 L 24.617188 63.5 C 24.703125 65.542969 24.800781 67.6875 24.882812 69.421875 C 25.042969 72.824219 25.179688 73.429688 25.285156 73.914062 C 26.085938 77.480469 28.660156 80.5 32 81.785156 C 32.453125 81.960938 32.902344 82.09375 33.335938 82.199219 L 33.277344 88.832031 C 33.238281 93.015625 33.222656 97.496094 33.234375 98.816406 C 33.265625 101.898438 33.296875 105.082031 36.421875 108.261719 C 37.980469 109.84375 39.761719 110.820312 42.019531 111.335938 C 43.039062 111.570312 44.007812 111.636719 44.785156 111.636719 C 45.070312 111.636719 45.328125 111.628906 45.554688 111.613281 C 47.050781 111.527344 51.363281 111.320312 53 111.257812 C 54.984375 111.179688 56.566406 111.113281 58.554688 110.128906 C 58.957031 110.316406 59.371094 110.484375 59.800781 110.628906 C 60.820312 110.964844 61.941406 111.132812 63.078125 111.132812 C 64.621094 111.132812 66.1875 110.824219 67.554688 110.21875 C 68.640625 109.738281 69.609375 109.105469 70.453125 108.351562 C 70.828125 108.632812 71.226562 108.90625 71.652344 109.171875 C 74.171875 110.746094 76.679688 111.21875 78.800781 111.472656 C 79.347656 111.535156 79.886719 111.566406 80.417969 111.566406 C 83.453125 111.566406 86.210938 110.597656 88.101562 109.710938 C 89.667969 108.976562 92.417969 107.433594 94.53125 104.910156 C 95.773438 106.792969 97.566406 108.28125 99.664062 109.089844 C 101.1875 109.675781 102.660156 109.808594 103.625 109.816406 L 103.640625 109.816406 C 103.671875 109.816406 103.703125 109.816406 103.734375 109.816406 C 105.515625 109.816406 106.964844 109.472656 108.566406 108.671875 C 111.097656 107.402344 113.078125 105.171875 113.996094 102.5625 C 114.601562 100.851562 114.613281 99.496094 114.5625 97.765625 C 114.523438 96.394531 114.414062 94.015625 114.203125 89.441406 C 115.140625 89.097656 116.09375 88.589844 117.042969 87.832031 C 120.035156 85.449219 121.582031 81.78125 121.175781 78.015625 C 121.15625 77.851562 121.136719 77.691406 121.109375 77.53125 C 123.242188 76.496094 125.171875 74.9375 126.742188 72.972656 C 128.769531 70.429688 130.226562 67.132812 130.949219 63.441406 C 131.617188 60.035156 131.632812 56.449219 130.992188 53.074219 C 130.066406 48.1875 127.878906 43.933594 124.828125 41.105469 Z M 124.828125 41.105469 " fill-opacity="1" fill-rule="nonzero"/></g><path fill="#000000" d="M 91.617188 71.691406 C 92.113281 71.609375 92.644531 71.496094 93.183594 71.367188 C 93.339844 71.328125 93.5 71.285156 93.652344 71.246094 C 93.773438 71.210938 93.804688 71.195312 93.824219 71.1875 C 94.308594 71.058594 94.734375 70.921875 95.125 70.785156 C 95.765625 70.550781 96.390625 70.285156 97.003906 69.976562 C 97.3125 69.824219 97.613281 69.660156 97.910156 69.484375 C 98.207031 69.308594 98.496094 69.128906 98.78125 68.910156 C 99.335938 68.480469 99.828125 68 100.3125 67.5 C 100.550781 67.246094 100.785156 66.988281 101.007812 66.722656 C 101.234375 66.453125 101.453125 66.175781 101.652344 65.878906 C 102.035156 65.285156 102.386719 64.675781 102.699219 64.035156 C 103.003906 63.390625 103.285156 62.734375 103.519531 62.050781 C 103.75 61.367188 103.953125 60.671875 104.109375 59.953125 C 104.261719 59.238281 104.375 58.503906 104.441406 57.761719 C 104.460938 57.445312 104.488281 57.132812 104.484375 56.816406 C 104.484375 56.660156 104.492188 56.503906 104.488281 56.34375 C 104.484375 56.1875 104.476562 56.03125 104.472656 55.875 C 104.4375 55.25 104.375 54.632812 104.257812 54.035156 C 104.171875 53.59375 104.058594 53.125 103.910156 52.652344 C 103.753906 52.179688 103.570312 51.703125 103.355469 51.238281 C 103.132812 50.78125 102.882812 50.335938 102.617188 49.925781 C 102.347656 49.515625 102.0625 49.136719 101.777344 48.800781 C 101.792969 48.832031 101.765625 48.808594 101.699219 48.746094 C 101.632812 48.683594 101.535156 48.582031 101.414062 48.457031 C 101.289062 48.335938 101.140625 48.191406 100.976562 48.042969 C 100.808594 47.894531 100.636719 47.738281 100.453125 47.59375 C 100.335938 47.496094 100.214844 47.402344 100.101562 47.316406 C 98.320312 45.90625 96.054688 44.925781 93.414062 44.5 C 92.332031 44.320312 89.976562 44.324219 89.140625 44.5 C 87.554688 44.835938 86.851562 45.582031 86.679688 47.113281 C 86.660156 47.261719 86.644531 47.523438 86.632812 47.855469 C 86.621094 47.839844 86.609375 47.851562 86.578125 48.414062 C 86.589844 48.027344 86.601562 47.734375 86.617188 47.445312 C 86.628906 47.300781 86.636719 47.152344 86.660156 46.996094 C 86.679688 46.839844 86.710938 46.667969 86.757812 46.480469 C 86.757812 46.46875 86.75 46.496094 86.734375 46.554688 C 86.71875 46.609375 86.703125 46.695312 86.683594 46.800781 C 86.664062 46.90625 86.648438 47.03125 86.632812 47.160156 C 86.621094 47.292969 86.613281 47.433594 86.605469 47.566406 C 86.582031 48.109375 86.570312 48.59375 86.5625 48.324219 C 86.578125 47.949219 86.585938 47.554688 86.621094 47.15625 C 86.660156 46.753906 86.738281 46.347656 86.902344 45.988281 C 86.886719 46.015625 86.851562 46.078125 86.824219 46.167969 C 86.804688 46.210938 86.789062 46.261719 86.769531 46.3125 C 86.753906 46.371094 86.734375 46.429688 86.71875 46.496094 C 86.652344 46.753906 86.597656 47.078125 86.582031 47.394531 C 86.542969 48.019531 86.53125 48.589844 86.519531 48.53125 C 86.523438 48.320312 86.542969 47.777344 86.585938 47.265625 C 86.605469 47.007812 86.652344 46.761719 86.691406 46.566406 C 86.714844 46.472656 86.734375 46.390625 86.75 46.328125 C 86.769531 46.265625 86.78125 46.222656 86.785156 46.203125 C 86.785156 46.195312 86.769531 46.234375 86.746094 46.308594 C 86.726562 46.382812 86.691406 46.488281 86.667969 46.605469 C 86.640625 46.726562 86.613281 46.859375 86.601562 46.984375 C 86.589844 47.039062 86.585938 47.089844 86.582031 47.140625 C 86.632812 46.617188 86.753906 46.148438 86.9375 45.796875 C 87.144531 45.402344 87.398438 45.167969 87.539062 45.046875 C 87.609375 44.988281 87.648438 44.957031 87.664062 44.941406 C 87.671875 44.933594 87.644531 44.941406 87.582031 44.988281 C 87.550781 45.011719 87.507812 45.042969 87.457031 45.078125 C 87.410156 45.117188 87.355469 45.171875 87.289062 45.230469 C 87.199219 45.324219 87.089844 45.445312 86.984375 45.601562 C 87.058594 45.484375 87.148438 45.367188 87.25 45.257812 C 87.414062 45.085938 87.609375 44.933594 87.816406 44.808594 C 88.191406 44.597656 88.59375 44.46875 88.957031 44.378906 C 88.78125 44.421875 88.570312 44.476562 88.371094 44.550781 C 88.230469 44.601562 88.089844 44.660156 87.96875 44.722656 C 88.300781 44.550781 88.65625 44.445312 89.007812 44.363281 C 88.9375 44.375 88.855469 44.386719 88.769531 44.410156 C 88.636719 44.441406 88.503906 44.480469 88.375 44.527344 C 88.460938 44.496094 88.550781 44.464844 88.636719 44.441406 C 88.410156 44.496094 88.152344 44.578125 87.878906 44.71875 C 87.625 44.851562 87.386719 45.023438 87.191406 45.230469 C 86.992188 45.433594 86.84375 45.671875 86.738281 45.898438 C 86.519531 46.359375 86.457031 46.789062 86.417969 47.085938 C 86.386719 47.398438 86.378906 47.6875 86.363281 47.984375 C 86.351562 48.28125 86.34375 48.574219 86.339844 48.871094 C 86.324219 49.460938 86.320312 50.050781 86.328125 50.640625 C 86.339844 51.816406 86.363281 52.992188 86.386719 54.167969 C 86.4375 56.519531 86.496094 58.871094 86.578125 61.214844 C 86.589844 61.222656 86.59375 60.972656 86.613281 61.363281 C 86.621094 61.515625 86.625 61.664062 86.632812 61.8125 C 86.640625 61.957031 86.648438 62.105469 86.65625 62.25 C 86.664062 62.535156 86.667969 62.808594 86.671875 63.082031 C 86.679688 63.632812 86.691406 64.179688 86.714844 64.789062 C 86.71875 64.816406 86.726562 64.847656 86.734375 64.875 C 86.753906 65.816406 86.75 66.804688 86.789062 67.820312 C 86.8125 68.289062 86.851562 68.773438 86.957031 69.242188 C 87.007812 69.476562 87.0625 69.710938 87.148438 69.953125 C 87.238281 70.195312 87.375 70.429688 87.53125 70.625 C 87.609375 70.722656 87.691406 70.816406 87.769531 70.90625 C 87.855469 70.996094 87.945312 71.085938 88.039062 71.167969 C 88.230469 71.335938 88.445312 71.476562 88.679688 71.585938 C 88.914062 71.695312 89.15625 71.769531 89.40625 71.808594 C 89.65625 71.851562 89.902344 71.859375 90.140625 71.855469 C 90.089844 71.847656 90.066406 71.84375 90.257812 71.839844 C 90.652344 71.820312 91.117188 71.769531 91.617188 71.691406 Z M 88.207031 44.59375 L 88.183594 44.601562 C 88.191406 44.597656 88.199219 44.597656 88.207031 44.59375 Z M 87.980469 44.695312 C 87.976562 44.699219 87.976562 44.699219 87.972656 44.699219 C 87.976562 44.699219 87.976562 44.699219 87.980469 44.695312 Z M 86.9375 45.675781 C 86.945312 45.664062 86.953125 45.648438 86.960938 45.636719 C 86.953125 45.648438 86.945312 45.660156 86.9375 45.675781 Z M 96.382812 51.023438 C 97.425781 51.722656 98.160156 52.566406 98.617188 53.574219 C 99.003906 54.425781 99.125 54.9375 99.144531 55.996094 C 99.132812 55.988281 99.121094 56 99.113281 56.296875 C 99.109375 55.882812 99.109375 55.675781 99.070312 55.261719 C 99.0625 55.238281 99.09375 55.554688 99.101562 55.84375 C 99.113281 56.132812 99.109375 56.394531 99.09375 56.25 C 99.097656 55.851562 99.074219 55.402344 99.015625 54.996094 C 99.015625 55.070312 99.054688 55.421875 99.0625 55.753906 C 99.074219 56.085938 99.070312 56.394531 99.058594 56.363281 C 99.054688 56.25 99.0625 55.960938 99.054688 55.6875 C 99.046875 55.414062 99.023438 55.164062 99 55.125 C 98.996094 55.109375 99.039062 55.519531 99.042969 55.726562 C 99.027344 55.410156 98.992188 55.128906 98.949219 54.910156 C 98.90625 54.691406 98.855469 54.535156 98.824219 54.445312 C 98.792969 54.359375 98.777344 54.34375 98.792969 54.417969 C 98.808594 54.496094 98.851562 54.65625 98.894531 54.9375 C 98.859375 54.742188 98.808594 54.515625 98.734375 54.285156 C 98.660156 54.058594 98.5625 53.832031 98.476562 53.636719 C 98.476562 53.640625 98.476562 53.640625 98.476562 53.640625 C 98.5625 53.835938 98.695312 54.171875 98.75 54.355469 C 98.679688 54.128906 98.585938 53.910156 98.488281 53.691406 C 98.503906 53.726562 98.515625 53.765625 98.53125 53.808594 C 98.597656 53.976562 98.660156 54.140625 98.71875 54.316406 C 98.667969 54.167969 98.613281 54.019531 98.550781 53.875 C 98.585938 53.988281 98.628906 54.117188 98.667969 54.257812 C 98.839844 54.785156 98.855469 55.308594 98.871094 55.613281 C 98.886719 55.917969 98.886719 56.234375 98.882812 56.542969 C 98.878906 56.851562 98.863281 57.160156 98.835938 57.46875 C 98.78125 58.082031 98.675781 58.6875 98.511719 59.28125 C 98.351562 59.875 98.136719 60.453125 97.882812 61.015625 C 97.625 61.578125 97.339844 62.125 97 62.628906 C 97.007812 62.640625 97.089844 62.539062 96.980469 62.710938 C 96.894531 62.839844 96.804688 62.960938 96.714844 63.078125 C 96.617188 63.1875 96.53125 63.300781 96.429688 63.402344 C 96.332031 63.503906 96.238281 63.609375 96.128906 63.707031 C 96.074219 63.757812 96.023438 63.808594 95.96875 63.859375 C 95.910156 63.910156 95.855469 63.960938 95.796875 64.011719 C 95.789062 64.027344 95.78125 64.042969 95.773438 64.054688 C 95.394531 64.363281 94.960938 64.628906 94.488281 64.855469 C 94.058594 65.074219 93.613281 65.246094 93.148438 65.410156 L 92.800781 65.53125 L 92.632812 65.585938 L 92.550781 65.613281 L 92.496094 65.628906 C 92.488281 65.628906 92.476562 65.632812 92.476562 65.625 L 92.472656 65.621094 C 92.472656 65.617188 92.472656 65.625 92.472656 65.597656 L 92.460938 65.429688 C 92.457031 65.453125 92.449219 65.46875 92.441406 65.371094 C 92.417969 64.964844 92.40625 64.398438 92.390625 63.808594 C 92.390625 63.722656 92.386719 63.636719 92.382812 63.550781 C 92.378906 63.484375 92.371094 63.46875 92.367188 63.457031 C 92.359375 63.191406 92.355469 62.953125 92.351562 62.734375 C 92.226562 59.84375 92.101562 56.910156 91.964844 53.730469 C 91.929688 53.058594 91.890625 52.386719 91.863281 51.738281 C 91.855469 51.40625 91.84375 51.046875 91.832031 50.675781 C 91.820312 50.335938 91.8125 49.992188 91.804688 49.660156 C 91.992188 49.679688 92.367188 49.707031 92.636719 49.746094 C 92.605469 49.722656 92.71875 49.722656 92.902344 49.742188 C 93.089844 49.761719 93.34375 49.800781 93.585938 49.851562 C 93.65625 49.863281 93.722656 49.878906 93.789062 49.894531 C 94.742188 50.15625 95.707031 50.570312 96.382812 51.023438 Z M 96.382812 51.023438 " fill-opacity="1" fill-rule="nonzero"/><path fill="#000000" d="M 89.101562 44.347656 C 89.0625 44.355469 89.015625 44.367188 88.964844 44.378906 C 89.015625 44.367188 89.0625 44.355469 89.109375 44.34375 C 89.109375 44.347656 89.105469 44.347656 89.101562 44.347656 Z M 89.101562 44.347656 " fill-opacity="1" fill-rule="nonzero"/><path fill="#000000" d="M 63.996094 102.894531 C 64.050781 102.882812 64.109375 102.859375 64.167969 102.839844 C 64.222656 102.820312 64.285156 102.796875 64.332031 102.769531 C 64.542969 102.675781 64.742188 102.550781 64.929688 102.40625 C 65.117188 102.261719 65.28125 102.089844 65.425781 101.902344 C 65.566406 101.707031 65.679688 101.5 65.769531 101.28125 C 65.765625 101.273438 65.738281 101.316406 65.730469 101.324219 C 65.722656 101.332031 65.734375 101.308594 65.78125 101.160156 C 65.9375 100.699219 65.972656 100.269531 65.964844 99.847656 C 65.964844 99.636719 65.941406 99.421875 65.921875 99.226562 C 65.902344 99.023438 65.882812 98.820312 65.863281 98.601562 C 65.855469 98.582031 65.847656 98.5625 65.839844 98.539062 C 65.796875 97.867188 65.785156 97.15625 65.773438 96.433594 C 65.738281 95.09375 65.703125 93.765625 65.671875 92.4375 C 65.664062 92.472656 65.660156 92.488281 65.652344 92.359375 C 65.636719 91.804688 65.625 91.042969 65.609375 90.25 C 65.605469 90.132812 65.601562 90.015625 65.597656 89.902344 C 65.589844 89.8125 65.582031 89.789062 65.578125 89.773438 C 65.570312 89.417969 65.566406 89.097656 65.558594 88.804688 C 65.53125 87.835938 65.515625 86.863281 65.507812 85.882812 C 65.503906 84.898438 65.503906 83.910156 65.53125 82.910156 C 65.535156 82.660156 65.542969 82.410156 65.558594 82.160156 C 65.5625 82.035156 65.574219 81.917969 65.585938 81.789062 C 65.597656 81.660156 65.601562 81.527344 65.605469 81.398438 C 65.613281 80.875 65.550781 80.324219 65.300781 79.828125 C 64.804688 78.832031 63.648438 78.238281 62.53125 78.394531 C 62.296875 78.433594 62.070312 78.496094 61.851562 78.589844 C 61.640625 78.6875 61.433594 78.800781 61.253906 78.953125 L 61.183594 79.003906 L 61.121094 79.0625 L 60.996094 79.183594 C 60.914062 79.265625 60.839844 79.351562 60.765625 79.4375 C 60.621094 79.617188 60.507812 79.820312 60.425781 80.03125 C 60.3125 80.347656 60.25 80.695312 60.203125 81.046875 C 60.15625 81.40625 60.125 81.769531 60.097656 82.136719 C 60.046875 82.867188 60.007812 83.59375 60 84.222656 C 60.03125 84.128906 60.042969 84.847656 60.066406 85.515625 C 60.070312 85.617188 60.074219 85.722656 60.078125 85.820312 C 60.082031 87.058594 60.113281 88.492188 60.171875 89.996094 C 60.191406 90.574219 60.230469 92.484375 60.257812 94.238281 C 60.277344 95.59375 60.304688 96.699219 60.339844 97.601562 C 60.328125 97.589844 60.316406 97.605469 60.324219 98.007812 C 60.296875 97.449219 60.289062 97.167969 60.273438 96.609375 C 60.265625 96.574219 60.277344 97.007812 60.292969 97.398438 C 60.308594 97.789062 60.324219 98.136719 60.300781 97.945312 C 60.285156 97.40625 60.253906 96.800781 60.238281 96.242188 C 60.230469 96.339844 60.242188 96.824219 60.253906 97.273438 C 60.265625 97.722656 60.285156 98.136719 60.273438 98.097656 C 60.246094 97.792969 60.246094 96.523438 60.214844 96.414062 C 60.207031 96.394531 60.222656 96.953125 60.230469 97.234375 C 60.195312 96.371094 60.175781 95.707031 60.15625 95.449219 C 60.140625 95.195312 60.125 95.347656 60.128906 96.136719 C 60.121094 95.589844 60.109375 94.816406 60.101562 94.242188 C 60.101562 94.242188 60.101562 94.242188 60.101562 94.246094 C 60.101562 94.535156 60.109375 95.03125 60.109375 95.296875 C 60.105469 94.96875 60.101562 94.640625 60.09375 94.3125 C 60.089844 94.367188 60.089844 94.421875 60.085938 94.484375 C 60.085938 94.730469 60.085938 94.976562 60.089844 95.230469 C 60.085938 95.015625 60.082031 94.796875 60.082031 94.578125 C 60.074219 94.742188 60.066406 94.929688 60.0625 95.136719 C 60.054688 95.910156 60.046875 96.65625 60.0625 97.078125 C 60.085938 97.925781 60.117188 98.777344 60.199219 99.632812 C 60.242188 100.0625 60.292969 100.492188 60.402344 100.929688 C 60.457031 101.148438 60.542969 101.378906 60.660156 101.589844 C 60.777344 101.796875 60.921875 101.984375 61.085938 102.152344 C 61.417969 102.484375 61.824219 102.734375 62.257812 102.886719 L 62.339844 102.917969 L 62.429688 102.945312 C 62.492188 102.960938 62.554688 102.976562 62.613281 102.984375 C 62.734375 103.003906 62.851562 103.011719 62.964844 103.015625 C 63.199219 103.023438 63.425781 103.007812 63.652344 102.972656 C 63.765625 102.953125 63.878906 102.929688 63.996094 102.894531 Z M 63.996094 102.894531 " fill-opacity="1" fill-rule="nonzero"/><path fill="#000000" d="M 38.457031 66.894531 C 38.425781 67.070312 38.332031 65.566406 38.253906 64.445312 C 38.210938 63.585938 38.167969 62.628906 38.117188 61.558594 C 38.050781 60.128906 37.972656 57.988281 37.941406 56.804688 L 37.882812 54.65625 L 38.503906 54.601562 C 38.847656 54.574219 40.011719 54.527344 41.09375 54.5 C 43.25 54.441406 43.632812 54.375 44.164062 53.953125 C 44.742188 53.492188 45.070312 52.878906 45.164062 52.25 C 45.164062 52.253906 45.164062 52.253906 45.164062 52.253906 C 45.167969 52.261719 45.175781 52.253906 45.1875 52.171875 C 45.195312 52.128906 45.203125 52.070312 45.210938 51.980469 C 45.222656 51.894531 45.210938 51.777344 45.210938 51.625 C 45.253906 52.0625 45.183594 52.394531 45.085938 52.703125 L 45.042969 52.820312 C 45.03125 52.859375 45.019531 52.898438 44.996094 52.933594 C 44.960938 53.011719 44.921875 53.085938 44.882812 53.167969 C 44.785156 53.316406 44.6875 53.480469 44.535156 53.640625 C 44.527344 53.652344 44.550781 53.628906 44.59375 53.578125 C 44.617188 53.554688 44.644531 53.523438 44.675781 53.488281 C 44.707031 53.453125 44.734375 53.402344 44.769531 53.355469 C 44.800781 53.304688 44.835938 53.25 44.875 53.195312 C 44.90625 53.132812 44.9375 53.066406 44.972656 53 C 44.988281 52.96875 45.003906 52.933594 45.019531 52.898438 C 45.035156 52.867188 45.046875 52.828125 45.058594 52.792969 C 45.085938 52.71875 45.109375 52.644531 45.132812 52.574219 C 45.152344 52.5 45.164062 52.425781 45.179688 52.351562 C 45.1875 52.316406 45.199219 52.28125 45.203125 52.246094 C 45.203125 52.210938 45.207031 52.179688 45.210938 52.144531 C 45.214844 52.078125 45.222656 52.015625 45.226562 51.960938 C 45.230469 51.902344 45.222656 51.851562 45.222656 51.808594 C 45.21875 51.632812 45.21875 51.570312 45.234375 51.722656 C 45.257812 52.148438 45.175781 52.601562 44.980469 53.011719 C 44.789062 53.425781 44.480469 53.777344 44.132812 54.046875 C 44.148438 54.035156 44.171875 54.019531 44.203125 54 C 44.230469 53.976562 44.265625 53.945312 44.304688 53.914062 C 44.382812 53.84375 44.488281 53.761719 44.582031 53.644531 C 44.789062 53.429688 44.984375 53.105469 45.105469 52.769531 C 45.171875 52.601562 45.203125 52.429688 45.234375 52.273438 C 45.242188 52.191406 45.25 52.113281 45.257812 52.042969 C 45.261719 52.007812 45.261719 51.972656 45.265625 51.9375 C 45.265625 51.90625 45.265625 51.871094 45.261719 51.839844 C 45.265625 51.59375 45.230469 51.449219 45.242188 51.480469 C 45.253906 51.542969 45.269531 51.625 45.269531 51.726562 C 45.273438 51.828125 45.285156 51.949219 45.265625 52.078125 C 45.257812 52.144531 45.253906 52.210938 45.246094 52.28125 C 45.230469 52.347656 45.214844 52.417969 45.199219 52.488281 C 45.191406 52.523438 45.183594 52.5625 45.171875 52.597656 L 45.136719 52.699219 C 45.113281 52.769531 45.085938 52.839844 45.0625 52.910156 C 44.824219 53.453125 44.417969 53.835938 44.359375 53.894531 C 44.351562 53.902344 44.390625 53.871094 44.453125 53.8125 C 44.488281 53.785156 44.523438 53.746094 44.5625 53.703125 C 44.597656 53.660156 44.640625 53.609375 44.6875 53.558594 C 44.734375 53.507812 44.773438 53.445312 44.8125 53.382812 C 44.84375 53.339844 44.875 53.292969 44.902344 53.25 C 44.816406 53.402344 44.714844 53.542969 44.605469 53.664062 C 44.511719 53.785156 44.398438 53.875 44.300781 53.96875 C 44.199219 54.0625 44.09375 54.136719 43.988281 54.207031 C 43.777344 54.34375 43.558594 54.40625 43.386719 54.449219 C 43.210938 54.492188 43.070312 54.507812 42.972656 54.523438 C 42.773438 54.554688 42.734375 54.5625 42.898438 54.554688 C 42.980469 54.546875 43.113281 54.539062 43.308594 54.507812 C 43.402344 54.488281 43.515625 54.46875 43.640625 54.425781 C 43.730469 54.398438 43.828125 54.359375 43.925781 54.308594 C 43.863281 54.34375 43.796875 54.375 43.726562 54.402344 C 43.605469 54.449219 43.484375 54.484375 43.355469 54.507812 C 43.105469 54.558594 42.84375 54.578125 42.585938 54.597656 C 42.066406 54.632812 41.546875 54.640625 41.097656 54.65625 C 41.101562 54.65625 41.105469 54.65625 41.105469 54.65625 C 41.449219 54.648438 41.984375 54.636719 42.402344 54.613281 C 42.003906 54.636719 41.605469 54.648438 41.210938 54.660156 C 41.292969 54.660156 41.382812 54.664062 41.476562 54.664062 C 41.738281 54.660156 41.996094 54.652344 42.265625 54.640625 C 42.050781 54.652344 41.835938 54.660156 41.621094 54.667969 C 41.875 54.667969 42.164062 54.667969 42.484375 54.65625 C 42.789062 54.640625 43.089844 54.621094 43.394531 54.5625 C 43.542969 54.53125 43.695312 54.496094 43.839844 54.429688 C 43.984375 54.367188 44.117188 54.289062 44.230469 54.207031 C 44.453125 54.035156 44.648438 53.859375 44.800781 53.675781 C 44.820312 53.652344 44.839844 53.628906 44.859375 53.609375 C 44.875 53.585938 44.890625 53.5625 44.90625 53.539062 C 44.9375 53.492188 44.96875 53.445312 45 53.402344 C 45.027344 53.359375 45.058594 53.320312 45.082031 53.277344 C 45.101562 53.230469 45.121094 53.191406 45.144531 53.152344 C 45.539062 52.382812 45.558594 51.421875 45.164062 50.644531 C 44.96875 50.253906 44.683594 49.914062 44.34375 49.652344 C 44.175781 49.515625 43.980469 49.414062 43.800781 49.3125 L 43.214844 49.023438 L 41.773438 49.035156 C 41.316406 49.039062 40.859375 49.039062 40.398438 49.050781 C 39.476562 49.070312 38.558594 49.117188 37.640625 49.175781 C 37.179688 49.203125 36.722656 49.238281 36.265625 49.273438 C 35.808594 49.308594 35.355469 49.34375 34.898438 49.371094 C 33.988281 49.425781 33.078125 49.46875 32.167969 49.5 C 32.160156 49.511719 32.4375 49.511719 32.003906 49.53125 C 30.648438 49.589844 29.554688 49.5625 28.1875 49.609375 C 28.15625 49.617188 28.125 49.625 28.089844 49.632812 C 27.828125 49.640625 27.558594 49.644531 27.289062 49.652344 C 27.015625 49.664062 26.746094 49.671875 26.457031 49.703125 C 26.3125 49.722656 26.15625 49.746094 26.003906 49.796875 C 25.929688 49.816406 25.859375 49.847656 25.789062 49.875 C 25.71875 49.90625 25.648438 49.933594 25.578125 49.96875 C 25.304688 50.109375 25.054688 50.296875 24.832031 50.515625 C 24.109375 51.25 23.847656 52.394531 24.183594 53.367188 C 24.222656 53.484375 24.277344 53.601562 24.324219 53.71875 C 24.378906 53.828125 24.4375 53.9375 24.503906 54.046875 C 24.636719 54.261719 24.804688 54.464844 25.003906 54.632812 C 25.199219 54.800781 25.417969 54.933594 25.636719 55.042969 C 25.746094 55.097656 25.851562 55.140625 25.953125 55.191406 L 26.320312 55.359375 C 26.5625 55.355469 26.800781 55.351562 27.035156 55.351562 C 26.984375 55.34375 26.957031 55.339844 27.160156 55.335938 C 28.011719 55.324219 29.191406 55.320312 30.414062 55.3125 C 30.59375 55.3125 30.773438 55.308594 30.949219 55.304688 C 31.089844 55.300781 31.125 55.292969 31.148438 55.289062 C 31.625 55.289062 32.046875 55.285156 32.441406 55.285156 L 32.449219 55.285156 L 32.453125 55.328125 L 32.460938 55.605469 L 32.484375 56.167969 C 32.496094 56.542969 32.511719 56.917969 32.53125 57.296875 C 32.566406 58.046875 32.605469 58.800781 32.640625 59.558594 C 32.714844 61.074219 32.789062 62.601562 32.863281 64.144531 C 32.941406 65.691406 33.015625 67.253906 33.09375 68.84375 C 33.132812 69.640625 33.183594 70.441406 33.246094 71.25 C 33.261719 71.453125 33.28125 71.65625 33.300781 71.859375 L 33.320312 72.015625 C 33.324219 72.042969 33.328125 72.074219 33.335938 72.101562 L 33.355469 72.179688 C 33.382812 72.285156 33.414062 72.386719 33.453125 72.488281 C 33.605469 72.886719 33.847656 73.253906 34.164062 73.546875 C 34.433594 73.796875 34.75 73.992188 35.105469 74.097656 C 35.457031 74.199219 35.816406 74.226562 36.167969 74.214844 C 36.34375 74.210938 36.527344 74.199219 36.707031 74.144531 C 36.882812 74.09375 37.042969 74.015625 37.195312 73.9375 C 37.511719 73.773438 37.785156 73.546875 38.015625 73.289062 C 38.183594 73.097656 38.339844 72.875 38.449219 72.625 C 38.503906 72.496094 38.550781 72.367188 38.574219 72.222656 C 38.601562 72.082031 38.605469 71.945312 38.609375 71.804688 C 38.621094 71.25 38.601562 70.683594 38.582031 70.117188 C 38.542969 68.988281 38.496094 67.867188 38.457031 66.894531 Z M 44.988281 53.09375 C 44.996094 53.078125 45 53.0625 45.007812 53.050781 C 45 53.066406 44.996094 53.078125 44.988281 53.09375 Z M 44.988281 53.09375 " fill-opacity="1" fill-rule="nonzero"/><path fill="#000000" d="M 43.292969 103.199219 C 43.417969 103.246094 43.546875 103.285156 43.671875 103.320312 C 43.734375 103.335938 43.796875 103.351562 43.855469 103.371094 C 43.921875 103.386719 43.988281 103.398438 44.050781 103.410156 C 44.304688 103.453125 44.546875 103.472656 44.777344 103.480469 C 44.890625 103.480469 45.003906 103.480469 45.109375 103.476562 C 45.210938 103.472656 45.308594 103.472656 45.402344 103.46875 C 45.585938 103.460938 45.75 103.453125 45.886719 103.449219 C 48.101562 103.347656 50.320312 103.25 52.539062 103.148438 L 53.371094 103.113281 C 53.652344 103.101562 53.929688 103.089844 54.222656 103.058594 C 54.367188 103.042969 54.523438 103.019531 54.683594 102.96875 C 54.761719 102.945312 54.84375 102.914062 54.914062 102.878906 C 54.980469 102.847656 55.046875 102.8125 55.113281 102.773438 C 55.378906 102.628906 55.628906 102.445312 55.839844 102.21875 C 56.054688 101.996094 56.230469 101.730469 56.355469 101.449219 C 56.480469 101.164062 56.550781 100.859375 56.582031 100.554688 C 56.609375 100.253906 56.601562 99.949219 56.542969 99.644531 C 56.515625 99.492188 56.472656 99.34375 56.421875 99.195312 C 56.363281 99.050781 56.296875 98.910156 56.21875 98.777344 C 56.210938 98.773438 56.238281 98.832031 56.238281 98.847656 C 56.242188 98.863281 56.226562 98.828125 56.109375 98.660156 C 55.929688 98.394531 55.707031 98.179688 55.488281 98.003906 C 55.378906 97.910156 55.257812 97.824219 55.128906 97.746094 C 54.996094 97.671875 54.855469 97.617188 54.714844 97.570312 C 54.429688 97.488281 54.152344 97.457031 53.875 97.4375 C 53.597656 97.421875 53.320312 97.417969 53.027344 97.421875 C 53 97.425781 52.972656 97.433594 52.945312 97.4375 C 52.492188 97.433594 52.035156 97.453125 51.570312 97.460938 C 51.105469 97.46875 50.632812 97.480469 50.15625 97.492188 C 49.71875 97.503906 49.277344 97.519531 48.839844 97.535156 C 48.40625 97.558594 47.96875 97.578125 47.535156 97.59375 L 47.210938 97.605469 L 47.058594 97.609375 L 47.050781 97.609375 C 47.042969 97.613281 47.042969 97.605469 47.042969 97.597656 L 47.042969 97.351562 C 47.046875 96.917969 47.046875 96.480469 47.050781 96.046875 C 47.042969 96.09375 47.035156 96.113281 47.035156 95.941406 C 47.039062 95.21875 47.054688 94.214844 47.070312 93.179688 C 47.070312 93.023438 47.074219 92.871094 47.074219 92.71875 C 47.070312 92.601562 47.0625 92.570312 47.058594 92.550781 C 47.0625 92.082031 47.066406 91.664062 47.070312 91.277344 C 47.070312 90.003906 47.066406 88.722656 47.0625 87.433594 C 47.058594 86.140625 47.066406 84.839844 47.039062 83.523438 C 47.035156 83.195312 47.027344 82.863281 47.023438 82.53125 C 47.011719 82.199219 47.003906 81.867188 46.976562 81.523438 C 46.960938 81.355469 46.941406 81.171875 46.875 80.988281 C 46.839844 80.898438 46.804688 80.824219 46.765625 80.746094 L 46.703125 80.625 L 46.632812 80.511719 C 46.449219 80.207031 46.199219 79.941406 45.910156 79.730469 C 45.324219 79.308594 44.5625 79.144531 43.851562 79.277344 C 43.136719 79.402344 42.472656 79.828125 42.070312 80.445312 C 42.019531 80.511719 41.980469 80.589844 41.9375 80.664062 C 41.898438 80.738281 41.859375 80.816406 41.824219 80.890625 C 41.753906 81.046875 41.683594 81.203125 41.613281 81.359375 C 41.617188 82.226562 41.617188 83.085938 41.621094 83.921875 C 41.605469 85.613281 41.582031 87.777344 41.566406 89.425781 C 41.601562 89.296875 41.621094 90.320312 41.644531 91.222656 C 41.621094 94.578125 41.609375 97.699219 41.617188 98.734375 C 41.644531 101.394531 41.703125 101.660156 42.394531 102.363281 C 42.828125 102.804688 43.167969 102.984375 43.886719 103.148438 C 44.210938 103.222656 44.664062 103.25 45.078125 103.226562 C 45.445312 103.207031 45.96875 103.179688 46.578125 103.148438 C 46.570312 103.164062 46.46875 103.183594 47.101562 103.167969 C 46.371094 103.199219 46.003906 103.21875 45.269531 103.253906 C 45.1875 103.273438 47.523438 103.132812 47.015625 103.1875 C 46.664062 103.203125 46.292969 103.222656 45.914062 103.242188 C 45.539062 103.257812 45.164062 103.289062 44.789062 103.292969 C 44.921875 103.308594 45.554688 103.273438 46.144531 103.25 C 46.730469 103.226562 47.273438 103.199219 47.21875 103.214844 C 46.820312 103.242188 45.160156 103.28125 45.019531 103.320312 C 44.992188 103.324219 45.722656 103.292969 46.089844 103.273438 C 45.808594 103.289062 45.542969 103.304688 45.296875 103.316406 C 45.054688 103.332031 44.820312 103.347656 44.617188 103.339844 C 44.414062 103.335938 44.234375 103.320312 44.082031 103.300781 C 43.929688 103.28125 43.8125 103.25 43.730469 103.234375 C 43.5625 103.199219 43.527344 103.195312 43.664062 103.238281 C 43.792969 103.28125 44.113281 103.378906 44.644531 103.402344 C 44.457031 103.394531 44.253906 103.378906 44.042969 103.34375 C 43.820312 103.304688 43.613281 103.25 43.394531 103.179688 C 43.179688 103.109375 42.960938 103.011719 42.769531 102.886719 C 42.578125 102.757812 42.421875 102.613281 42.28125 102.472656 C 42.28125 102.476562 42.285156 102.476562 42.285156 102.480469 C 42.421875 102.617188 42.621094 102.804688 42.859375 102.945312 C 42.945312 103 43.035156 103.046875 43.125 103.082031 C 43.042969 103.050781 42.964844 103.011719 42.886719 102.96875 C 42.6875 102.851562 42.507812 102.703125 42.347656 102.546875 C 42.394531 102.601562 42.453125 102.65625 42.515625 102.71875 C 42.628906 102.816406 42.753906 102.90625 42.890625 102.984375 C 42.792969 102.929688 42.699219 102.871094 42.609375 102.804688 C 42.785156 102.953125 43.023438 103.097656 43.292969 103.199219 Z M 43.257812 103.136719 C 43.214844 103.121094 43.167969 103.101562 43.125 103.082031 C 43.171875 103.105469 43.214844 103.121094 43.257812 103.136719 Z M 43.371094 103.179688 C 43.359375 103.171875 43.34375 103.167969 43.328125 103.164062 C 43.34375 103.167969 43.359375 103.175781 43.371094 103.179688 Z M 43.035156 103.0625 C 43.011719 103.050781 42.992188 103.039062 42.96875 103.03125 C 42.992188 103.039062 43.011719 103.050781 43.035156 103.0625 Z M 43.253906 103.15625 C 43.234375 103.148438 43.214844 103.140625 43.191406 103.132812 C 43.214844 103.140625 43.234375 103.148438 43.253906 103.15625 Z M 43.253906 103.15625 " fill-opacity="1" fill-rule="nonzero"/><path fill="#000000" d="M 80.3125 75.855469 C 79.902344 75.945312 79.511719 76.066406 79.121094 76.199219 C 78.730469 76.335938 78.34375 76.488281 77.972656 76.667969 C 77.597656 76.84375 77.234375 77.046875 76.882812 77.269531 C 76.878906 77.277344 76.953125 77.234375 76.972656 77.230469 C 76.992188 77.222656 76.949219 77.25 76.722656 77.40625 C 76.007812 77.894531 75.417969 78.421875 74.917969 79.03125 C 74.667969 79.332031 74.441406 79.65625 74.238281 80.003906 C 74.035156 80.351562 73.84375 80.71875 73.6875 81.128906 C 73.679688 81.167969 73.667969 81.210938 73.660156 81.253906 C 73.417969 81.882812 73.257812 82.5625 73.207031 83.265625 C 73.179688 83.617188 73.1875 83.972656 73.222656 84.328125 C 73.253906 84.6875 73.320312 85.042969 73.414062 85.390625 C 73.773438 86.683594 74.550781 87.828125 75.535156 88.695312 C 75.78125 88.910156 76.039062 89.117188 76.308594 89.300781 C 76.441406 89.394531 76.574219 89.484375 76.710938 89.570312 C 76.84375 89.660156 76.984375 89.746094 77.125 89.828125 C 77.691406 90.160156 78.277344 90.414062 78.855469 90.671875 C 78.796875 90.636719 78.773438 90.621094 79.003906 90.71875 C 79.488281 90.929688 80.0625 91.171875 80.679688 91.457031 C 81.292969 91.742188 81.949219 92.066406 82.5625 92.46875 C 82.738281 92.585938 82.914062 92.710938 83.074219 92.84375 C 83.203125 92.941406 83.234375 92.96875 83.257812 92.984375 C 83.496094 93.203125 83.6875 93.433594 83.839844 93.675781 C 83.875 93.738281 83.914062 93.796875 83.945312 93.859375 C 83.980469 93.921875 84.015625 93.980469 84.039062 94.046875 C 84.066406 94.105469 84.09375 94.167969 84.121094 94.230469 C 84.144531 94.289062 84.160156 94.351562 84.183594 94.414062 C 84.222656 94.511719 84.230469 94.613281 84.257812 94.714844 C 84.269531 94.765625 84.265625 94.816406 84.273438 94.867188 C 84.273438 94.917969 84.285156 94.96875 84.277344 95.019531 L 84.269531 95.167969 C 84.265625 95.21875 84.25 95.269531 84.242188 95.316406 C 84.230469 95.417969 84.1875 95.511719 84.15625 95.605469 C 83.996094 95.980469 83.691406 96.300781 83.34375 96.5625 C 82.992188 96.828125 82.59375 97.042969 82.179688 97.226562 C 81.972656 97.320312 81.757812 97.410156 81.546875 97.488281 C 81.332031 97.566406 81.117188 97.632812 80.90625 97.675781 C 80.691406 97.722656 80.480469 97.734375 80.261719 97.726562 C 80.042969 97.710938 79.820312 97.675781 79.59375 97.632812 C 79.367188 97.585938 79.160156 97.535156 78.96875 97.445312 C 78.871094 97.398438 78.777344 97.34375 78.683594 97.285156 L 78.386719 97.089844 C 78.183594 96.957031 77.96875 96.832031 77.734375 96.734375 C 77.503906 96.632812 77.25 96.566406 76.996094 96.539062 C 76.488281 96.488281 75.960938 96.574219 75.503906 96.804688 C 75.042969 97.03125 74.648438 97.390625 74.378906 97.828125 C 74.109375 98.265625 73.960938 98.777344 73.960938 99.296875 C 73.960938 99.816406 74.117188 100.332031 74.402344 100.765625 C 74.691406 101.199219 75.082031 101.535156 75.488281 101.832031 C 75.894531 102.121094 76.328125 102.386719 76.796875 102.585938 C 77.265625 102.785156 77.753906 102.921875 78.25 103.027344 C 78.746094 103.128906 79.246094 103.199219 79.75 103.257812 C 79.875 103.269531 80.007812 103.277344 80.136719 103.285156 C 80.199219 103.289062 80.265625 103.292969 80.328125 103.292969 L 80.523438 103.285156 C 80.652344 103.28125 80.78125 103.277344 80.910156 103.269531 L 81.296875 103.222656 C 82.160156 103.101562 83 102.851562 83.796875 102.53125 C 84.597656 102.210938 85.355469 101.816406 86.054688 101.363281 C 86.320312 101.203125 86.574219 101.007812 86.84375 100.816406 C 87.097656 100.609375 87.363281 100.402344 87.605469 100.160156 C 88.101562 99.691406 88.546875 99.125 88.886719 98.511719 C 89.230469 97.898438 89.492188 97.238281 89.644531 96.574219 C 89.800781 95.914062 89.84375 95.253906 89.816406 94.648438 C 89.808594 94.695312 89.804688 94.640625 89.785156 94.519531 C 89.769531 94.398438 89.75 94.203125 89.707031 93.964844 C 89.632812 93.488281 89.472656 92.839844 89.230469 92.253906 C 89.15625 92.074219 89.078125 91.902344 88.996094 91.742188 C 88.570312 90.832031 87.960938 89.976562 87.175781 89.199219 C 86.035156 88.070312 84.421875 87.105469 81.761719 85.964844 C 80.097656 85.253906 79.503906 84.929688 79.085938 84.503906 C 78.628906 84.035156 78.5625 83.660156 78.828125 83.042969 C 79.03125 82.5625 79.625 81.957031 80.136719 81.699219 C 80.730469 81.398438 81.605469 81.15625 82.125 81.144531 C 82.886719 81.128906 83.367188 81.339844 83.679688 81.832031 C 84.042969 82.394531 84.417969 82.730469 84.972656 82.984375 C 85.210938 83.09375 85.464844 83.15625 85.726562 83.183594 C 85.726562 83.183594 85.722656 83.183594 85.722656 83.183594 C 85.714844 83.1875 85.722656 83.199219 85.824219 83.207031 C 85.875 83.210938 85.953125 83.222656 86.0625 83.21875 C 86.117188 83.214844 86.179688 83.21875 86.25 83.207031 C 86.285156 83.203125 86.316406 83.199219 86.351562 83.195312 C 85.890625 83.265625 85.515625 83.210938 85.167969 83.097656 C 84.976562 83.027344 84.792969 82.945312 84.605469 82.828125 C 84.417969 82.714844 84.230469 82.566406 84.046875 82.367188 C 84.023438 82.347656 84.144531 82.5 84.378906 82.679688 C 84.613281 82.859375 84.964844 83.054688 85.332031 83.152344 C 85.695312 83.25 86.0625 83.238281 86.273438 83.214844 C 86.382812 83.203125 86.453125 83.191406 86.476562 83.1875 C 86.5 83.183594 86.472656 83.195312 86.378906 83.214844 C 85.863281 83.296875 85.285156 83.222656 84.792969 82.957031 C 84.542969 82.828125 84.3125 82.664062 84.113281 82.46875 C 83.914062 82.273438 83.75 82.046875 83.605469 81.824219 C 83.652344 81.898438 83.792969 82.148438 84.042969 82.417969 C 84.292969 82.691406 84.679688 82.957031 85.089844 83.113281 C 85.503906 83.269531 85.9375 83.289062 86.238281 83.257812 C 86.539062 83.226562 86.714844 83.167969 86.675781 83.1875 C 86.53125 83.226562 86.269531 83.289062 85.945312 83.28125 C 85.625 83.277344 85.25 83.207031 84.921875 83.050781 C 84.59375 82.898438 84.308594 82.691406 84.113281 82.5 C 83.917969 82.308594 83.804688 82.148438 83.765625 82.113281 C 83.753906 82.09375 83.898438 82.316406 84.144531 82.550781 C 84.328125 82.730469 84.574219 82.890625 84.792969 83.003906 C 84.492188 82.851562 84.230469 82.65625 84.023438 82.441406 C 83.894531 82.304688 83.785156 82.167969 83.6875 82.03125 C 83.589844 81.886719 83.515625 81.769531 83.421875 81.671875 C 83.234375 81.476562 83.011719 81.378906 82.816406 81.332031 C 82.625 81.28125 82.460938 81.273438 82.34375 81.269531 C 82.109375 81.269531 82.0625 81.28125 82.253906 81.289062 C 82.351562 81.296875 82.507812 81.300781 82.714844 81.347656 C 82.898438 81.394531 83.132812 81.472656 83.335938 81.671875 C 83.191406 81.53125 82.996094 81.425781 82.761719 81.367188 C 82.628906 81.335938 82.484375 81.316406 82.339844 81.3125 C 82.265625 81.304688 82.1875 81.308594 82.113281 81.308594 C 82.042969 81.308594 81.96875 81.316406 81.894531 81.324219 C 81.59375 81.359375 81.289062 81.433594 81 81.523438 C 80.757812 81.601562 80.527344 81.6875 80.320312 81.785156 C 80.546875 81.683594 80.839844 81.574219 81.136719 81.488281 C 81.480469 81.390625 81.832031 81.324219 82.066406 81.3125 C 81.773438 81.332031 81.476562 81.398438 81.183594 81.476562 C 80.890625 81.5625 80.601562 81.664062 80.328125 81.789062 C 80.417969 81.753906 80.515625 81.714844 80.625 81.675781 C 80.835938 81.597656 81.054688 81.527344 81.273438 81.472656 C 81.402344 81.4375 81.527344 81.410156 81.65625 81.386719 C 81.367188 81.4375 81.070312 81.523438 80.789062 81.621094 C 81.074219 81.53125 81.414062 81.441406 81.78125 81.390625 C 81.867188 81.378906 81.953125 81.371094 82.039062 81.363281 C 82.117188 81.363281 82.207031 81.363281 82.289062 81.367188 C 82.460938 81.371094 82.621094 81.394531 82.769531 81.4375 C 83.070312 81.515625 83.292969 81.6875 83.441406 81.917969 C 83.464844 81.949219 83.484375 81.980469 83.503906 82.011719 C 83.527344 82.042969 83.546875 82.078125 83.570312 82.113281 C 83.617188 82.179688 83.664062 82.246094 83.710938 82.308594 C 83.808594 82.433594 83.910156 82.550781 84.015625 82.652344 C 84.226562 82.859375 84.449219 83.003906 84.636719 83.109375 C 84.734375 83.160156 84.828125 83.210938 84.933594 83.25 C 84.988281 83.273438 85.039062 83.292969 85.089844 83.3125 L 85.253906 83.363281 C 85.46875 83.417969 85.691406 83.457031 85.914062 83.457031 C 86.136719 83.457031 86.359375 83.441406 86.574219 83.390625 C 86.789062 83.34375 87.003906 83.277344 87.203125 83.179688 C 87.304688 83.136719 87.398438 83.078125 87.496094 83.023438 C 87.589844 82.960938 87.683594 82.902344 87.769531 82.828125 C 87.859375 82.761719 87.9375 82.679688 88.019531 82.601562 C 88.09375 82.515625 88.175781 82.433594 88.234375 82.34375 C 88.5 81.992188 88.6875 81.570312 88.765625 81.125 C 88.84375 80.683594 88.796875 80.226562 88.679688 79.808594 C 88.558594 79.386719 88.363281 78.996094 88.128906 78.636719 C 87.894531 78.28125 87.617188 77.957031 87.320312 77.664062 C 87.023438 77.367188 86.699219 77.097656 86.351562 76.855469 C 85.65625 76.375 84.859375 76.046875 84.042969 75.863281 C 83.222656 75.679688 82.378906 75.648438 81.558594 75.6875 C 81.140625 75.707031 80.71875 75.761719 80.3125 75.855469 Z M 81.660156 81.386719 C 81.757812 81.367188 81.855469 81.351562 81.949219 81.339844 C 81.855469 81.351562 81.757812 81.367188 81.660156 81.386719 Z M 84.882812 83.046875 C 84.859375 83.035156 84.832031 83.023438 84.808594 83.011719 C 84.835938 83.023438 84.859375 83.035156 84.882812 83.046875 Z M 84.882812 83.046875 " fill-opacity="1" fill-rule="nonzero"/><path fill="#000000" d="M 80.214844 81.835938 C 80.230469 81.828125 80.25 81.820312 80.265625 81.8125 C 80.246094 81.820312 80.226562 81.828125 80.207031 81.839844 C 80.207031 81.839844 80.210938 81.835938 80.214844 81.835938 Z M 80.214844 81.835938 " fill-opacity="1" fill-rule="nonzero"/><path fill="#000000" d="M 80.320312 81.785156 C 80.300781 81.792969 80.285156 81.804688 80.265625 81.8125 C 80.285156 81.800781 80.300781 81.792969 80.320312 81.785156 Z M 80.320312 81.785156 " fill-opacity="1" fill-rule="nonzero"/><path fill="#000000" d="M 78.582031 56.402344 C 76.628906 56.445312 74.664062 56.488281 72.707031 56.53125 C 72.707031 56.542969 72.808594 56.550781 72.648438 56.558594 C 72.394531 56.570312 72.164062 56.570312 71.929688 56.574219 C 71.695312 56.578125 71.464844 56.578125 71.191406 56.613281 L 71.15625 56.636719 C 71.046875 56.652344 70.933594 56.671875 70.816406 56.707031 C 70.699219 56.742188 70.59375 56.792969 70.5 56.835938 C 70.304688 56.929688 70.101562 57.042969 69.917969 57.179688 C 69.578125 57.445312 69.296875 57.792969 69.125 58.1875 C 69.039062 58.386719 68.976562 58.589844 68.933594 58.800781 C 68.894531 59.007812 68.878906 59.21875 68.878906 59.425781 C 68.886719 59.40625 68.890625 59.394531 68.898438 59.476562 C 68.902344 59.5625 68.902344 59.660156 68.917969 59.761719 C 68.921875 59.808594 68.925781 59.863281 68.9375 59.917969 C 68.945312 59.96875 68.957031 60.023438 68.96875 60.078125 C 69.015625 60.300781 69.089844 60.539062 69.203125 60.765625 C 69.242188 60.832031 69.28125 60.894531 69.316406 60.957031 C 69.351562 61.003906 69.367188 61.011719 69.375 61.019531 C 69.496094 61.210938 69.636719 61.359375 69.769531 61.492188 C 70 61.699219 70.265625 61.867188 70.546875 61.984375 C 70.617188 62.011719 70.6875 62.042969 70.761719 62.066406 C 70.835938 62.089844 70.902344 62.113281 70.980469 62.132812 C 71.164062 62.171875 71.296875 62.171875 71.449219 62.179688 C 72.03125 62.199219 72.601562 62.183594 73.183594 62.167969 C 74.34375 62.132812 75.53125 62.082031 76.765625 62.023438 C 77.285156 61.992188 77.808594 61.960938 78.3125 61.9375 C 78.554688 61.929688 78.816406 61.917969 79.085938 61.910156 C 79.363281 61.902344 79.648438 61.894531 79.921875 61.886719 C 80.058594 61.820312 80.195312 61.753906 80.328125 61.691406 C 80.449219 61.628906 80.574219 61.574219 80.6875 61.507812 C 80.621094 61.507812 80.996094 61.289062 81.234375 60.980469 C 81.273438 60.933594 81.304688 60.886719 81.335938 60.84375 C 81.335938 60.84375 81.339844 60.839844 81.339844 60.839844 C 81.757812 60.308594 81.882812 59.933594 81.882812 59.203125 C 81.878906 58.128906 81.230469 57.207031 80.203125 56.816406 C 79.773438 56.652344 79.671875 56.628906 78.28125 56.667969 C 78.289062 56.65625 78.28125 56.644531 78.046875 56.640625 C 78.371094 56.632812 78.53125 56.628906 78.855469 56.621094 C 78.890625 56.601562 77.859375 56.65625 78.082031 56.621094 C 78.394531 56.617188 78.742188 56.597656 79.066406 56.597656 C 78.953125 56.566406 77.945312 56.613281 77.996094 56.585938 C 78.167969 56.574219 78.902344 56.59375 78.96875 56.566406 C 78.980469 56.558594 78.65625 56.5625 78.492188 56.566406 C 78.992188 56.550781 79.378906 56.539062 79.535156 56.539062 C 79.609375 56.539062 79.625 56.53125 79.5625 56.519531 C 79.5 56.507812 79.359375 56.492188 79.128906 56.484375 C 79.289062 56.484375 79.484375 56.488281 79.6875 56.515625 C 79.789062 56.527344 79.898438 56.546875 79.996094 56.578125 C 80.09375 56.605469 80.179688 56.640625 80.257812 56.667969 C 80.179688 56.636719 80.070312 56.59375 79.949219 56.558594 C 79.875 56.539062 79.800781 56.523438 79.738281 56.515625 C 79.804688 56.523438 79.867188 56.535156 79.933594 56.550781 C 80.039062 56.578125 80.132812 56.613281 80.222656 56.648438 C 80.195312 56.632812 80.164062 56.617188 80.128906 56.597656 C 80.039062 56.5625 79.9375 56.535156 79.835938 56.511719 C 79.917969 56.527344 80 56.546875 80.078125 56.574219 C 79.984375 56.535156 79.863281 56.492188 79.734375 56.46875 C 79.492188 56.429688 79.265625 56.417969 79.070312 56.410156 C 78.875 56.402344 78.707031 56.398438 78.582031 56.402344 Z M 78.582031 56.402344 " fill-opacity="1" fill-rule="nonzero"/><path fill="#000000" d="M 62.015625 69.171875 C 62.082031 69.078125 62.152344 68.976562 62.226562 68.871094 C 62.761719 68.058594 63.171875 67.214844 63.355469 66.722656 C 64.132812 64.75 64.519531 62.632812 64.566406 60.515625 C 64.59375 59.457031 64.535156 58.394531 64.390625 57.347656 C 64.246094 56.292969 64.003906 55.261719 63.683594 54.253906 C 63.667969 54.25 63.730469 54.464844 63.613281 54.136719 C 63.4375 53.613281 63.253906 53.148438 63.0625 52.6875 C 62.859375 52.230469 62.644531 51.78125 62.359375 51.300781 C 62.339844 51.285156 62.320312 51.261719 62.300781 51.242188 C 61.863281 50.507812 61.339844 49.769531 60.675781 49.121094 C 60.070312 48.527344 59.371094 48.027344 58.605469 47.648438 C 57.835938 47.28125 57 47.050781 56.148438 47 C 56.191406 47.007812 56.210938 47.015625 56.042969 47.011719 C 55.339844 46.972656 54.34375 47.085938 53.402344 47.472656 C 53.265625 47.535156 53.128906 47.589844 53 47.65625 C 52.898438 47.710938 52.875 47.730469 52.859375 47.742188 C 52.453125 47.953125 52.113281 48.171875 51.8125 48.390625 C 51.316406 48.761719 50.871094 49.191406 50.46875 49.65625 L 50.320312 49.832031 L 50.175781 50.011719 C 50.128906 50.074219 50.078125 50.128906 50.035156 50.195312 L 49.902344 50.382812 L 49.640625 50.765625 C 49.59375 50.828125 49.554688 50.894531 49.515625 50.960938 L 49.402344 51.160156 C 48.777344 52.226562 48.324219 53.390625 48 54.59375 C 47.675781 55.800781 47.480469 57.050781 47.402344 58.332031 C 47.324219 59.609375 47.363281 60.914062 47.542969 62.226562 C 47.703125 63.335938 47.953125 64.433594 48.296875 65.453125 C 48.546875 66.210938 48.890625 67.058594 49.3125 67.855469 C 49.734375 68.65625 50.246094 69.40625 50.761719 69.996094 C 50.734375 69.9375 50.871094 70.074219 51.089844 70.296875 C 51.203125 70.402344 51.339844 70.523438 51.484375 70.65625 C 51.632812 70.785156 51.800781 70.914062 51.960938 71.042969 C 52.03125 71.09375 52.101562 71.144531 52.171875 71.191406 C 52.914062 71.746094 53.722656 72.140625 54.578125 72.351562 C 57.050781 72.960938 59.570312 71.96875 61.417969 69.65625 C 62.214844 68.65625 62.863281 67.40625 63.34375 66.015625 C 63.351562 66.023438 63.378906 65.980469 63.53125 65.550781 C 63.476562 65.714844 63.429688 65.855469 63.382812 65.988281 C 63.339844 66.121094 63.300781 66.246094 63.253906 66.367188 C 63.203125 66.488281 63.15625 66.605469 63.105469 66.738281 C 63.054688 66.867188 63.003906 67.011719 62.925781 67.167969 C 62.925781 67.175781 62.9375 67.152344 62.960938 67.105469 C 62.984375 67.058594 63.015625 66.988281 63.046875 66.902344 C 63.117188 66.726562 63.207031 66.488281 63.296875 66.265625 C 63.449219 65.808594 63.582031 65.398438 63.523438 65.632812 C 63.414062 65.945312 63.3125 66.28125 63.175781 66.613281 C 63.109375 66.777344 63.054688 66.945312 62.980469 67.105469 C 62.90625 67.269531 62.832031 67.429688 62.757812 67.585938 C 62.789062 67.535156 62.867188 67.371094 62.96875 67.160156 C 63.023438 67.054688 63.070312 66.933594 63.121094 66.808594 C 63.167969 66.679688 63.222656 66.550781 63.273438 66.421875 C 63.328125 66.292969 63.371094 66.164062 63.410156 66.042969 C 63.449219 65.925781 63.488281 65.816406 63.519531 65.726562 C 63.578125 65.546875 63.621094 65.4375 63.617188 65.464844 C 63.589844 65.554688 63.535156 65.714844 63.46875 65.902344 C 63.4375 66 63.402344 66.101562 63.363281 66.210938 C 63.328125 66.316406 63.277344 66.421875 63.238281 66.527344 C 63.148438 66.738281 63.074219 66.945312 63.003906 67.101562 C 62.933594 67.257812 62.882812 67.371094 62.875 67.40625 C 62.875 67.417969 62.945312 67.269531 63.035156 67.074219 C 63.117188 66.878906 63.210938 66.636719 63.273438 66.476562 C 63.226562 66.597656 63.179688 66.71875 63.136719 66.835938 C 63.089844 66.953125 63.046875 67.066406 62.996094 67.171875 C 62.902344 67.386719 62.8125 67.578125 62.734375 67.753906 C 62.5625 68.089844 62.433594 68.347656 62.359375 68.488281 C 62.28125 68.628906 62.269531 68.65625 62.34375 68.550781 C 62.386719 68.5 62.4375 68.40625 62.511719 68.273438 C 62.585938 68.144531 62.6875 67.972656 62.800781 67.757812 C 62.726562 67.910156 62.632812 68.074219 62.539062 68.246094 C 62.492188 68.332031 62.441406 68.421875 62.394531 68.511719 C 62.335938 68.597656 62.28125 68.683594 62.226562 68.773438 C 62.171875 68.859375 62.113281 68.949219 62.058594 69.035156 C 62.03125 69.078125 62.003906 69.125 61.972656 69.164062 C 61.941406 69.207031 61.914062 69.246094 61.882812 69.289062 C 61.761719 69.453125 61.648438 69.609375 61.539062 69.753906 C 61.539062 69.753906 61.542969 69.75 61.542969 69.75 C 61.652344 69.605469 61.796875 69.410156 61.941406 69.214844 C 62.082031 69.019531 62.203125 68.8125 62.292969 68.671875 C 62.183594 68.84375 62.078125 69.019531 61.964844 69.191406 L 61.597656 69.6875 C 61.640625 69.636719 61.6875 69.578125 61.734375 69.519531 C 61.824219 69.40625 61.910156 69.289062 61.996094 69.171875 C 61.9375 69.257812 61.871094 69.34375 61.808594 69.429688 C 61.875 69.351562 61.945312 69.265625 62.015625 69.171875 Z M 56.800781 66.972656 C 56.792969 66.957031 56.78125 66.96875 56.574219 67.089844 C 56.722656 67 56.820312 66.914062 56.914062 66.824219 C 57.007812 66.734375 57.101562 66.640625 57.210938 66.503906 C 57.214844 66.484375 57.050781 66.695312 56.871094 66.859375 C 56.695312 67.027344 56.503906 67.128906 56.597656 67.054688 C 56.878906 66.878906 57.125 66.585938 57.332031 66.3125 C 57.289062 66.351562 57.101562 66.589844 56.902344 66.78125 C 56.804688 66.875 56.699219 66.957031 56.621094 67.007812 C 56.546875 67.058594 56.496094 67.082031 56.503906 67.070312 C 56.578125 67.027344 56.777344 66.898438 56.9375 66.738281 C 57.101562 66.578125 57.234375 66.414062 57.242188 66.375 C 57.25 66.363281 57.03125 66.632812 56.90625 66.75 C 57.273438 66.371094 57.484375 66.003906 57.558594 65.867188 C 57.628906 65.722656 57.578125 65.808594 57.285156 66.191406 C 57.488281 65.925781 57.742188 65.523438 57.894531 65.199219 C 57.894531 65.203125 57.894531 65.203125 57.890625 65.203125 C 57.8125 65.363281 57.660156 65.625 57.574219 65.765625 C 57.679688 65.59375 57.777344 65.417969 57.867188 65.238281 C 57.851562 65.265625 57.828125 65.292969 57.808594 65.324219 C 57.734375 65.457031 57.660156 65.585938 57.578125 65.722656 C 57.648438 65.609375 57.714844 65.492188 57.777344 65.375 C 57.722656 65.457031 57.65625 65.554688 57.585938 65.65625 C 57.328125 66.054688 57.027344 66.390625 56.855469 66.5625 C 56.683594 66.738281 56.5 66.898438 56.308594 66.96875 C 56.257812 66.988281 56.203125 67.003906 56.152344 67.015625 C 56.101562 67.03125 56.039062 67.039062 56.019531 67.039062 L 55.953125 67.03125 C 55.929688 67.03125 55.902344 67.023438 55.878906 67.019531 C 55.855469 67.015625 55.828125 67.007812 55.804688 67 C 55.78125 66.992188 55.753906 66.984375 55.730469 66.972656 C 55.53125 66.894531 55.335938 66.75 55.164062 66.582031 C 54.988281 66.414062 54.828125 66.214844 54.683594 66.007812 C 54.394531 65.59375 54.152344 65.132812 53.949219 64.65625 C 53.746094 64.179688 53.578125 63.683594 53.4375 63.183594 C 53.425781 63.183594 53.445312 63.292969 53.394531 63.128906 C 53.316406 62.867188 53.265625 62.625 53.222656 62.382812 C 53.175781 62.140625 53.136719 61.898438 53.097656 61.636719 L 53.074219 61.601562 C 53.03125 61.183594 53.011719 60.742188 53.007812 60.292969 C 52.984375 59.460938 52.992188 58.628906 53.074219 57.820312 C 53.066406 57.839844 53.058594 57.847656 53.066406 57.769531 C 53.097656 57.4375 53.199219 56.972656 53.320312 56.503906 C 53.339844 56.433594 53.355469 56.363281 53.375 56.292969 C 53.386719 56.242188 53.382812 56.222656 53.382812 56.214844 C 53.410156 56.109375 53.445312 56.011719 53.476562 55.914062 C 53.507812 55.820312 53.535156 55.730469 53.566406 55.648438 C 53.757812 55.082031 53.992188 54.523438 54.289062 54.003906 C 54.445312 53.75 54.605469 53.496094 54.800781 53.273438 C 54.996094 53.054688 55.214844 52.855469 55.460938 52.742188 C 55.492188 52.730469 55.523438 52.710938 55.550781 52.699219 C 55.582031 52.691406 55.609375 52.683594 55.640625 52.679688 C 55.703125 52.667969 55.765625 52.664062 55.828125 52.671875 C 55.957031 52.679688 56.089844 52.726562 56.21875 52.789062 C 56.476562 52.921875 56.707031 53.128906 56.921875 53.359375 C 57.347656 53.820312 57.695312 54.375 57.976562 54.972656 C 58.222656 55.480469 58.417969 56.011719 58.5625 56.535156 C 58.667969 56.925781 58.761719 57.375 58.832031 57.828125 C 58.902344 58.277344 58.941406 58.730469 58.96875 59.125 C 58.996094 59.0625 59.050781 59.511719 59.082031 59.929688 C 59.085938 59.992188 59.089844 60.054688 59.09375 60.113281 C 59.09375 61.960938 58.753906 63.8125 58.035156 65.269531 C 57.671875 66.003906 57.210938 66.632812 56.800781 66.972656 Z M 62.265625 68.753906 L 62.046875 69.097656 C 62.042969 69.109375 62.035156 69.117188 62.027344 69.128906 C 62.105469 69.003906 62.183594 68.878906 62.265625 68.753906 Z M 62.265625 68.753906 " fill-opacity="1" fill-rule="nonzero"/><path fill="#000000" d="M 112.300781 77.34375 L 112.148438 77.195312 C 112.121094 77.167969 112.097656 77.144531 112.070312 77.121094 L 111.984375 77.054688 L 111.8125 76.929688 C 111.753906 76.886719 111.6875 76.855469 111.625 76.820312 C 111.5625 76.785156 111.5 76.746094 111.441406 76.714844 L 111.257812 76.625 C 111.121094 76.5625 110.988281 76.496094 110.855469 76.429688 C 110.394531 76.4375 109.921875 76.445312 109.4375 76.457031 C 108.964844 76.464844 108.476562 76.46875 107.980469 76.484375 C 106.988281 76.519531 105.960938 76.578125 104.921875 76.65625 C 104.226562 76.714844 103.53125 76.789062 102.84375 76.839844 C 102.15625 76.890625 101.472656 76.933594 100.800781 76.964844 C 99.808594 77.011719 98.675781 77.042969 97.550781 77.0625 C 96.984375 77.074219 96.421875 77.085938 95.882812 77.097656 C 95.339844 77.113281 94.816406 77.125 94.328125 77.164062 C 94.363281 77.171875 94.324219 77.179688 94.222656 77.199219 C 94.125 77.214844 93.964844 77.238281 93.777344 77.300781 C 93.730469 77.316406 93.679688 77.332031 93.632812 77.355469 C 93.582031 77.375 93.53125 77.402344 93.480469 77.425781 C 93.375 77.46875 93.273438 77.539062 93.167969 77.601562 C 92.964844 77.742188 92.757812 77.910156 92.59375 78.113281 C 92.527344 78.199219 92.464844 78.285156 92.410156 78.371094 C 92.410156 78.375 92.410156 78.375 92.410156 78.375 C 92.394531 78.394531 92.382812 78.414062 92.371094 78.433594 C 91.925781 79.144531 91.839844 80.058594 92.230469 80.882812 C 92.53125 81.503906 92.890625 81.855469 93.542969 82.152344 L 94.042969 82.386719 L 100.351562 82.339844 L 100.40625 84.128906 C 100.441406 85.128906 100.519531 87.121094 100.613281 89.363281 C 100.609375 89.429688 100.609375 89.585938 100.617188 89.949219 C 100.582031 89.089844 100.566406 88.65625 100.527344 87.789062 C 100.507812 87.691406 100.652344 90.449219 100.59375 89.851562 C 100.566406 89.019531 100.515625 88.089844 100.480469 87.226562 C 100.46875 87.527344 100.597656 90.21875 100.570312 90.085938 C 100.542969 89.621094 100.5 87.660156 100.460938 87.492188 C 100.453125 87.460938 100.488281 88.324219 100.507812 88.757812 C 100.386719 86.097656 100.296875 84.632812 100.363281 87.0625 C 100.328125 86.21875 100.292969 85.027344 100.25 84.136719 C 100.25 84.136719 100.25 84.140625 100.25 84.140625 C 100.265625 84.585938 100.296875 85.355469 100.3125 85.765625 C 100.289062 85.261719 100.269531 84.753906 100.25 84.246094 C 100.25 84.328125 100.246094 84.417969 100.246094 84.511719 C 100.261719 84.890625 100.273438 85.269531 100.289062 85.664062 C 100.273438 85.328125 100.261719 84.992188 100.246094 84.65625 C 100.25 84.910156 100.253906 85.199219 100.253906 85.515625 C 100.285156 86.714844 100.304688 87.863281 100.332031 88.511719 C 100.4375 91.125 100.542969 93.746094 100.644531 96.367188 C 100.675781 97.027344 100.710938 97.683594 100.757812 98.339844 C 100.78125 98.671875 100.800781 98.988281 100.839844 99.335938 L 100.84375 99.371094 L 100.851562 99.414062 C 100.859375 99.445312 100.863281 99.460938 100.867188 99.484375 L 100.902344 99.617188 C 100.929688 99.703125 100.957031 99.789062 100.992188 99.875 C 101.054688 100.042969 101.136719 100.203125 101.230469 100.359375 C 101.417969 100.667969 101.660156 100.941406 101.953125 101.164062 C 102.097656 101.273438 102.253906 101.371094 102.421875 101.449219 C 102.585938 101.527344 102.773438 101.589844 102.945312 101.625 C 103.296875 101.699219 103.648438 101.714844 103.996094 101.699219 C 104.175781 101.691406 104.378906 101.65625 104.558594 101.585938 C 104.644531 101.554688 104.726562 101.519531 104.804688 101.480469 C 104.882812 101.445312 104.960938 101.40625 105.042969 101.363281 C 105.042969 101.355469 104.976562 101.386719 104.957031 101.386719 C 104.941406 101.390625 104.984375 101.375 105.183594 101.242188 C 105.496094 101.035156 105.75 100.792969 105.964844 100.519531 C 106.171875 100.246094 106.34375 99.9375 106.417969 99.578125 C 106.4375 99.488281 106.441406 99.40625 106.453125 99.320312 C 106.457031 99.238281 106.464844 99.15625 106.464844 99.074219 C 106.46875 98.917969 106.472656 98.757812 106.46875 98.597656 C 106.46875 98.277344 106.460938 97.953125 106.445312 97.609375 C 106.4375 97.578125 106.429688 97.542969 106.421875 97.511719 C 106.394531 96.453125 106.355469 95.355469 106.3125 94.230469 C 106.265625 93.199219 106.214844 92.167969 106.167969 91.136719 C 106.121094 90.109375 106.0625 89.085938 106.023438 88.0625 C 106.019531 88.117188 106.015625 88.140625 106.003906 87.9375 C 105.96875 87.085938 105.929688 85.90625 105.886719 84.6875 C 105.878906 84.507812 105.871094 84.324219 105.863281 84.148438 C 105.855469 84.007812 105.847656 83.972656 105.84375 83.953125 C 105.828125 83.398438 105.816406 82.90625 105.808594 82.453125 C 105.804688 82.375 105.800781 82.300781 105.800781 82.222656 C 105.796875 82.207031 105.796875 82.195312 105.796875 82.179688 L 105.828125 82.175781 L 105.9375 82.164062 C 106.058594 82.15625 106.179688 82.140625 106.304688 82.136719 C 106.546875 82.125 106.792969 82.113281 107.039062 82.101562 C 107.53125 82.082031 108.023438 82.058594 108.515625 82.035156 C 109.011719 82.011719 109.515625 82 110.019531 81.96875 C 110.273438 81.953125 110.53125 81.933594 110.789062 81.894531 C 111.050781 81.855469 111.324219 81.800781 111.582031 81.660156 C 111.710938 81.59375 111.828125 81.515625 111.933594 81.429688 C 112.035156 81.339844 112.136719 81.246094 112.238281 81.15625 C 112.324219 81.050781 112.417969 80.949219 112.5 80.835938 L 112.617188 80.664062 L 112.671875 80.578125 C 112.691406 80.546875 112.703125 80.515625 112.71875 80.484375 C 112.972656 79.992188 113.09375 79.417969 113.015625 78.859375 C 112.941406 78.300781 112.695312 77.757812 112.300781 77.34375 Z M 112.300781 77.34375 " fill-opacity="1" fill-rule="nonzero"/><path fill="#000000" d="M 122.757812 54.644531 C 122.484375 53.207031 122.0625 51.878906 121.519531 50.699219 C 121.519531 50.703125 121.519531 50.703125 121.519531 50.703125 C 121.535156 50.707031 121.539062 50.667969 121.335938 50.238281 C 121.414062 50.390625 121.476562 50.527344 121.535156 50.652344 C 121.597656 50.78125 121.648438 50.898438 121.699219 51.019531 C 121.75 51.136719 121.800781 51.257812 121.851562 51.386719 C 121.902344 51.519531 121.957031 51.660156 122.019531 51.820312 C 122.039062 51.855469 121.855469 51.355469 121.660156 50.914062 C 121.5625 50.695312 121.460938 50.492188 121.40625 50.363281 C 121.34375 50.242188 121.324219 50.195312 121.386719 50.300781 C 121.679688 50.898438 121.972656 51.582031 122.1875 52.238281 C 122.175781 52.179688 122.121094 52.007812 122.042969 51.789062 C 121.964844 51.570312 121.863281 51.296875 121.753906 51.042969 C 121.648438 50.785156 121.527344 50.546875 121.453125 50.371094 C 121.367188 50.199219 121.316406 50.097656 121.335938 50.117188 C 121.378906 50.199219 121.457031 50.347656 121.539062 50.535156 C 121.578125 50.625 121.625 50.726562 121.671875 50.828125 C 121.714844 50.933594 121.757812 51.039062 121.800781 51.144531 C 121.972656 51.566406 122.113281 51.96875 122.148438 52.027344 C 122.164062 52.046875 122.011719 51.621094 121.878906 51.289062 C 122.246094 52.171875 122.449219 52.878906 122.539062 53.160156 C 122.585938 53.3125 122.601562 53.339844 122.574219 53.210938 C 122.558594 53.148438 122.535156 53.046875 122.5 52.898438 C 122.457031 52.753906 122.40625 52.566406 122.335938 52.332031 C 122.386719 52.496094 122.441406 52.671875 122.5 52.863281 C 122.550781 53.050781 122.601562 53.25 122.65625 53.449219 C 122.703125 53.652344 122.75 53.855469 122.792969 54.050781 C 122.835938 54.246094 122.875 54.4375 122.910156 54.613281 C 122.910156 54.613281 122.910156 54.609375 122.910156 54.609375 C 122.875 54.433594 122.828125 54.191406 122.777344 53.957031 C 122.761719 53.882812 122.742188 53.808594 122.726562 53.738281 C 122.789062 54 122.847656 54.261719 122.898438 54.523438 C 122.890625 54.460938 122.878906 54.386719 122.867188 54.3125 C 122.816406 54.011719 122.742188 53.714844 122.667969 53.40625 C 122.703125 53.539062 122.730469 53.671875 122.761719 53.800781 C 122.792969 53.933594 122.824219 54.066406 122.851562 54.199219 C 122.824219 53.996094 122.773438 53.769531 122.722656 53.519531 C 122.511719 52.574219 122.222656 51.691406 122.023438 51.203125 C 121.824219 50.714844 121.597656 50.234375 121.347656 49.761719 C 121.09375 49.292969 120.808594 48.84375 120.496094 48.410156 C 119.867188 47.542969 119.089844 46.769531 118.1875 46.175781 C 117.285156 45.582031 116.238281 45.175781 115.148438 45.074219 C 114.605469 45.023438 114.054688 45.039062 113.519531 45.128906 C 112.980469 45.222656 112.457031 45.382812 111.960938 45.605469 C 111.957031 45.617188 112.175781 45.535156 111.847656 45.683594 C 111.339844 45.929688 110.90625 46.199219 110.5 46.5 C 110.09375 46.800781 109.710938 47.136719 109.339844 47.554688 C 109.324219 47.578125 109.3125 47.601562 109.296875 47.625 C 109.226562 47.707031 109.15625 47.789062 109.082031 47.867188 C 109.011719 47.953125 108.941406 48.039062 108.875 48.121094 C 108.734375 48.292969 108.613281 48.480469 108.480469 48.660156 C 108.414062 48.75 108.34375 48.839844 108.285156 48.9375 C 108.226562 49.03125 108.167969 49.128906 108.109375 49.226562 C 107.996094 49.421875 107.871094 49.613281 107.773438 49.820312 L 107.492188 50.386719 L 107.25 50.964844 C 107.210938 51.0625 107.167969 51.160156 107.132812 51.257812 L 107.03125 51.554688 C 106.964844 51.753906 106.890625 51.949219 106.828125 52.148438 C 106.71875 52.550781 106.589844 52.945312 106.511719 53.355469 C 106.464844 53.558594 106.417969 53.757812 106.378906 53.960938 L 106.273438 54.574219 C 106.289062 54.535156 106.296875 54.515625 106.273438 54.675781 C 106.242188 54.847656 106.21875 55.035156 106.195312 55.234375 C 106.171875 55.433594 106.144531 55.648438 106.117188 55.871094 C 106.089844 56.316406 106.035156 56.800781 106.035156 57.292969 C 106.03125 57.4375 106.03125 57.585938 106.027344 57.726562 C 106.027344 57.839844 106.039062 57.867188 106.042969 57.886719 C 106.046875 58.109375 106.050781 58.320312 106.058594 58.519531 C 106.058594 58.621094 106.0625 58.71875 106.0625 58.816406 C 106.070312 58.910156 106.078125 59.003906 106.082031 59.097656 C 106.253906 61.507812 106.863281 63.929688 108.082031 66.125 C 108.152344 66.265625 108.238281 66.398438 108.320312 66.53125 C 108.402344 66.664062 108.480469 66.800781 108.570312 66.929688 C 108.75 67.191406 108.925781 67.453125 109.132812 67.699219 C 109.324219 67.953125 109.546875 68.183594 109.757812 68.421875 C 109.992188 68.640625 110.214844 68.875 110.46875 69.074219 C 110.964844 69.484375 111.511719 69.855469 112.113281 70.125 C 112.714844 70.394531 113.359375 70.589844 114.023438 70.667969 C 114.585938 70.730469 115.160156 70.714844 115.710938 70.625 C 116.265625 70.535156 116.796875 70.359375 117.289062 70.136719 C 117.476562 70.0625 117.65625 69.957031 117.847656 69.859375 C 117.941406 69.8125 118.027344 69.75 118.121094 69.695312 C 118.214844 69.636719 118.3125 69.585938 118.398438 69.515625 C 118.578125 69.390625 118.765625 69.261719 118.9375 69.117188 C 119.023438 69.042969 119.113281 68.976562 119.195312 68.898438 L 119.445312 68.667969 C 119.53125 68.589844 119.609375 68.507812 119.6875 68.425781 C 119.765625 68.34375 119.84375 68.265625 119.917969 68.179688 C 119.992188 68.097656 120.066406 68.011719 120.136719 67.925781 C 120.210938 67.84375 120.28125 67.757812 120.34375 67.667969 C 120.472656 67.492188 120.601562 67.324219 120.722656 67.152344 C 120.835938 66.976562 120.945312 66.804688 121.046875 66.640625 C 121.023438 66.660156 121.035156 66.628906 121.070312 66.558594 C 121.109375 66.488281 121.160156 66.371094 121.226562 66.230469 C 121.292969 66.089844 121.382812 65.929688 121.460938 65.75 C 121.539062 65.566406 121.621094 65.375 121.699219 65.1875 C 121.742188 65.09375 121.777344 65 121.808594 64.910156 C 123.03125 61.941406 123.417969 58.144531 122.757812 54.644531 Z M 115.578125 65.039062 C 115.570312 65.023438 115.558594 65.035156 115.351562 65.160156 C 115.496094 65.066406 115.597656 64.980469 115.691406 64.890625 C 115.785156 64.800781 115.875 64.707031 115.988281 64.574219 C 115.992188 64.550781 115.828125 64.761719 115.648438 64.925781 C 115.472656 65.09375 115.28125 65.195312 115.375 65.121094 C 115.65625 64.949219 115.902344 64.652344 116.109375 64.378906 C 116.066406 64.417969 115.878906 64.660156 115.679688 64.847656 C 115.582031 64.945312 115.476562 65.023438 115.398438 65.078125 C 115.320312 65.125 115.273438 65.148438 115.28125 65.136719 C 115.355469 65.09375 115.554688 64.964844 115.714844 64.804688 C 115.878906 64.648438 116.011719 64.480469 116.019531 64.445312 C 116.027344 64.433594 115.808594 64.699219 115.683594 64.816406 C 116.050781 64.4375 116.261719 64.074219 116.335938 63.9375 C 116.40625 63.792969 116.355469 63.878906 116.0625 64.257812 C 116.265625 63.992188 116.519531 63.589844 116.671875 63.269531 C 116.671875 63.269531 116.667969 63.269531 116.667969 63.269531 C 116.589844 63.429688 116.4375 63.695312 116.351562 63.832031 C 116.457031 63.660156 116.554688 63.484375 116.644531 63.304688 C 116.625 63.332031 116.605469 63.363281 116.585938 63.394531 C 116.511719 63.523438 116.4375 63.65625 116.355469 63.789062 C 116.425781 63.675781 116.492188 63.558594 116.554688 63.441406 C 116.5 63.523438 116.433594 63.621094 116.363281 63.722656 C 116.105469 64.125 115.804688 64.457031 115.632812 64.628906 C 115.460938 64.804688 115.277344 64.964844 115.085938 65.035156 C 115.035156 65.054688 114.980469 65.070312 114.929688 65.085938 C 114.878906 65.097656 114.816406 65.109375 114.796875 65.109375 L 114.730469 65.101562 C 114.707031 65.101562 114.679688 65.09375 114.65625 65.085938 C 114.632812 65.082031 114.605469 65.078125 114.582031 65.066406 C 114.554688 65.058594 114.53125 65.054688 114.507812 65.042969 C 114.304688 64.960938 114.113281 64.816406 113.941406 64.648438 C 113.765625 64.480469 113.605469 64.285156 113.460938 64.078125 C 113.171875 63.660156 112.929688 63.199219 112.726562 62.722656 C 112.523438 62.246094 112.355469 61.753906 112.214844 61.25 C 112.203125 61.25 112.222656 61.359375 112.171875 61.195312 C 112.09375 60.933594 112.042969 60.691406 112 60.449219 C 111.953125 60.207031 111.914062 59.964844 111.875 59.703125 L 111.851562 59.667969 C 111.808594 59.253906 111.789062 58.808594 111.785156 58.359375 C 111.757812 57.53125 111.769531 56.695312 111.851562 55.886719 C 111.84375 55.90625 111.835938 55.914062 111.84375 55.835938 C 111.875 55.503906 111.976562 55.042969 112.097656 54.570312 C 112.117188 54.5 112.132812 54.429688 112.152344 54.363281 C 112.164062 54.308594 112.160156 54.292969 112.160156 54.28125 C 112.1875 54.175781 112.222656 54.078125 112.253906 53.984375 C 112.285156 53.890625 112.3125 53.800781 112.34375 53.714844 C 112.535156 53.148438 112.769531 52.59375 113.066406 52.074219 C 113.222656 51.820312 113.382812 51.5625 113.578125 51.34375 C 113.769531 51.125 113.992188 50.921875 114.238281 50.808594 C 114.269531 50.796875 114.300781 50.777344 114.328125 50.769531 C 114.359375 50.757812 114.386719 50.75 114.417969 50.746094 C 114.480469 50.734375 114.542969 50.730469 114.605469 50.738281 C 114.734375 50.75 114.867188 50.796875 114.996094 50.859375 C 115.253906 50.988281 115.484375 51.199219 115.699219 51.425781 C 116.125 51.886719 116.472656 52.441406 116.753906 53.042969 C 117 53.546875 117.195312 54.078125 117.339844 54.601562 C 117.445312 54.992188 117.539062 55.441406 117.609375 55.894531 C 117.679688 56.347656 117.71875 56.800781 117.746094 57.191406 C 117.773438 57.128906 117.828125 57.578125 117.859375 57.996094 C 117.863281 58.058594 117.867188 58.121094 117.871094 58.179688 C 117.871094 60.03125 117.53125 61.878906 116.8125 63.339844 C 116.449219 64.070312 115.988281 64.699219 115.578125 65.039062 Z M 115.578125 65.039062 " fill-opacity="1" fill-rule="nonzero"/></svg>