<?xml version="1.0" encoding="UTF-8"?>
<svg xmlns="http://www.w3.org/2000/svg" xmlns:xlink="http://www.w3.org/1999/xlink" width="100" viewBox="0 0 100 100" height="100" preserveAspectRatio="xMidYMid meet" version="1.2" baseProfile="tiny-ps">
  <defs>
    <filter x="0%" y="0%" width="100%" height="100%" id="70cce9e3f8">
      <feColorMatrix values="0 0 0 0 1 0 0 0 0 1 0 0 0 0 1 0 0 0 1 0" color-interpolation-filters="sRGB"/>
    </filter>
    <filter x="0%" y="0%" width="100%" height="100%" id="b467491d50">
      <feColorMatrix values="0 0 0 0 1 0 0 0 0 1 0 0 0 0 1 0.2126 0.7152 0.0722 0 0" color-interpolation-filters="sRGB"/>
    </filter>
    <mask id="bb13d96574">
      <g filter="url(#70cce9e3f8)">
        <g filter="url(#b467491d50)" transform="matrix(0.138376, 0, 0, 0.138037, 0.0000015, 3.681817)">
          
        </g>
      </g>
    </mask>
    <clipPath id="eedfc0db59">
      <path d="M 6 21 L 69.804688 21 L 69.804688 63.101562 L 6 63.101562 Z M 6 21 " clip-rule="nonzero"/>
    </clipPath>
    <clipPath id="00c664389a">
      <path d="M 5.304688 20.351562 L 69 20.351562 L 69 62 L 5.304688 62 Z M 5.304688 20.351562 " clip-rule="nonzero"/>
    </clipPath>
  </defs>
  <g mask="url(#bb13d96574)">
    <g transform="matrix(0.138376, 0, 0, 0.138037, 0.0000015, 3.681817)">
      
    </g>
  </g>
  <g clip-path="url(#eedfc0db59)">
    <path fill="#7d7d7d" d="M 66.171875 24.40625 C 64.394531 22.757812 62.167969 21.957031 59.894531 22.144531 C 58.21875 22.285156 56.644531 22.957031 55.3125 24.070312 C 53.765625 22.890625 51.859375 22.074219 49.699219 21.722656 C 48.792969 21.578125 46.890625 21.507812 45.675781 21.765625 C 42.882812 22.355469 41.023438 24.382812 40.710938 27.183594 C 40.675781 27.492188 40.65625 27.933594 40.648438 28.332031 C 40.507812 28.335938 40.367188 28.339844 40.214844 28.347656 C 39.636719 28.363281 38.589844 28.390625 37.878906 28.410156 C 37.199219 28.425781 36.667969 28.4375 36.1875 28.5 C 35.601562 27.3125 34.855469 26.28125 33.976562 25.464844 C 32.199219 23.816406 29.972656 23.015625 27.699219 23.203125 C 26.195312 23.332031 24.769531 23.882812 23.53125 24.800781 L 22.476562 24.28125 L 20.238281 24.304688 C 19.40625 24.3125 18.347656 24.367188 17.335938 24.449219 C 16.4375 24.523438 15.496094 24.566406 14.1875 24.59375 C 11.992188 24.640625 11.402344 24.652344 10.417969 25.023438 C 8.84375 25.613281 7.582031 26.847656 6.957031 28.40625 C 6.332031 29.960938 6.386719 31.722656 7.113281 33.234375 C 7.734375 34.542969 8.726562 35.511719 10.050781 36.125 L 11.257812 36.679688 L 11.28125 36.679688 C 11.328125 37.800781 11.378906 38.976562 11.425781 39.925781 C 11.511719 41.789062 11.585938 42.121094 11.648438 42.386719 C 12.082031 44.34375 13.492188 45.996094 15.324219 46.703125 C 15.574219 46.796875 15.816406 46.871094 16.054688 46.929688 L 16.023438 50.5625 C 16.003906 52.855469 15.992188 55.308594 16 56.035156 C 16.015625 57.722656 16.035156 59.46875 17.746094 61.210938 C 18.601562 62.078125 19.574219 62.613281 20.8125 62.894531 C 21.371094 63.023438 21.902344 63.058594 22.328125 63.058594 C 22.484375 63.058594 22.625 63.054688 22.75 63.046875 C 23.566406 63 25.929688 62.886719 26.828125 62.851562 C 27.914062 62.808594 28.78125 62.773438 29.867188 62.234375 C 30.089844 62.335938 30.316406 62.429688 30.550781 62.507812 C 31.109375 62.691406 31.726562 62.785156 32.347656 62.785156 C 33.191406 62.785156 34.050781 62.613281 34.800781 62.28125 C 35.394531 62.019531 35.925781 61.671875 36.386719 61.257812 C 36.59375 61.414062 36.8125 61.566406 37.042969 61.710938 C 38.425781 62.574219 39.796875 62.832031 40.960938 62.96875 C 41.257812 63.003906 41.554688 63.019531 41.84375 63.019531 C 43.507812 63.019531 45.019531 62.492188 46.054688 62.003906 C 46.914062 61.601562 48.417969 60.757812 49.574219 59.375 C 50.257812 60.40625 51.238281 61.222656 52.390625 61.664062 C 53.222656 61.984375 54.027344 62.058594 54.558594 62.0625 L 54.566406 62.0625 C 54.582031 62.0625 54.601562 62.0625 54.617188 62.0625 C 55.59375 62.0625 56.386719 61.875 57.265625 61.433594 C 58.652344 60.738281 59.734375 59.515625 60.238281 58.085938 C 60.570312 57.148438 60.578125 56.40625 60.550781 55.460938 C 60.527344 54.707031 60.46875 53.402344 60.351562 50.898438 C 60.867188 50.707031 61.386719 50.429688 61.910156 50.015625 C 63.546875 48.710938 64.394531 46.699219 64.171875 44.636719 C 64.160156 44.546875 64.148438 44.457031 64.136719 44.371094 C 65.304688 43.804688 66.359375 42.949219 67.21875 41.871094 C 68.332031 40.476562 69.128906 38.671875 69.527344 36.648438 C 69.890625 34.78125 69.898438 32.816406 69.550781 30.96875 C 69.042969 28.289062 67.84375 25.960938 66.171875 24.40625 Z M 66.171875 24.40625 " fill-opacity="1" fill-rule="nonzero"/>
  </g>
  <g clip-path="url(#00c664389a)">
    <path fill="#fafafa" d="M 64.945312 23.179688 C 63.171875 21.53125 60.941406 20.730469 58.671875 20.917969 C 56.996094 21.058594 55.417969 21.726562 54.089844 22.84375 C 52.542969 21.664062 50.632812 20.847656 48.476562 20.496094 C 47.566406 20.347656 45.664062 20.28125 44.453125 20.535156 C 41.65625 21.128906 39.800781 23.15625 39.488281 25.957031 C 39.453125 26.261719 39.433594 26.703125 39.421875 27.105469 C 39.285156 27.109375 39.140625 27.113281 38.988281 27.117188 C 38.410156 27.136719 37.363281 27.164062 36.65625 27.179688 C 35.972656 27.195312 35.445312 27.210938 34.964844 27.269531 C 34.378906 26.085938 33.628906 25.054688 32.75 24.238281 C 30.976562 22.589844 28.746094 21.785156 26.472656 21.976562 C 24.96875 22.101562 23.546875 22.65625 22.308594 23.574219 L 21.253906 23.054688 L 19.011719 23.078125 C 18.179688 23.085938 17.121094 23.136719 16.109375 23.222656 C 15.214844 23.296875 14.273438 23.339844 12.960938 23.367188 C 10.765625 23.414062 10.175781 23.425781 9.195312 23.792969 C 7.621094 24.386719 6.355469 25.617188 5.730469 27.179688 C 5.105469 28.734375 5.164062 30.492188 5.886719 32.007812 C 6.511719 33.3125 7.5 34.285156 8.824219 34.898438 L 10.03125 35.453125 L 10.054688 35.453125 C 10.101562 36.574219 10.15625 37.75 10.199219 38.699219 C 10.289062 40.5625 10.363281 40.894531 10.421875 41.160156 C 10.859375 43.117188 12.269531 44.769531 14.097656 45.476562 C 14.347656 45.570312 14.59375 45.644531 14.828125 45.699219 L 14.796875 49.335938 C 14.777344 51.628906 14.769531 54.082031 14.777344 54.808594 C 14.792969 56.496094 14.808594 58.242188 16.523438 59.980469 C 17.375 60.851562 18.351562 61.386719 19.589844 61.667969 C 20.144531 61.796875 20.675781 61.832031 21.101562 61.832031 C 21.257812 61.832031 21.402344 61.828125 21.523438 61.820312 C 22.34375 61.773438 24.703125 61.660156 25.601562 61.625 C 26.691406 61.582031 27.554688 61.546875 28.644531 61.007812 C 28.863281 61.109375 29.089844 61.199219 29.328125 61.277344 C 29.886719 61.464844 30.5 61.554688 31.121094 61.554688 C 31.96875 61.554688 32.824219 61.386719 33.574219 61.054688 C 34.167969 60.792969 34.703125 60.445312 35.160156 60.03125 C 35.367188 60.1875 35.585938 60.335938 35.820312 60.480469 C 37.199219 61.34375 38.574219 61.601562 39.734375 61.742188 C 40.035156 61.777344 40.328125 61.792969 40.621094 61.792969 C 42.28125 61.792969 43.792969 61.265625 44.828125 60.777344 C 45.6875 60.375 47.191406 59.53125 48.351562 58.148438 C 49.03125 59.175781 50.015625 59.992188 51.164062 60.4375 C 51.996094 60.757812 52.804688 60.832031 53.332031 60.835938 L 53.339844 60.835938 C 53.359375 60.835938 53.375 60.835938 53.390625 60.835938 C 54.367188 60.835938 55.160156 60.648438 56.039062 60.207031 C 57.425781 59.511719 58.511719 58.289062 59.015625 56.859375 C 59.34375 55.921875 59.351562 55.179688 59.324219 54.230469 C 59.304688 53.480469 59.246094 52.175781 59.128906 49.667969 C 59.640625 49.480469 60.164062 49.203125 60.683594 48.785156 C 62.324219 47.480469 63.167969 45.472656 62.945312 43.40625 C 62.9375 43.320312 62.925781 43.230469 62.910156 43.140625 C 64.078125 42.574219 65.136719 41.722656 65.996094 40.644531 C 67.109375 39.25 67.90625 37.445312 68.300781 35.421875 C 68.667969 33.554688 68.675781 31.589844 68.324219 29.742188 C 67.816406 27.0625 66.617188 24.730469 64.945312 23.179688 Z M 64.945312 23.179688 " fill-opacity="1" fill-rule="nonzero"/>
  </g>
  <path fill="#000000" d="M 46.753906 39.941406 C 47.027344 39.894531 47.320312 39.835938 47.613281 39.765625 C 47.699219 39.742188 47.785156 39.71875 47.871094 39.699219 C 47.9375 39.679688 47.953125 39.671875 47.964844 39.664062 C 48.230469 39.59375 48.464844 39.519531 48.675781 39.445312 C 49.027344 39.316406 49.371094 39.171875 49.707031 39.003906 C 49.875 38.917969 50.039062 38.828125 50.203125 38.734375 C 50.367188 38.636719 50.523438 38.539062 50.679688 38.417969 C 50.984375 38.183594 51.253906 37.917969 51.519531 37.644531 C 51.648438 37.507812 51.777344 37.367188 51.898438 37.21875 C 52.023438 37.070312 52.144531 36.921875 52.253906 36.757812 C 52.460938 36.433594 52.65625 36.097656 52.824219 35.746094 C 52.992188 35.394531 53.148438 35.03125 53.273438 34.660156 C 53.402344 34.285156 53.515625 33.902344 53.597656 33.511719 C 53.683594 33.117188 53.746094 32.714844 53.78125 32.308594 C 53.789062 32.136719 53.804688 31.964844 53.804688 31.789062 C 53.804688 31.703125 53.808594 31.617188 53.804688 31.53125 C 53.804688 31.445312 53.800781 31.359375 53.796875 31.273438 C 53.777344 30.933594 53.742188 30.59375 53.679688 30.265625 C 53.632812 30.023438 53.570312 29.769531 53.488281 29.507812 C 53.40625 29.25 53.304688 28.988281 53.183594 28.734375 C 53.0625 28.484375 52.925781 28.238281 52.78125 28.015625 C 52.632812 27.789062 52.476562 27.582031 52.320312 27.398438 C 52.328125 27.417969 52.3125 27.402344 52.277344 27.367188 C 52.242188 27.335938 52.1875 27.277344 52.121094 27.210938 C 52.054688 27.144531 51.972656 27.066406 51.882812 26.980469 C 51.792969 26.902344 51.695312 26.816406 51.597656 26.738281 C 51.53125 26.683594 51.464844 26.632812 51.402344 26.585938 C 50.429688 25.8125 49.183594 25.273438 47.742188 25.039062 C 47.148438 24.945312 45.859375 24.945312 45.398438 25.042969 C 44.53125 25.226562 44.144531 25.632812 44.050781 26.472656 C 44.042969 26.554688 44.03125 26.699219 44.023438 26.878906 C 44.019531 26.871094 44.011719 26.878906 43.996094 27.1875 C 44 26.972656 44.007812 26.816406 44.015625 26.65625 C 44.023438 26.574219 44.027344 26.496094 44.039062 26.410156 C 44.050781 26.324219 44.066406 26.230469 44.09375 26.125 C 44.09375 26.121094 44.089844 26.136719 44.082031 26.167969 C 44.074219 26.199219 44.0625 26.246094 44.050781 26.300781 C 44.042969 26.359375 44.035156 26.425781 44.027344 26.5 C 44.019531 26.570312 44.015625 26.648438 44.011719 26.722656 C 43.996094 27.019531 43.992188 27.285156 43.988281 27.136719 C 43.996094 26.933594 44 26.714844 44.019531 26.496094 C 44.039062 26.277344 44.085938 26.054688 44.171875 25.855469 C 44.164062 25.871094 44.144531 25.90625 44.128906 25.953125 C 44.121094 25.980469 44.109375 26.003906 44.097656 26.035156 C 44.089844 26.066406 44.082031 26.097656 44.070312 26.132812 C 44.035156 26.277344 44.007812 26.457031 43.996094 26.628906 C 43.976562 26.96875 43.96875 27.285156 43.964844 27.25 C 43.964844 27.136719 43.976562 26.839844 44 26.558594 C 44.011719 26.414062 44.035156 26.28125 44.058594 26.175781 C 44.070312 26.121094 44.082031 26.078125 44.089844 26.042969 C 44.101562 26.007812 44.109375 25.984375 44.109375 25.972656 C 44.109375 25.96875 44.101562 25.992188 44.085938 26.03125 C 44.074219 26.074219 44.058594 26.128906 44.042969 26.195312 C 44.03125 26.261719 44.015625 26.332031 44.007812 26.402344 C 44.003906 26.433594 44 26.460938 43.996094 26.488281 C 44.023438 26.199219 44.09375 25.945312 44.191406 25.753906 C 44.304688 25.535156 44.445312 25.40625 44.523438 25.34375 C 44.558594 25.308594 44.582031 25.289062 44.589844 25.285156 C 44.59375 25.277344 44.578125 25.285156 44.546875 25.308594 C 44.527344 25.320312 44.503906 25.339844 44.476562 25.359375 C 44.449219 25.378906 44.421875 25.410156 44.382812 25.441406 C 44.335938 25.492188 44.277344 25.558594 44.21875 25.644531 C 44.257812 25.582031 44.308594 25.515625 44.363281 25.457031 C 44.453125 25.363281 44.558594 25.28125 44.675781 25.210938 C 44.878906 25.09375 45.097656 25.023438 45.296875 24.976562 C 45.203125 25 45.085938 25.027344 44.976562 25.070312 C 44.898438 25.097656 44.824219 25.128906 44.757812 25.164062 C 44.9375 25.070312 45.132812 25.011719 45.328125 24.964844 C 45.285156 24.972656 45.242188 24.980469 45.195312 24.992188 C 45.125 25.011719 45.050781 25.03125 44.980469 25.058594 C 45.027344 25.039062 45.074219 25.023438 45.125 25.007812 C 45 25.039062 44.855469 25.085938 44.707031 25.160156 C 44.566406 25.234375 44.4375 25.328125 44.332031 25.441406 C 44.222656 25.554688 44.140625 25.683594 44.082031 25.808594 C 43.964844 26.0625 43.929688 26.296875 43.910156 26.460938 C 43.890625 26.628906 43.886719 26.789062 43.878906 26.953125 C 43.871094 27.113281 43.867188 27.273438 43.863281 27.4375 C 43.855469 27.757812 43.855469 28.082031 43.859375 28.40625 C 43.863281 29.050781 43.875 29.695312 43.890625 30.339844 C 43.917969 31.628906 43.949219 32.917969 43.996094 34.203125 C 44.003906 34.207031 44.003906 34.070312 44.015625 34.28125 C 44.019531 34.367188 44.023438 34.449219 44.027344 34.527344 C 44.027344 34.609375 44.03125 34.6875 44.039062 34.769531 C 44.042969 34.925781 44.042969 35.074219 44.046875 35.226562 C 44.050781 35.527344 44.058594 35.828125 44.070312 36.160156 C 44.074219 36.175781 44.078125 36.191406 44.082031 36.207031 C 44.089844 36.722656 44.089844 37.265625 44.109375 37.820312 C 44.125 38.078125 44.144531 38.34375 44.203125 38.601562 C 44.230469 38.726562 44.261719 38.855469 44.308594 38.988281 C 44.355469 39.121094 44.433594 39.25 44.519531 39.359375 C 44.558594 39.414062 44.605469 39.464844 44.648438 39.511719 C 44.695312 39.5625 44.742188 39.609375 44.796875 39.65625 C 44.902344 39.746094 45.019531 39.824219 45.144531 39.886719 C 45.273438 39.945312 45.40625 39.984375 45.546875 40.007812 C 45.683594 40.03125 45.816406 40.035156 45.945312 40.03125 C 45.917969 40.027344 45.90625 40.027344 46.011719 40.023438 C 46.226562 40.015625 46.480469 39.984375 46.753906 39.941406 Z M 44.886719 25.09375 L 44.875 25.097656 C 44.878906 25.09375 44.882812 25.09375 44.886719 25.09375 Z M 44.761719 25.148438 C 44.761719 25.148438 44.761719 25.148438 44.761719 25.152344 C 44.761719 25.148438 44.761719 25.148438 44.761719 25.148438 Z M 44.191406 25.6875 C 44.195312 25.679688 44.203125 25.671875 44.207031 25.664062 C 44.203125 25.671875 44.195312 25.679688 44.191406 25.6875 Z M 49.367188 28.617188 C 49.9375 29 50.339844 29.460938 50.589844 30.011719 C 50.800781 30.480469 50.867188 30.761719 50.878906 31.34375 C 50.871094 31.335938 50.867188 31.34375 50.863281 31.507812 C 50.859375 31.28125 50.859375 31.164062 50.839844 30.9375 C 50.832031 30.925781 50.851562 31.101562 50.855469 31.257812 C 50.859375 31.417969 50.859375 31.558594 50.851562 31.480469 C 50.855469 31.261719 50.839844 31.015625 50.808594 30.792969 C 50.808594 30.832031 50.832031 31.027344 50.835938 31.207031 C 50.839844 31.390625 50.839844 31.558594 50.832031 31.542969 C 50.832031 31.480469 50.835938 31.320312 50.828125 31.171875 C 50.828125 31.023438 50.8125 30.882812 50.800781 30.863281 C 50.796875 30.855469 50.820312 31.078125 50.824219 31.191406 C 50.8125 31.019531 50.796875 30.867188 50.773438 30.746094 C 50.75 30.628906 50.722656 30.539062 50.703125 30.492188 C 50.683594 30.445312 50.679688 30.4375 50.6875 30.476562 C 50.695312 30.519531 50.71875 30.609375 50.742188 30.761719 C 50.722656 30.65625 50.695312 30.53125 50.652344 30.40625 C 50.613281 30.28125 50.5625 30.15625 50.511719 30.050781 C 50.5625 30.15625 50.632812 30.339844 50.664062 30.441406 C 50.625 30.320312 50.574219 30.199219 50.519531 30.078125 C 50.527344 30.097656 50.535156 30.121094 50.542969 30.144531 C 50.578125 30.234375 50.613281 30.324219 50.644531 30.421875 C 50.617188 30.339844 50.585938 30.257812 50.554688 30.179688 C 50.574219 30.242188 50.597656 30.3125 50.617188 30.390625 C 50.710938 30.675781 50.722656 30.964844 50.730469 31.132812 C 50.738281 31.300781 50.738281 31.472656 50.734375 31.640625 C 50.734375 31.808594 50.722656 31.980469 50.710938 32.148438 C 50.679688 32.484375 50.621094 32.816406 50.53125 33.140625 C 50.445312 33.464844 50.328125 33.785156 50.1875 34.09375 C 50.046875 34.398438 49.890625 34.699219 49.703125 34.976562 C 49.707031 34.980469 49.753906 34.925781 49.695312 35.019531 C 49.644531 35.09375 49.597656 35.160156 49.546875 35.222656 C 49.496094 35.28125 49.445312 35.34375 49.390625 35.402344 C 49.339844 35.457031 49.285156 35.515625 49.226562 35.566406 C 49.199219 35.59375 49.167969 35.621094 49.140625 35.652344 C 49.109375 35.679688 49.078125 35.707031 49.042969 35.734375 C 49.039062 35.742188 49.035156 35.75 49.03125 35.757812 C 48.824219 35.925781 48.585938 36.074219 48.328125 36.195312 C 48.09375 36.316406 47.847656 36.410156 47.59375 36.5 L 47.40625 36.566406 L 47.3125 36.597656 L 47.265625 36.609375 L 47.234375 36.621094 C 47.234375 36.621094 47.226562 36.621094 47.226562 36.617188 L 47.226562 36.613281 C 47.226562 36.613281 47.226562 36.617188 47.222656 36.601562 L 47.21875 36.511719 C 47.214844 36.523438 47.210938 36.53125 47.207031 36.480469 C 47.195312 36.257812 47.1875 35.945312 47.179688 35.625 C 47.179688 35.574219 47.175781 35.527344 47.175781 35.480469 C 47.171875 35.445312 47.167969 35.433594 47.164062 35.429688 C 47.164062 35.285156 47.160156 35.152344 47.15625 35.035156 C 47.089844 33.449219 47.019531 31.84375 46.945312 30.101562 C 46.925781 29.730469 46.90625 29.363281 46.890625 29.007812 C 46.886719 28.828125 46.878906 28.628906 46.871094 28.425781 C 46.867188 28.238281 46.863281 28.050781 46.859375 27.867188 C 46.960938 27.878906 47.164062 27.894531 47.3125 27.914062 C 47.296875 27.90625 47.359375 27.902344 47.460938 27.914062 C 47.5625 27.925781 47.699219 27.945312 47.832031 27.972656 C 47.871094 27.980469 47.910156 27.988281 47.945312 27.996094 C 48.464844 28.140625 48.996094 28.367188 49.367188 28.617188 Z M 49.367188 28.617188 " fill-opacity="1" fill-rule="nonzero"/>
  <path fill="#000000" d="M 45.378906 24.957031 C 45.355469 24.960938 45.328125 24.96875 45.304688 24.976562 C 45.328125 24.96875 45.355469 24.960938 45.382812 24.957031 C 45.382812 24.957031 45.378906 24.957031 45.378906 24.957031 Z M 45.378906 24.957031 " fill-opacity="1" fill-rule="nonzero"/>
  <path fill="#000000" d="M 31.625 57.042969 C 31.65625 57.035156 31.6875 57.023438 31.71875 57.011719 C 31.75 57 31.785156 56.988281 31.808594 56.972656 C 31.925781 56.921875 32.035156 56.851562 32.136719 56.773438 C 32.238281 56.695312 32.332031 56.601562 32.410156 56.496094 C 32.484375 56.390625 32.546875 56.277344 32.597656 56.15625 C 32.59375 56.15625 32.582031 56.175781 32.578125 56.183594 C 32.570312 56.1875 32.578125 56.171875 32.601562 56.089844 C 32.6875 55.839844 32.707031 55.601562 32.703125 55.371094 C 32.703125 55.253906 32.691406 55.140625 32.679688 55.03125 C 32.667969 54.921875 32.660156 54.808594 32.648438 54.691406 C 32.644531 54.679688 32.640625 54.667969 32.636719 54.65625 C 32.613281 54.285156 32.605469 53.898438 32.597656 53.5 C 32.582031 52.765625 32.5625 52.039062 32.542969 51.3125 C 32.539062 51.332031 32.535156 51.339844 32.535156 51.269531 C 32.523438 50.964844 32.515625 50.546875 32.507812 50.113281 C 32.507812 50.046875 32.503906 49.984375 32.503906 49.921875 C 32.5 49.871094 32.496094 49.859375 32.492188 49.851562 C 32.488281 49.65625 32.484375 49.480469 32.480469 49.320312 C 32.464844 48.789062 32.457031 48.257812 32.453125 47.71875 C 32.453125 47.179688 32.453125 46.636719 32.464844 46.089844 C 32.46875 45.953125 32.472656 45.816406 32.480469 45.679688 C 32.484375 45.609375 32.492188 45.546875 32.496094 45.476562 C 32.503906 45.40625 32.503906 45.332031 32.507812 45.261719 C 32.511719 44.976562 32.476562 44.671875 32.339844 44.402344 C 32.066406 43.855469 31.433594 43.527344 30.824219 43.617188 C 30.695312 43.636719 30.570312 43.671875 30.453125 43.722656 C 30.335938 43.777344 30.222656 43.839844 30.125 43.921875 L 30.085938 43.949219 L 30.050781 43.984375 L 29.980469 44.046875 C 29.9375 44.09375 29.894531 44.140625 29.855469 44.1875 C 29.777344 44.285156 29.714844 44.398438 29.671875 44.511719 C 29.605469 44.683594 29.574219 44.875 29.546875 45.070312 C 29.523438 45.265625 29.503906 45.464844 29.492188 45.667969 C 29.464844 46.066406 29.441406 46.464844 29.4375 46.808594 C 29.453125 46.757812 29.460938 47.152344 29.472656 47.515625 C 29.476562 47.574219 29.476562 47.628906 29.480469 47.683594 C 29.484375 48.363281 29.5 49.148438 29.53125 49.972656 C 29.542969 50.289062 29.5625 51.335938 29.578125 52.296875 C 29.589844 53.042969 29.601562 53.644531 29.625 54.140625 C 29.617188 54.136719 29.609375 54.144531 29.613281 54.363281 C 29.601562 54.058594 29.59375 53.902344 29.585938 53.597656 C 29.582031 53.578125 29.589844 53.816406 29.597656 54.027344 C 29.605469 54.242188 29.613281 54.433594 29.601562 54.328125 C 29.59375 54.035156 29.574219 53.703125 29.566406 53.398438 C 29.5625 53.449219 29.570312 53.714844 29.574219 53.960938 C 29.582031 54.207031 29.59375 54.433594 29.585938 54.414062 C 29.570312 54.246094 29.570312 53.550781 29.554688 53.492188 C 29.550781 53.480469 29.558594 53.785156 29.5625 53.941406 C 29.542969 53.46875 29.53125 53.101562 29.523438 52.960938 C 29.511719 52.820312 29.503906 52.90625 29.507812 53.339844 C 29.503906 53.039062 29.496094 52.617188 29.492188 52.300781 C 29.492188 52.460938 29.496094 52.730469 29.496094 52.878906 C 29.496094 52.699219 29.492188 52.519531 29.488281 52.339844 C 29.488281 52.367188 29.484375 52.398438 29.484375 52.433594 C 29.484375 52.566406 29.484375 52.703125 29.488281 52.84375 C 29.484375 52.722656 29.484375 52.605469 29.480469 52.484375 C 29.476562 52.574219 29.472656 52.675781 29.46875 52.789062 C 29.46875 53.214844 29.460938 53.621094 29.46875 53.851562 C 29.484375 54.320312 29.5 54.785156 29.546875 55.253906 C 29.570312 55.488281 29.597656 55.726562 29.65625 55.964844 C 29.6875 56.085938 29.734375 56.210938 29.796875 56.324219 C 29.863281 56.4375 29.941406 56.542969 30.03125 56.636719 C 30.214844 56.816406 30.4375 56.953125 30.671875 57.039062 L 30.71875 57.054688 L 30.769531 57.070312 C 30.800781 57.078125 30.835938 57.085938 30.867188 57.089844 C 30.933594 57.101562 31 57.105469 31.0625 57.109375 C 31.1875 57.113281 31.3125 57.105469 31.4375 57.082031 C 31.5 57.074219 31.5625 57.0625 31.625 57.042969 Z M 31.625 57.042969 " fill-opacity="1" fill-rule="nonzero"/>
  <path fill="#000000" d="M 17.636719 37.316406 C 17.621094 37.410156 17.566406 36.585938 17.523438 35.972656 C 17.503906 35.5 17.476562 34.976562 17.449219 34.390625 C 17.414062 33.605469 17.371094 32.433594 17.351562 31.785156 L 17.320312 30.605469 L 17.660156 30.578125 C 17.847656 30.5625 18.488281 30.535156 19.082031 30.519531 C 20.261719 30.488281 20.472656 30.453125 20.761719 30.222656 C 21.078125 29.96875 21.257812 29.632812 21.308594 29.289062 C 21.3125 29.292969 21.316406 29.292969 21.324219 29.246094 C 21.328125 29.222656 21.332031 29.191406 21.335938 29.140625 C 21.339844 29.09375 21.335938 29.027344 21.335938 28.945312 C 21.359375 29.183594 21.320312 29.367188 21.265625 29.535156 L 21.246094 29.601562 C 21.238281 29.621094 21.230469 29.644531 21.21875 29.664062 C 21.199219 29.707031 21.175781 29.746094 21.15625 29.789062 C 21.101562 29.875 21.046875 29.964844 20.964844 30.050781 C 20.960938 30.058594 20.972656 30.042969 21 30.015625 C 21.011719 30.003906 21.023438 29.988281 21.042969 29.964844 C 21.058594 29.945312 21.074219 29.921875 21.09375 29.894531 C 21.109375 29.867188 21.128906 29.835938 21.152344 29.804688 C 21.167969 29.773438 21.1875 29.738281 21.203125 29.699219 C 21.214844 29.683594 21.222656 29.664062 21.230469 29.644531 C 21.238281 29.625 21.246094 29.605469 21.253906 29.585938 C 21.265625 29.546875 21.28125 29.503906 21.292969 29.464844 C 21.300781 29.425781 21.3125 29.382812 21.320312 29.34375 C 21.324219 29.324219 21.328125 29.304688 21.332031 29.289062 C 21.332031 29.269531 21.332031 29.25 21.335938 29.230469 C 21.339844 29.195312 21.339844 29.160156 21.34375 29.128906 C 21.34375 29.097656 21.34375 29.070312 21.34375 29.046875 C 21.339844 28.949219 21.339844 28.917969 21.347656 29 C 21.359375 29.230469 21.316406 29.480469 21.210938 29.707031 C 21.105469 29.933594 20.933594 30.125 20.746094 30.273438 C 20.753906 30.265625 20.765625 30.257812 20.78125 30.246094 C 20.796875 30.234375 20.816406 30.21875 20.839844 30.199219 C 20.882812 30.160156 20.9375 30.117188 20.992188 30.050781 C 21.105469 29.933594 21.210938 29.757812 21.277344 29.574219 C 21.3125 29.480469 21.332031 29.386719 21.347656 29.300781 C 21.351562 29.257812 21.355469 29.214844 21.359375 29.175781 C 21.363281 29.15625 21.363281 29.136719 21.367188 29.117188 C 21.367188 29.097656 21.363281 29.082031 21.363281 29.066406 C 21.363281 28.929688 21.347656 28.851562 21.355469 28.867188 C 21.359375 28.898438 21.367188 28.945312 21.367188 29.003906 C 21.371094 29.058594 21.375 29.125 21.367188 29.195312 C 21.363281 29.230469 21.359375 29.265625 21.355469 29.304688 C 21.347656 29.34375 21.335938 29.382812 21.328125 29.417969 C 21.324219 29.4375 21.320312 29.460938 21.316406 29.476562 L 21.296875 29.535156 C 21.28125 29.574219 21.269531 29.613281 21.253906 29.648438 C 21.125 29.945312 20.902344 30.15625 20.867188 30.191406 C 20.867188 30.195312 20.886719 30.175781 20.921875 30.144531 C 20.941406 30.128906 20.957031 30.109375 20.980469 30.085938 C 21 30.058594 21.023438 30.035156 21.046875 30.003906 C 21.074219 29.976562 21.09375 29.945312 21.117188 29.910156 C 21.132812 29.886719 21.152344 29.859375 21.167969 29.835938 C 21.117188 29.921875 21.0625 29.996094 21.003906 30.0625 C 20.953125 30.128906 20.890625 30.179688 20.835938 30.230469 C 20.78125 30.28125 20.722656 30.324219 20.667969 30.359375 C 20.550781 30.433594 20.429688 30.472656 20.335938 30.492188 C 20.238281 30.515625 20.164062 30.527344 20.109375 30.535156 C 20 30.550781 19.980469 30.554688 20.070312 30.550781 C 20.113281 30.546875 20.1875 30.542969 20.292969 30.523438 C 20.347656 30.515625 20.40625 30.503906 20.476562 30.480469 C 20.523438 30.464844 20.578125 30.445312 20.632812 30.417969 C 20.597656 30.4375 20.5625 30.453125 20.523438 30.46875 C 20.457031 30.492188 20.390625 30.511719 20.320312 30.523438 C 20.183594 30.554688 20.039062 30.566406 19.898438 30.574219 C 19.613281 30.59375 19.328125 30.597656 19.082031 30.605469 C 19.085938 30.605469 19.085938 30.605469 19.085938 30.605469 C 19.273438 30.601562 19.566406 30.597656 19.796875 30.585938 C 19.578125 30.597656 19.363281 30.601562 19.144531 30.609375 C 19.1875 30.609375 19.238281 30.609375 19.289062 30.613281 C 19.433594 30.609375 19.574219 30.605469 19.722656 30.597656 C 19.605469 30.605469 19.488281 30.609375 19.371094 30.613281 C 19.507812 30.613281 19.667969 30.613281 19.84375 30.605469 C 20.007812 30.597656 20.175781 30.585938 20.339844 30.554688 C 20.421875 30.539062 20.507812 30.519531 20.585938 30.484375 C 20.664062 30.449219 20.738281 30.40625 20.800781 30.359375 C 20.921875 30.265625 21.027344 30.167969 21.109375 30.070312 C 21.121094 30.054688 21.132812 30.042969 21.140625 30.03125 C 21.152344 30.019531 21.160156 30.007812 21.167969 29.996094 C 21.1875 29.96875 21.203125 29.945312 21.21875 29.921875 C 21.234375 29.894531 21.25 29.875 21.265625 29.851562 C 21.277344 29.828125 21.289062 29.804688 21.296875 29.78125 C 21.515625 29.363281 21.527344 28.835938 21.308594 28.410156 C 21.203125 28.195312 21.046875 28.007812 20.859375 27.863281 C 20.769531 27.789062 20.660156 27.734375 20.5625 27.679688 L 20.242188 27.519531 L 19.453125 27.527344 C 19.203125 27.527344 18.953125 27.527344 18.699219 27.535156 C 18.195312 27.546875 17.691406 27.570312 17.1875 27.601562 C 16.9375 27.617188 16.6875 27.636719 16.433594 27.65625 C 16.1875 27.675781 15.9375 27.695312 15.6875 27.710938 C 15.1875 27.742188 14.691406 27.761719 14.191406 27.78125 C 14.1875 27.785156 14.339844 27.789062 14.101562 27.800781 C 13.359375 27.828125 12.757812 27.816406 12.011719 27.84375 C 11.996094 27.847656 11.976562 27.851562 11.957031 27.855469 C 11.8125 27.859375 11.667969 27.863281 11.519531 27.867188 C 11.371094 27.871094 11.21875 27.875 11.0625 27.894531 C 10.984375 27.902344 10.898438 27.917969 10.816406 27.941406 C 10.773438 27.957031 10.734375 27.972656 10.695312 27.988281 C 10.660156 28.003906 10.617188 28.019531 10.582031 28.039062 C 10.433594 28.113281 10.292969 28.21875 10.171875 28.339844 C 9.777344 28.738281 9.632812 29.367188 9.816406 29.898438 C 9.839844 29.964844 9.867188 30.03125 9.894531 30.09375 C 9.925781 30.152344 9.957031 30.214844 9.992188 30.273438 C 10.066406 30.390625 10.160156 30.5 10.265625 30.59375 C 10.375 30.6875 10.492188 30.757812 10.613281 30.816406 C 10.675781 30.847656 10.730469 30.875 10.789062 30.898438 L 10.988281 30.992188 C 11.121094 30.992188 11.25 30.988281 11.378906 30.988281 C 11.351562 30.984375 11.335938 30.980469 11.449219 30.980469 C 11.914062 30.972656 12.558594 30.972656 13.230469 30.96875 C 13.328125 30.964844 13.425781 30.964844 13.523438 30.964844 C 13.601562 30.960938 13.621094 30.957031 13.632812 30.953125 C 13.894531 30.953125 14.125 30.953125 14.339844 30.953125 L 14.34375 30.953125 L 14.347656 30.976562 L 14.351562 31.128906 L 14.363281 31.4375 C 14.371094 31.640625 14.378906 31.847656 14.390625 32.054688 C 14.410156 32.464844 14.429688 32.878906 14.449219 33.292969 C 14.492188 34.125 14.53125 34.960938 14.574219 35.808594 C 14.613281 36.652344 14.65625 37.511719 14.699219 38.382812 C 14.71875 38.820312 14.746094 39.257812 14.78125 39.699219 C 14.789062 39.8125 14.800781 39.921875 14.8125 40.035156 L 14.824219 40.121094 C 14.824219 40.132812 14.828125 40.152344 14.832031 40.167969 L 14.839844 40.210938 C 14.855469 40.265625 14.875 40.324219 14.894531 40.378906 C 14.980469 40.597656 15.113281 40.796875 15.285156 40.960938 C 15.429688 41.09375 15.605469 41.203125 15.800781 41.261719 C 15.992188 41.316406 16.191406 41.332031 16.382812 41.324219 C 16.480469 41.324219 16.582031 41.316406 16.675781 41.289062 C 16.773438 41.257812 16.859375 41.214844 16.945312 41.171875 C 17.117188 41.082031 17.269531 40.960938 17.394531 40.816406 C 17.488281 40.710938 17.570312 40.589844 17.632812 40.453125 C 17.660156 40.382812 17.6875 40.3125 17.699219 40.234375 C 17.714844 40.15625 17.71875 40.082031 17.71875 40.003906 C 17.726562 39.699219 17.714844 39.390625 17.707031 39.082031 C 17.683594 38.460938 17.660156 37.847656 17.636719 37.316406 Z M 21.214844 29.75 C 21.21875 29.742188 21.222656 29.734375 21.226562 29.726562 C 21.222656 29.734375 21.21875 29.742188 21.214844 29.75 Z M 21.214844 29.75 " fill-opacity="1" fill-rule="nonzero"/>
  <path fill="#000000" d="M 20.285156 57.210938 C 20.355469 57.234375 20.421875 57.257812 20.492188 57.273438 C 20.527344 57.285156 20.558594 57.292969 20.59375 57.300781 C 20.628906 57.3125 20.664062 57.316406 20.699219 57.324219 C 20.839844 57.347656 20.972656 57.359375 21.097656 57.363281 C 21.160156 57.363281 21.222656 57.363281 21.28125 57.359375 C 21.335938 57.359375 21.390625 57.359375 21.441406 57.355469 C 21.539062 57.351562 21.628906 57.347656 21.707031 57.347656 C 22.917969 57.292969 24.132812 57.234375 25.347656 57.179688 L 25.804688 57.160156 C 25.960938 57.15625 26.109375 57.148438 26.269531 57.132812 C 26.351562 57.125 26.4375 57.109375 26.523438 57.082031 C 26.570312 57.070312 26.613281 57.050781 26.648438 57.035156 C 26.6875 57.015625 26.722656 56.996094 26.757812 56.976562 C 26.90625 56.894531 27.042969 56.796875 27.160156 56.671875 C 27.277344 56.550781 27.371094 56.40625 27.441406 56.25 C 27.507812 56.09375 27.546875 55.925781 27.5625 55.761719 C 27.578125 55.59375 27.574219 55.429688 27.542969 55.261719 C 27.527344 55.179688 27.503906 55.09375 27.476562 55.015625 C 27.445312 54.9375 27.40625 54.859375 27.363281 54.785156 C 27.359375 54.785156 27.375 54.816406 27.375 54.824219 C 27.378906 54.832031 27.367188 54.8125 27.304688 54.722656 C 27.207031 54.578125 27.085938 54.457031 26.964844 54.359375 C 26.90625 54.3125 26.839844 54.261719 26.769531 54.222656 C 26.695312 54.179688 26.617188 54.148438 26.539062 54.125 C 26.386719 54.078125 26.234375 54.0625 26.082031 54.050781 C 25.929688 54.042969 25.777344 54.039062 25.617188 54.042969 C 25.601562 54.046875 25.585938 54.046875 25.570312 54.050781 C 25.324219 54.046875 25.074219 54.058594 24.820312 54.0625 C 24.566406 54.070312 24.304688 54.074219 24.046875 54.082031 C 23.804688 54.089844 23.5625 54.097656 23.324219 54.105469 C 23.085938 54.117188 22.847656 54.128906 22.609375 54.136719 L 22.429688 54.144531 L 22.34375 54.144531 C 22.339844 54.148438 22.339844 54.144531 22.339844 54.140625 L 22.339844 54.003906 C 22.339844 53.765625 22.339844 53.527344 22.34375 53.289062 C 22.339844 53.316406 22.335938 53.328125 22.335938 53.230469 C 22.335938 52.835938 22.347656 52.285156 22.355469 51.71875 C 22.355469 51.632812 22.355469 51.546875 22.355469 51.464844 C 22.355469 51.402344 22.351562 51.382812 22.347656 51.375 C 22.351562 51.117188 22.351562 50.886719 22.355469 50.675781 C 22.351562 49.976562 22.351562 49.273438 22.351562 48.566406 C 22.347656 47.859375 22.351562 47.148438 22.339844 46.425781 C 22.335938 46.246094 22.332031 46.066406 22.328125 45.882812 C 22.324219 45.699219 22.320312 45.519531 22.304688 45.332031 C 22.296875 45.238281 22.285156 45.136719 22.246094 45.039062 C 22.226562 44.988281 22.210938 44.945312 22.1875 44.902344 L 22.117188 44.777344 C 22.015625 44.609375 21.878906 44.460938 21.71875 44.347656 C 21.398438 44.117188 20.980469 44.027344 20.589844 44.097656 C 20.199219 44.167969 19.835938 44.402344 19.617188 44.738281 C 19.589844 44.777344 19.566406 44.820312 19.542969 44.859375 C 19.523438 44.898438 19.5 44.941406 19.480469 44.984375 C 19.441406 45.070312 19.402344 45.15625 19.367188 45.242188 C 19.367188 45.714844 19.367188 46.1875 19.367188 46.644531 C 19.359375 47.570312 19.347656 48.757812 19.339844 49.660156 C 19.359375 49.589844 19.371094 50.152344 19.382812 50.644531 C 19.367188 52.484375 19.363281 54.195312 19.367188 54.761719 C 19.382812 56.21875 19.414062 56.367188 19.792969 56.75 C 20.03125 56.992188 20.21875 57.089844 20.609375 57.179688 C 20.785156 57.222656 21.035156 57.238281 21.261719 57.222656 C 21.464844 57.214844 21.75 57.199219 22.085938 57.179688 C 22.078125 57.1875 22.023438 57.199219 22.371094 57.191406 C 21.96875 57.210938 21.769531 57.21875 21.367188 57.238281 C 21.324219 57.25 22.601562 57.171875 22.324219 57.203125 C 22.132812 57.210938 21.929688 57.222656 21.722656 57.230469 C 21.515625 57.242188 21.308594 57.257812 21.105469 57.261719 C 21.175781 57.269531 21.523438 57.25 21.847656 57.238281 C 22.167969 57.222656 22.464844 57.210938 22.433594 57.21875 C 22.21875 57.230469 21.308594 57.253906 21.230469 57.273438 C 21.21875 57.277344 21.617188 57.257812 21.816406 57.25 C 21.664062 57.257812 21.519531 57.265625 21.382812 57.273438 C 21.25 57.28125 21.121094 57.289062 21.011719 57.285156 C 20.898438 57.28125 20.800781 57.273438 20.71875 57.265625 C 20.636719 57.253906 20.570312 57.238281 20.523438 57.230469 C 20.433594 57.207031 20.414062 57.207031 20.488281 57.230469 C 20.558594 57.253906 20.734375 57.308594 21.023438 57.320312 C 20.921875 57.316406 20.8125 57.308594 20.695312 57.289062 C 20.574219 57.265625 20.460938 57.238281 20.339844 57.199219 C 20.222656 57.160156 20.101562 57.105469 20 57.035156 C 19.894531 56.96875 19.808594 56.886719 19.730469 56.8125 C 19.730469 56.8125 19.734375 56.8125 19.734375 56.8125 C 19.808594 56.890625 19.917969 56.992188 20.046875 57.070312 C 20.09375 57.097656 20.144531 57.125 20.191406 57.144531 C 20.148438 57.125 20.105469 57.105469 20.0625 57.082031 C 19.953125 57.019531 19.855469 56.9375 19.765625 56.851562 C 19.792969 56.878906 19.824219 56.914062 19.859375 56.945312 C 19.921875 57 19.988281 57.046875 20.0625 57.089844 C 20.011719 57.0625 19.960938 57.03125 19.910156 56.992188 C 20.007812 57.074219 20.136719 57.152344 20.285156 57.210938 Z M 20.265625 57.175781 C 20.242188 57.164062 20.21875 57.15625 20.191406 57.144531 C 20.21875 57.15625 20.242188 57.167969 20.265625 57.175781 Z M 20.328125 57.199219 C 20.320312 57.195312 20.3125 57.191406 20.304688 57.1875 C 20.3125 57.191406 20.320312 57.195312 20.328125 57.199219 Z M 20.144531 57.132812 C 20.132812 57.128906 20.121094 57.121094 20.109375 57.117188 C 20.121094 57.121094 20.132812 57.128906 20.144531 57.132812 Z M 20.265625 57.183594 C 20.253906 57.179688 20.242188 57.175781 20.230469 57.171875 C 20.242188 57.175781 20.253906 57.179688 20.265625 57.183594 Z M 20.265625 57.183594 " fill-opacity="1" fill-rule="nonzero"/>
  <path fill="#000000" d="M 40.5625 42.222656 C 40.339844 42.273438 40.125 42.339844 39.910156 42.414062 C 39.695312 42.488281 39.484375 42.570312 39.28125 42.667969 C 39.074219 42.765625 38.875 42.875 38.683594 43 C 38.683594 43.003906 38.722656 42.980469 38.734375 42.976562 C 38.742188 42.972656 38.722656 42.988281 38.597656 43.074219 C 38.207031 43.339844 37.882812 43.628906 37.609375 43.964844 C 37.472656 44.128906 37.347656 44.308594 37.234375 44.496094 C 37.125 44.6875 37.019531 44.890625 36.933594 45.113281 C 36.929688 45.136719 36.925781 45.160156 36.917969 45.183594 C 36.785156 45.527344 36.699219 45.898438 36.671875 46.285156 C 36.65625 46.476562 36.660156 46.671875 36.679688 46.867188 C 36.695312 47.0625 36.730469 47.257812 36.785156 47.449219 C 36.980469 48.15625 37.40625 48.785156 37.945312 49.261719 C 38.082031 49.378906 38.222656 49.492188 38.371094 49.59375 C 38.445312 49.644531 38.515625 49.695312 38.589844 49.742188 C 38.664062 49.789062 38.738281 49.835938 38.816406 49.882812 C 39.128906 50.0625 39.449219 50.203125 39.765625 50.34375 C 39.734375 50.324219 39.71875 50.316406 39.847656 50.371094 C 40.109375 50.484375 40.425781 50.617188 40.765625 50.773438 C 41.101562 50.929688 41.460938 51.109375 41.792969 51.328125 C 41.894531 51.394531 41.988281 51.460938 42.078125 51.535156 C 42.148438 51.589844 42.164062 51.601562 42.175781 51.609375 C 42.304688 51.730469 42.410156 51.859375 42.496094 51.992188 C 42.515625 52.023438 42.535156 52.054688 42.554688 52.089844 C 42.570312 52.125 42.589844 52.15625 42.605469 52.191406 C 42.621094 52.226562 42.632812 52.261719 42.648438 52.292969 C 42.664062 52.328125 42.671875 52.359375 42.683594 52.394531 C 42.703125 52.449219 42.710938 52.503906 42.722656 52.558594 C 42.730469 52.585938 42.730469 52.617188 42.730469 52.644531 C 42.734375 52.671875 42.738281 52.699219 42.734375 52.726562 L 42.730469 52.808594 C 42.730469 52.835938 42.71875 52.863281 42.714844 52.890625 C 42.710938 52.945312 42.683594 52.996094 42.667969 53.046875 C 42.582031 53.253906 42.414062 53.425781 42.222656 53.570312 C 42.03125 53.71875 41.8125 53.835938 41.585938 53.9375 C 41.472656 53.988281 41.355469 54.035156 41.238281 54.078125 C 41.121094 54.121094 41.003906 54.160156 40.886719 54.183594 C 40.769531 54.207031 40.65625 54.214844 40.535156 54.207031 C 40.414062 54.203125 40.292969 54.183594 40.167969 54.15625 C 40.046875 54.132812 39.929688 54.105469 39.828125 54.054688 C 39.773438 54.03125 39.722656 54 39.671875 53.96875 L 39.507812 53.859375 C 39.398438 53.789062 39.28125 53.71875 39.152344 53.667969 C 39.023438 53.609375 38.886719 53.574219 38.746094 53.558594 C 38.46875 53.53125 38.179688 53.578125 37.929688 53.703125 C 37.675781 53.828125 37.460938 54.027344 37.3125 54.265625 C 37.164062 54.503906 37.082031 54.785156 37.085938 55.070312 C 37.082031 55.355469 37.167969 55.636719 37.328125 55.875 C 37.484375 56.113281 37.699219 56.296875 37.921875 56.457031 C 38.144531 56.617188 38.378906 56.761719 38.636719 56.871094 C 38.894531 56.980469 39.164062 57.054688 39.433594 57.113281 C 39.703125 57.171875 39.980469 57.210938 40.253906 57.242188 C 40.324219 57.246094 40.394531 57.25 40.464844 57.253906 C 40.5 57.257812 40.539062 57.261719 40.574219 57.261719 L 40.679688 57.257812 C 40.75 57.253906 40.820312 57.253906 40.890625 57.246094 L 41.101562 57.222656 C 41.578125 57.15625 42.035156 57.019531 42.472656 56.84375 C 42.910156 56.667969 43.324219 56.449219 43.710938 56.203125 C 43.855469 56.113281 43.992188 56.007812 44.140625 55.902344 C 44.28125 55.789062 44.425781 55.675781 44.558594 55.542969 C 44.828125 55.285156 45.074219 54.976562 45.257812 54.640625 C 45.449219 54.304688 45.59375 53.941406 45.675781 53.578125 C 45.761719 53.214844 45.785156 52.855469 45.769531 52.523438 C 45.765625 52.546875 45.761719 52.519531 45.753906 52.453125 C 45.742188 52.386719 45.734375 52.277344 45.710938 52.148438 C 45.667969 51.886719 45.582031 51.53125 45.449219 51.210938 C 45.40625 51.113281 45.363281 51.019531 45.320312 50.929688 C 45.085938 50.433594 44.753906 49.964844 44.320312 49.535156 C 43.699219 48.917969 42.816406 48.390625 41.355469 47.765625 C 40.445312 47.375 40.121094 47.195312 39.890625 46.964844 C 39.640625 46.707031 39.605469 46.5 39.75 46.164062 C 39.863281 45.898438 40.1875 45.566406 40.464844 45.425781 C 40.792969 45.261719 41.269531 45.128906 41.558594 45.125 C 41.972656 45.113281 42.234375 45.230469 42.40625 45.5 C 42.605469 45.808594 42.8125 45.992188 43.117188 46.132812 C 43.246094 46.191406 43.386719 46.226562 43.527344 46.238281 C 43.523438 46.242188 43.527344 46.25 43.582031 46.253906 C 43.613281 46.253906 43.652344 46.261719 43.710938 46.257812 C 43.742188 46.257812 43.777344 46.257812 43.816406 46.253906 C 43.835938 46.25 43.851562 46.25 43.871094 46.246094 C 43.621094 46.285156 43.414062 46.253906 43.222656 46.195312 C 43.117188 46.15625 43.015625 46.109375 42.914062 46.046875 C 42.8125 45.984375 42.710938 45.902344 42.609375 45.792969 C 42.597656 45.78125 42.664062 45.863281 42.789062 45.964844 C 42.917969 46.0625 43.109375 46.167969 43.3125 46.222656 C 43.511719 46.277344 43.710938 46.269531 43.828125 46.257812 C 43.886719 46.25 43.925781 46.242188 43.9375 46.242188 C 43.953125 46.242188 43.9375 46.246094 43.886719 46.257812 C 43.605469 46.300781 43.285156 46.261719 43.015625 46.113281 C 42.882812 46.046875 42.753906 45.957031 42.644531 45.847656 C 42.535156 45.742188 42.445312 45.617188 42.367188 45.496094 C 42.390625 45.535156 42.46875 45.671875 42.605469 45.820312 C 42.746094 45.96875 42.953125 46.117188 43.179688 46.199219 C 43.40625 46.289062 43.644531 46.296875 43.808594 46.28125 C 43.972656 46.265625 44.070312 46.230469 44.046875 46.242188 C 43.96875 46.265625 43.824219 46.296875 43.648438 46.292969 C 43.472656 46.292969 43.265625 46.253906 43.085938 46.167969 C 42.910156 46.082031 42.75 45.96875 42.644531 45.863281 C 42.539062 45.761719 42.476562 45.671875 42.457031 45.652344 C 42.449219 45.644531 42.527344 45.765625 42.664062 45.894531 C 42.761719 45.992188 42.898438 46.082031 43.019531 46.140625 C 42.851562 46.058594 42.710938 45.953125 42.59375 45.832031 C 42.527344 45.757812 42.464844 45.683594 42.414062 45.609375 C 42.359375 45.53125 42.320312 45.464844 42.265625 45.410156 C 42.164062 45.304688 42.039062 45.25 41.9375 45.222656 C 41.828125 45.199219 41.738281 45.191406 41.675781 45.191406 C 41.546875 45.191406 41.523438 45.199219 41.628906 45.203125 C 41.679688 45.207031 41.765625 45.207031 41.878906 45.234375 C 41.980469 45.257812 42.109375 45.300781 42.21875 45.414062 C 42.140625 45.335938 42.03125 45.277344 41.90625 45.246094 C 41.832031 45.226562 41.753906 45.21875 41.671875 45.214844 C 41.632812 45.210938 41.589844 45.210938 41.550781 45.210938 C 41.511719 45.214844 41.46875 45.214844 41.429688 45.222656 C 41.265625 45.242188 41.097656 45.28125 40.941406 45.332031 C 40.808594 45.371094 40.679688 45.421875 40.566406 45.472656 C 40.691406 45.417969 40.851562 45.355469 41.015625 45.3125 C 41.203125 45.257812 41.394531 45.222656 41.523438 45.214844 C 41.363281 45.226562 41.199219 45.261719 41.039062 45.304688 C 40.878906 45.351562 40.722656 45.40625 40.570312 45.476562 C 40.621094 45.457031 40.675781 45.433594 40.734375 45.414062 C 40.851562 45.371094 40.96875 45.332031 41.089844 45.300781 C 41.160156 45.285156 41.230469 45.269531 41.300781 45.253906 C 41.140625 45.285156 40.980469 45.332031 40.824219 45.386719 C 40.980469 45.335938 41.167969 45.285156 41.367188 45.257812 C 41.414062 45.25 41.460938 45.246094 41.507812 45.242188 C 41.550781 45.242188 41.601562 45.242188 41.648438 45.242188 C 41.738281 45.246094 41.828125 45.257812 41.910156 45.28125 C 42.074219 45.324219 42.195312 45.421875 42.277344 45.546875 C 42.289062 45.5625 42.300781 45.578125 42.3125 45.597656 C 42.324219 45.617188 42.335938 45.636719 42.347656 45.652344 C 42.375 45.691406 42.398438 45.726562 42.425781 45.761719 C 42.480469 45.828125 42.535156 45.894531 42.59375 45.949219 C 42.707031 46.0625 42.828125 46.140625 42.933594 46.199219 C 42.988281 46.226562 43.035156 46.253906 43.09375 46.277344 C 43.125 46.289062 43.152344 46.300781 43.179688 46.3125 L 43.269531 46.339844 C 43.386719 46.367188 43.507812 46.390625 43.632812 46.390625 C 43.753906 46.390625 43.875 46.382812 43.992188 46.355469 C 44.113281 46.328125 44.226562 46.289062 44.335938 46.238281 C 44.394531 46.214844 44.445312 46.179688 44.5 46.152344 C 44.550781 46.117188 44.601562 46.085938 44.648438 46.046875 C 44.695312 46.007812 44.742188 45.964844 44.785156 45.921875 C 44.824219 45.875 44.871094 45.828125 44.902344 45.78125 C 45.046875 45.585938 45.152344 45.355469 45.191406 45.113281 C 45.238281 44.871094 45.210938 44.621094 45.144531 44.390625 C 45.082031 44.160156 44.972656 43.945312 44.84375 43.75 C 44.714844 43.554688 44.566406 43.375 44.402344 43.214844 C 44.238281 43.054688 44.0625 42.902344 43.871094 42.773438 C 43.492188 42.507812 43.054688 42.328125 42.605469 42.230469 C 42.15625 42.128906 41.695312 42.109375 41.246094 42.132812 C 41.015625 42.144531 40.785156 42.171875 40.5625 42.222656 Z M 41.300781 45.253906 C 41.355469 45.246094 41.40625 45.238281 41.460938 45.230469 C 41.40625 45.238281 41.355469 45.246094 41.300781 45.253906 Z M 43.066406 46.164062 C 43.054688 46.160156 43.039062 46.152344 43.027344 46.144531 C 43.039062 46.152344 43.054688 46.160156 43.066406 46.164062 Z M 43.066406 46.164062 " fill-opacity="1" fill-rule="nonzero"/>
  <path fill="#000000" d="M 40.507812 45.503906 C 40.519531 45.496094 40.527344 45.492188 40.539062 45.488281 C 40.527344 45.492188 40.515625 45.5 40.503906 45.503906 C 40.503906 45.503906 40.507812 45.503906 40.507812 45.503906 Z M 40.507812 45.503906 " fill-opacity="1" fill-rule="nonzero"/>
  <path fill="#000000" d="M 40.566406 45.472656 C 40.558594 45.480469 40.546875 45.484375 40.539062 45.488281 C 40.546875 45.484375 40.558594 45.480469 40.566406 45.472656 Z M 40.566406 45.472656 " fill-opacity="1" fill-rule="nonzero"/>
  <path fill="#000000" d="M 39.617188 31.5625 C 38.542969 31.585938 37.46875 31.609375 36.398438 31.632812 C 36.394531 31.640625 36.453125 31.644531 36.363281 31.648438 C 36.226562 31.65625 36.097656 31.65625 35.972656 31.65625 C 35.84375 31.660156 35.71875 31.660156 35.566406 31.679688 L 35.546875 31.691406 C 35.488281 31.699219 35.425781 31.710938 35.359375 31.730469 C 35.296875 31.75 35.238281 31.777344 35.1875 31.800781 C 35.082031 31.851562 34.96875 31.914062 34.867188 31.992188 C 34.683594 32.136719 34.53125 32.328125 34.433594 32.542969 C 34.386719 32.652344 34.351562 32.761719 34.332031 32.878906 C 34.308594 32.992188 34.300781 33.105469 34.300781 33.222656 C 34.304688 33.210938 34.308594 33.203125 34.308594 33.25 C 34.3125 33.296875 34.3125 33.347656 34.320312 33.402344 C 34.324219 33.429688 34.328125 33.460938 34.332031 33.488281 C 34.335938 33.519531 34.34375 33.546875 34.347656 33.578125 C 34.375 33.699219 34.417969 33.832031 34.480469 33.957031 C 34.5 33.992188 34.519531 34.027344 34.539062 34.0625 C 34.558594 34.085938 34.566406 34.089844 34.570312 34.09375 C 34.640625 34.199219 34.714844 34.28125 34.789062 34.351562 C 34.914062 34.46875 35.058594 34.558594 35.214844 34.625 C 35.253906 34.636719 35.292969 34.65625 35.332031 34.667969 C 35.371094 34.679688 35.410156 34.691406 35.453125 34.703125 C 35.550781 34.726562 35.625 34.726562 35.707031 34.730469 C 36.027344 34.742188 36.339844 34.730469 36.65625 34.722656 C 37.292969 34.703125 37.945312 34.675781 38.621094 34.644531 C 38.90625 34.628906 39.191406 34.609375 39.46875 34.597656 C 39.601562 34.59375 39.742188 34.585938 39.890625 34.582031 C 40.042969 34.578125 40.199219 34.574219 40.347656 34.570312 C 40.425781 34.535156 40.5 34.496094 40.570312 34.460938 C 40.640625 34.429688 40.707031 34.398438 40.769531 34.363281 C 40.730469 34.363281 40.9375 34.242188 41.070312 34.070312 C 41.089844 34.046875 41.105469 34.023438 41.125 33.996094 C 41.355469 33.703125 41.425781 33.5 41.421875 33.097656 C 41.421875 32.511719 41.066406 32.003906 40.503906 31.789062 C 40.269531 31.699219 40.214844 31.6875 39.449219 31.710938 C 39.453125 31.703125 39.449219 31.695312 39.324219 31.695312 C 39.5 31.691406 39.585938 31.6875 39.765625 31.683594 C 39.785156 31.671875 39.21875 31.703125 39.34375 31.683594 C 39.511719 31.683594 39.703125 31.671875 39.882812 31.671875 C 39.820312 31.65625 39.265625 31.679688 39.292969 31.664062 C 39.390625 31.660156 39.792969 31.667969 39.828125 31.652344 C 39.832031 31.648438 39.65625 31.652344 39.566406 31.65625 C 39.839844 31.644531 40.050781 31.640625 40.136719 31.640625 C 40.179688 31.636719 40.1875 31.636719 40.152344 31.628906 C 40.117188 31.621094 40.042969 31.613281 39.914062 31.609375 C 40.003906 31.609375 40.109375 31.613281 40.222656 31.625 C 40.277344 31.632812 40.335938 31.644531 40.390625 31.660156 C 40.441406 31.675781 40.492188 31.695312 40.535156 31.710938 L 40.53125 31.707031 C 40.492188 31.691406 40.429688 31.667969 40.363281 31.648438 C 40.324219 31.636719 40.285156 31.632812 40.25 31.625 C 40.285156 31.632812 40.320312 31.636719 40.355469 31.644531 C 40.414062 31.660156 40.464844 31.679688 40.515625 31.699219 C 40.5 31.691406 40.480469 31.679688 40.464844 31.671875 C 40.414062 31.652344 40.359375 31.636719 40.300781 31.625 C 40.347656 31.632812 40.390625 31.644531 40.433594 31.660156 C 40.382812 31.636719 40.316406 31.613281 40.246094 31.601562 C 40.113281 31.578125 39.992188 31.574219 39.882812 31.566406 C 39.777344 31.5625 39.683594 31.5625 39.617188 31.5625 Z M 39.617188 31.5625 " fill-opacity="1" fill-rule="nonzero"/>
  <path fill="#000000" d="M 30.542969 38.5625 C 30.578125 38.511719 30.617188 38.453125 30.65625 38.394531 C 30.949219 37.949219 31.175781 37.488281 31.273438 37.21875 C 31.699219 36.136719 31.914062 34.976562 31.9375 33.816406 C 31.953125 33.238281 31.921875 32.65625 31.84375 32.082031 C 31.761719 31.503906 31.628906 30.9375 31.453125 30.386719 C 31.445312 30.382812 31.480469 30.503906 31.417969 30.320312 C 31.320312 30.035156 31.21875 29.78125 31.113281 29.527344 C 31.003906 29.277344 30.886719 29.03125 30.730469 28.769531 C 30.71875 28.757812 30.707031 28.746094 30.699219 28.738281 C 30.457031 28.332031 30.171875 27.929688 29.808594 27.574219 C 29.476562 27.246094 29.089844 26.972656 28.671875 26.765625 C 28.25 26.566406 27.792969 26.4375 27.328125 26.410156 C 27.351562 26.417969 27.363281 26.417969 27.269531 26.417969 C 26.882812 26.398438 26.339844 26.460938 25.824219 26.671875 C 25.75 26.703125 25.671875 26.734375 25.601562 26.769531 C 25.546875 26.800781 25.535156 26.8125 25.523438 26.820312 C 25.304688 26.933594 25.117188 27.050781 24.949219 27.171875 C 24.679688 27.375 24.4375 27.613281 24.214844 27.867188 L 24.132812 27.960938 L 24.054688 28.0625 C 24.03125 28.09375 24.003906 28.128906 23.976562 28.160156 L 23.90625 28.265625 L 23.761719 28.472656 C 23.738281 28.507812 23.714844 28.546875 23.695312 28.582031 L 23.632812 28.691406 C 23.289062 29.273438 23.042969 29.914062 22.863281 30.574219 C 22.6875 31.234375 22.578125 31.921875 22.535156 32.621094 C 22.492188 33.320312 22.515625 34.035156 22.613281 34.753906 C 22.699219 35.363281 22.835938 35.964844 23.027344 36.523438 C 23.164062 36.941406 23.351562 37.402344 23.582031 37.839844 C 23.8125 38.28125 24.09375 38.691406 24.375 39.011719 C 24.359375 38.980469 24.4375 39.054688 24.554688 39.175781 C 24.617188 39.234375 24.691406 39.304688 24.773438 39.375 C 24.855469 39.445312 24.945312 39.515625 25.035156 39.585938 C 25.070312 39.617188 25.109375 39.640625 25.148438 39.667969 C 25.554688 39.972656 26 40.1875 26.464844 40.304688 C 27.820312 40.636719 29.199219 40.09375 30.210938 38.828125 C 30.652344 38.277344 31.003906 37.59375 31.265625 36.832031 C 31.273438 36.835938 31.289062 36.8125 31.371094 36.578125 C 31.339844 36.667969 31.316406 36.746094 31.289062 36.816406 C 31.265625 36.890625 31.246094 36.957031 31.21875 37.023438 C 31.191406 37.089844 31.167969 37.15625 31.136719 37.226562 C 31.109375 37.300781 31.082031 37.378906 31.039062 37.460938 C 31.039062 37.46875 31.046875 37.457031 31.058594 37.429688 C 31.070312 37.40625 31.089844 37.367188 31.105469 37.316406 C 31.144531 37.222656 31.195312 37.09375 31.242188 36.96875 C 31.324219 36.71875 31.398438 36.492188 31.367188 36.621094 C 31.308594 36.792969 31.25 36.976562 31.175781 37.160156 C 31.140625 37.25 31.109375 37.34375 31.070312 37.429688 C 31.027344 37.519531 30.988281 37.605469 30.949219 37.691406 C 30.964844 37.664062 31.007812 37.574219 31.0625 37.460938 C 31.09375 37.402344 31.117188 37.335938 31.144531 37.265625 C 31.171875 37.195312 31.203125 37.125 31.230469 37.054688 C 31.257812 36.984375 31.28125 36.914062 31.304688 36.847656 C 31.328125 36.78125 31.347656 36.722656 31.363281 36.671875 C 31.398438 36.574219 31.417969 36.515625 31.417969 36.53125 C 31.402344 36.578125 31.371094 36.667969 31.335938 36.769531 C 31.320312 36.824219 31.300781 36.878906 31.28125 36.9375 C 31.257812 36.996094 31.234375 37.054688 31.210938 37.113281 C 31.164062 37.226562 31.121094 37.34375 31.082031 37.429688 C 31.042969 37.511719 31.015625 37.574219 31.011719 37.59375 C 31.011719 37.601562 31.050781 37.519531 31.097656 37.414062 C 31.144531 37.304688 31.195312 37.171875 31.230469 37.082031 C 31.203125 37.152344 31.179688 37.21875 31.152344 37.28125 C 31.128906 37.347656 31.105469 37.410156 31.078125 37.464844 C 31.027344 37.582031 30.976562 37.6875 30.933594 37.785156 C 30.839844 37.96875 30.769531 38.109375 30.730469 38.1875 C 30.683594 38.261719 30.679688 38.28125 30.722656 38.222656 C 30.742188 38.191406 30.773438 38.140625 30.8125 38.070312 C 30.855469 37.996094 30.910156 37.90625 30.972656 37.785156 C 30.929688 37.871094 30.878906 37.960938 30.828125 38.054688 C 30.800781 38.101562 30.773438 38.148438 30.746094 38.199219 C 30.71875 38.246094 30.6875 38.292969 30.65625 38.34375 C 30.625 38.390625 30.59375 38.4375 30.5625 38.488281 C 30.546875 38.511719 30.535156 38.535156 30.519531 38.558594 C 30.5 38.582031 30.484375 38.601562 30.46875 38.625 C 30.402344 38.714844 30.339844 38.800781 30.28125 38.882812 C 30.28125 38.878906 30.28125 38.878906 30.28125 38.878906 C 30.339844 38.800781 30.421875 38.691406 30.5 38.585938 C 30.578125 38.476562 30.644531 38.363281 30.695312 38.289062 C 30.632812 38.382812 30.574219 38.480469 30.511719 38.570312 L 30.3125 38.84375 C 30.335938 38.816406 30.359375 38.785156 30.386719 38.753906 C 30.433594 38.6875 30.484375 38.625 30.53125 38.5625 C 30.496094 38.609375 30.460938 38.65625 30.429688 38.703125 C 30.464844 38.660156 30.5 38.613281 30.542969 38.5625 Z M 27.683594 37.355469 C 27.679688 37.347656 27.671875 37.355469 27.5625 37.421875 C 27.640625 37.371094 27.695312 37.324219 27.746094 37.273438 C 27.796875 37.226562 27.847656 37.175781 27.910156 37.101562 C 27.914062 37.089844 27.820312 37.203125 27.722656 37.292969 C 27.625 37.386719 27.523438 37.441406 27.574219 37.402344 C 27.726562 37.304688 27.859375 37.144531 27.976562 36.992188 C 27.949219 37.015625 27.851562 37.148438 27.738281 37.25 C 27.6875 37.304688 27.628906 37.347656 27.585938 37.375 C 27.542969 37.402344 27.515625 37.414062 27.519531 37.410156 C 27.5625 37.386719 27.671875 37.316406 27.757812 37.226562 C 27.847656 37.140625 27.921875 37.050781 27.925781 37.03125 C 27.929688 37.023438 27.808594 37.167969 27.742188 37.234375 C 27.941406 37.027344 28.058594 36.828125 28.101562 36.75 C 28.136719 36.671875 28.109375 36.71875 27.949219 36.929688 C 28.058594 36.78125 28.199219 36.5625 28.28125 36.386719 C 28.238281 36.472656 28.15625 36.617188 28.105469 36.695312 C 28.164062 36.601562 28.21875 36.503906 28.269531 36.40625 C 28.257812 36.421875 28.246094 36.4375 28.238281 36.453125 C 28.195312 36.527344 28.15625 36.597656 28.109375 36.671875 C 28.148438 36.609375 28.183594 36.542969 28.21875 36.480469 C 28.1875 36.527344 28.152344 36.578125 28.113281 36.636719 C 27.972656 36.855469 27.808594 37.035156 27.714844 37.132812 C 27.621094 37.226562 27.519531 37.316406 27.414062 37.351562 C 27.386719 37.363281 27.359375 37.375 27.328125 37.382812 C 27.300781 37.386719 27.265625 37.394531 27.253906 37.394531 L 27.21875 37.390625 C 27.207031 37.390625 27.191406 37.386719 27.179688 37.382812 C 27.164062 37.378906 27.152344 37.375 27.136719 37.371094 C 27.125 37.367188 27.109375 37.363281 27.097656 37.355469 C 26.988281 37.3125 26.882812 37.234375 26.785156 37.144531 C 26.691406 37.050781 26.605469 36.941406 26.523438 36.828125 C 26.367188 36.601562 26.234375 36.347656 26.121094 36.085938 C 26.011719 35.824219 25.917969 35.554688 25.84375 35.28125 C 25.835938 35.28125 25.847656 35.339844 25.816406 35.25 C 25.777344 35.105469 25.75 34.972656 25.722656 34.839844 C 25.699219 34.707031 25.679688 34.574219 25.65625 34.433594 L 25.644531 34.414062 C 25.621094 34.183594 25.609375 33.941406 25.605469 33.695312 C 25.59375 33.242188 25.597656 32.78125 25.644531 32.339844 C 25.636719 32.351562 25.632812 32.355469 25.636719 32.3125 C 25.65625 32.128906 25.710938 31.878906 25.777344 31.617188 C 25.789062 31.582031 25.796875 31.542969 25.808594 31.503906 C 25.8125 31.476562 25.8125 31.464844 25.8125 31.460938 C 25.828125 31.402344 25.847656 31.347656 25.863281 31.296875 C 25.878906 31.246094 25.894531 31.195312 25.914062 31.148438 C 26.015625 30.839844 26.144531 30.535156 26.308594 30.25 C 26.394531 30.109375 26.480469 29.972656 26.589844 29.851562 C 26.695312 29.730469 26.816406 29.621094 26.949219 29.558594 C 26.964844 29.550781 26.984375 29.542969 27 29.535156 C 27.015625 29.53125 27.03125 29.527344 27.050781 29.523438 C 27.082031 29.515625 27.117188 29.515625 27.152344 29.519531 C 27.222656 29.523438 27.296875 29.550781 27.367188 29.585938 C 27.507812 29.65625 27.632812 29.769531 27.75 29.894531 C 27.984375 30.148438 28.175781 30.453125 28.328125 30.78125 C 28.460938 31.058594 28.570312 31.347656 28.648438 31.636719 C 28.707031 31.851562 28.757812 32.097656 28.796875 32.34375 C 28.835938 32.59375 28.859375 32.839844 28.871094 33.054688 C 28.886719 33.023438 28.917969 33.265625 28.933594 33.496094 C 28.9375 33.53125 28.9375 33.5625 28.941406 33.597656 C 28.941406 34.609375 28.753906 35.625 28.359375 36.421875 C 28.164062 36.824219 27.910156 37.167969 27.683594 37.355469 Z M 30.679688 38.332031 L 30.558594 38.519531 C 30.554688 38.527344 30.550781 38.53125 30.546875 38.539062 C 30.589844 38.46875 30.632812 38.402344 30.679688 38.332031 Z M 30.679688 38.332031 " fill-opacity="1" fill-rule="nonzero"/>
  <path fill="#000000" d="M 58.085938 43.039062 L 58 42.957031 C 57.988281 42.945312 57.972656 42.929688 57.957031 42.917969 L 57.816406 42.8125 C 57.785156 42.789062 57.75 42.773438 57.714844 42.753906 C 57.683594 42.734375 57.648438 42.714844 57.613281 42.695312 L 57.511719 42.648438 C 57.441406 42.609375 57.367188 42.574219 57.292969 42.539062 C 57.042969 42.542969 56.78125 42.546875 56.515625 42.554688 C 56.257812 42.558594 55.992188 42.5625 55.71875 42.570312 C 55.175781 42.589844 54.613281 42.621094 54.042969 42.664062 C 53.660156 42.695312 53.28125 42.734375 52.90625 42.761719 C 52.527344 42.792969 52.152344 42.816406 51.785156 42.832031 C 51.242188 42.859375 50.621094 42.875 50.003906 42.886719 C 49.695312 42.894531 49.386719 42.898438 49.089844 42.90625 C 48.792969 42.914062 48.507812 42.921875 48.238281 42.941406 C 48.261719 42.945312 48.238281 42.949219 48.183594 42.960938 C 48.128906 42.96875 48.042969 42.980469 47.9375 43.015625 C 47.914062 43.023438 47.886719 43.035156 47.859375 43.046875 C 47.832031 43.058594 47.804688 43.070312 47.777344 43.085938 C 47.71875 43.109375 47.664062 43.144531 47.605469 43.179688 C 47.492188 43.257812 47.378906 43.351562 47.292969 43.460938 C 47.253906 43.507812 47.21875 43.554688 47.191406 43.601562 C 47.191406 43.605469 47.191406 43.605469 47.1875 43.605469 C 47.183594 43.617188 47.175781 43.625 47.167969 43.636719 C 46.925781 44.027344 46.878906 44.527344 47.09375 44.980469 C 47.257812 45.320312 47.453125 45.511719 47.808594 45.675781 L 48.085938 45.804688 L 51.539062 45.777344 L 51.570312 46.757812 C 51.589844 47.304688 51.632812 48.398438 51.683594 49.628906 C 51.679688 49.664062 51.679688 49.75 51.6875 49.949219 C 51.667969 49.476562 51.65625 49.238281 51.636719 48.765625 C 51.625 48.710938 51.703125 50.222656 51.671875 49.894531 C 51.660156 49.4375 51.628906 48.929688 51.613281 48.457031 C 51.605469 48.621094 51.675781 50.09375 51.660156 50.023438 C 51.644531 49.765625 51.621094 48.691406 51.601562 48.601562 C 51.597656 48.582031 51.617188 49.058594 51.625 49.292969 C 51.558594 47.835938 51.507812 47.035156 51.546875 48.363281 C 51.527344 47.902344 51.507812 47.25 51.484375 46.761719 C 51.484375 46.761719 51.484375 46.765625 51.484375 46.765625 C 51.492188 47.007812 51.507812 47.429688 51.519531 47.65625 C 51.507812 47.378906 51.496094 47.101562 51.484375 46.824219 C 51.484375 46.867188 51.484375 46.917969 51.484375 46.96875 C 51.492188 47.175781 51.496094 47.382812 51.503906 47.601562 C 51.5 47.417969 51.492188 47.230469 51.484375 47.046875 C 51.484375 47.1875 51.484375 47.34375 51.488281 47.519531 C 51.503906 48.175781 51.515625 48.804688 51.53125 49.160156 C 51.585938 50.59375 51.644531 52.03125 51.703125 53.464844 C 51.71875 53.824219 51.738281 54.183594 51.761719 54.546875 C 51.773438 54.726562 51.785156 54.902344 51.808594 55.09375 L 51.8125 55.109375 L 51.816406 55.132812 C 51.816406 55.152344 51.820312 55.160156 51.824219 55.171875 L 51.84375 55.246094 C 51.855469 55.292969 51.871094 55.339844 51.890625 55.386719 C 51.925781 55.480469 51.96875 55.566406 52.023438 55.652344 C 52.125 55.820312 52.257812 55.972656 52.417969 56.09375 C 52.496094 56.152344 52.582031 56.207031 52.671875 56.25 C 52.765625 56.292969 52.867188 56.324219 52.960938 56.34375 C 53.152344 56.386719 53.347656 56.394531 53.535156 56.386719 C 53.632812 56.382812 53.746094 56.363281 53.84375 56.324219 C 53.890625 56.308594 53.9375 56.289062 53.980469 56.265625 C 54.023438 56.246094 54.0625 56.226562 54.109375 56.203125 C 54.109375 56.199219 54.074219 56.214844 54.0625 56.214844 C 54.054688 56.214844 54.078125 56.207031 54.1875 56.136719 C 54.359375 56.023438 54.5 55.890625 54.613281 55.738281 C 54.730469 55.589844 54.820312 55.421875 54.863281 55.226562 C 54.875 55.175781 54.875 55.128906 54.882812 55.082031 C 54.882812 55.039062 54.886719 54.992188 54.890625 54.949219 C 54.890625 54.863281 54.894531 54.773438 54.890625 54.6875 C 54.890625 54.511719 54.886719 54.332031 54.878906 54.144531 C 54.875 54.128906 54.871094 54.109375 54.867188 54.09375 C 54.851562 53.511719 54.828125 52.910156 54.804688 52.292969 C 54.78125 51.726562 54.753906 51.164062 54.726562 50.597656 C 54.699219 50.035156 54.667969 49.472656 54.648438 48.914062 C 54.644531 48.941406 54.640625 48.957031 54.636719 48.84375 C 54.617188 48.378906 54.59375 47.734375 54.570312 47.0625 C 54.566406 46.964844 54.5625 46.867188 54.558594 46.769531 C 54.554688 46.691406 54.550781 46.671875 54.546875 46.660156 C 54.539062 46.359375 54.535156 46.089844 54.527344 45.839844 C 54.527344 45.796875 54.527344 45.757812 54.523438 45.714844 C 54.523438 45.707031 54.523438 45.699219 54.523438 45.691406 L 54.539062 45.6875 L 54.597656 45.683594 C 54.667969 45.675781 54.734375 45.667969 54.800781 45.667969 C 54.933594 45.660156 55.070312 45.652344 55.203125 45.648438 C 55.472656 45.636719 55.742188 45.621094 56.011719 45.609375 C 56.285156 45.597656 56.558594 45.59375 56.835938 45.574219 C 56.976562 45.566406 57.117188 45.554688 57.257812 45.535156 C 57.398438 45.511719 57.550781 45.480469 57.691406 45.40625 C 57.761719 45.371094 57.828125 45.324219 57.882812 45.277344 C 57.941406 45.230469 57.996094 45.179688 58.050781 45.128906 C 58.097656 45.070312 58.152344 45.015625 58.195312 44.953125 L 58.289062 44.8125 C 58.300781 44.796875 58.304688 44.777344 58.316406 44.761719 C 58.453125 44.492188 58.519531 44.175781 58.476562 43.871094 C 58.4375 43.566406 58.300781 43.265625 58.085938 43.039062 Z M 58.085938 43.039062 " fill-opacity="1" fill-rule="nonzero"/>
  <path fill="#000000" d="M 63.8125 30.597656 C 63.664062 29.8125 63.433594 29.085938 63.136719 28.441406 C 63.144531 28.441406 63.144531 28.421875 63.035156 28.183594 C 63.078125 28.269531 63.109375 28.34375 63.144531 28.414062 C 63.175781 28.484375 63.207031 28.546875 63.234375 28.613281 C 63.261719 28.679688 63.289062 28.742188 63.316406 28.816406 C 63.34375 28.886719 63.375 28.964844 63.410156 29.054688 C 63.417969 29.074219 63.320312 28.796875 63.210938 28.558594 C 63.160156 28.4375 63.105469 28.324219 63.074219 28.253906 C 63.039062 28.1875 63.027344 28.164062 63.0625 28.21875 C 63.222656 28.546875 63.382812 28.921875 63.503906 29.28125 C 63.496094 29.25 63.464844 29.15625 63.421875 29.035156 C 63.378906 28.914062 63.324219 28.765625 63.261719 28.625 C 63.207031 28.484375 63.140625 28.355469 63.097656 28.257812 C 63.050781 28.164062 63.023438 28.109375 63.035156 28.121094 C 63.058594 28.164062 63.101562 28.246094 63.144531 28.347656 C 63.167969 28.398438 63.191406 28.453125 63.21875 28.507812 C 63.242188 28.566406 63.265625 28.625 63.289062 28.683594 C 63.382812 28.914062 63.460938 29.132812 63.480469 29.167969 C 63.488281 29.175781 63.40625 28.945312 63.332031 28.761719 C 63.535156 29.246094 63.644531 29.632812 63.691406 29.789062 C 63.71875 29.871094 63.726562 29.886719 63.710938 29.816406 C 63.703125 29.78125 63.691406 29.726562 63.671875 29.644531 C 63.648438 29.566406 63.621094 29.460938 63.582031 29.332031 C 63.609375 29.421875 63.640625 29.519531 63.671875 29.625 C 63.699219 29.726562 63.726562 29.835938 63.757812 29.945312 C 63.78125 30.058594 63.808594 30.167969 63.832031 30.273438 C 63.855469 30.382812 63.878906 30.488281 63.898438 30.582031 C 63.875 30.484375 63.851562 30.351562 63.824219 30.226562 C 63.816406 30.183594 63.804688 30.144531 63.796875 30.105469 C 63.832031 30.246094 63.863281 30.390625 63.890625 30.535156 C 63.886719 30.5 63.878906 30.460938 63.875 30.417969 C 63.84375 30.253906 63.804688 30.09375 63.765625 29.921875 C 63.78125 29.996094 63.800781 30.066406 63.816406 30.140625 C 63.832031 30.210938 63.851562 30.28125 63.863281 30.355469 C 63.847656 30.246094 63.820312 30.121094 63.796875 29.984375 C 63.679688 29.464844 63.519531 28.980469 63.410156 28.714844 C 63.300781 28.445312 63.175781 28.183594 63.039062 27.925781 C 62.902344 27.667969 62.746094 27.421875 62.574219 27.183594 C 62.230469 26.707031 61.804688 26.285156 61.308594 25.960938 C 60.816406 25.636719 60.242188 25.410156 59.644531 25.355469 C 59.347656 25.328125 59.046875 25.335938 58.753906 25.386719 C 58.457031 25.4375 58.171875 25.527344 57.898438 25.648438 C 57.898438 25.65625 58.015625 25.609375 57.835938 25.691406 C 57.558594 25.824219 57.324219 25.972656 57.097656 26.136719 C 56.875 26.300781 56.667969 26.488281 56.460938 26.714844 C 56.457031 26.726562 56.449219 26.742188 56.441406 26.753906 C 56.402344 26.796875 56.363281 26.84375 56.324219 26.886719 C 56.285156 26.933594 56.246094 26.980469 56.207031 27.027344 C 56.132812 27.121094 56.066406 27.222656 55.992188 27.320312 C 55.957031 27.371094 55.917969 27.417969 55.886719 27.472656 C 55.855469 27.523438 55.824219 27.578125 55.789062 27.632812 C 55.726562 27.738281 55.660156 27.84375 55.605469 27.957031 L 55.453125 28.265625 L 55.320312 28.585938 C 55.296875 28.636719 55.273438 28.691406 55.253906 28.746094 L 55.199219 28.90625 C 55.160156 29.015625 55.121094 29.121094 55.089844 29.230469 C 55.027344 29.453125 54.957031 29.671875 54.914062 29.894531 C 54.890625 30.003906 54.863281 30.117188 54.839844 30.226562 L 54.785156 30.5625 C 54.792969 30.539062 54.796875 30.53125 54.78125 30.617188 C 54.765625 30.710938 54.753906 30.8125 54.742188 30.925781 C 54.726562 31.035156 54.714844 31.148438 54.699219 31.273438 C 54.683594 31.515625 54.652344 31.78125 54.652344 32.050781 C 54.652344 32.132812 54.652344 32.210938 54.648438 32.289062 C 54.648438 32.351562 54.65625 32.367188 54.65625 32.378906 C 54.660156 32.5 54.664062 32.613281 54.664062 32.726562 C 54.667969 32.78125 54.667969 32.832031 54.667969 32.886719 C 54.671875 32.9375 54.675781 32.988281 54.679688 33.039062 C 54.773438 34.363281 55.109375 35.691406 55.773438 36.894531 C 55.8125 36.96875 55.859375 37.042969 55.90625 37.113281 C 55.949219 37.1875 55.992188 37.261719 56.042969 37.332031 C 56.140625 37.476562 56.238281 37.621094 56.351562 37.753906 C 56.453125 37.894531 56.578125 38.019531 56.691406 38.148438 C 56.820312 38.273438 56.941406 38.398438 57.082031 38.507812 C 57.355469 38.734375 57.652344 38.9375 57.984375 39.082031 C 58.3125 39.230469 58.664062 39.339844 59.03125 39.382812 C 59.339844 39.417969 59.652344 39.40625 59.953125 39.359375 C 60.257812 39.308594 60.546875 39.210938 60.820312 39.089844 C 60.921875 39.050781 61.019531 38.992188 61.121094 38.9375 C 61.175781 38.914062 61.222656 38.878906 61.273438 38.847656 C 61.324219 38.816406 61.378906 38.789062 61.425781 38.75 C 61.523438 38.679688 61.625 38.613281 61.71875 38.53125 C 61.769531 38.492188 61.816406 38.453125 61.863281 38.410156 L 62 38.285156 C 62.046875 38.242188 62.089844 38.199219 62.132812 38.152344 C 62.175781 38.109375 62.21875 38.0625 62.257812 38.019531 C 62.300781 37.972656 62.339844 37.925781 62.378906 37.878906 C 62.417969 37.832031 62.457031 37.789062 62.492188 37.738281 C 62.5625 37.640625 62.632812 37.546875 62.699219 37.457031 C 62.761719 37.359375 62.820312 37.265625 62.875 37.175781 C 62.863281 37.1875 62.871094 37.167969 62.890625 37.128906 C 62.910156 37.089844 62.9375 37.027344 62.976562 36.949219 C 63.011719 36.875 63.058594 36.785156 63.105469 36.6875 C 63.144531 36.585938 63.191406 36.480469 63.234375 36.378906 C 63.257812 36.328125 63.277344 36.277344 63.292969 36.226562 C 63.960938 34.597656 64.175781 32.519531 63.8125 30.601562 Z M 59.878906 36.296875 C 59.878906 36.289062 59.867188 36.296875 59.757812 36.363281 C 59.835938 36.3125 59.890625 36.265625 59.941406 36.214844 C 59.996094 36.167969 60.042969 36.113281 60.105469 36.042969 C 60.109375 36.027344 60.015625 36.144531 59.917969 36.234375 C 59.824219 36.328125 59.71875 36.382812 59.769531 36.34375 C 59.921875 36.246094 60.058594 36.085938 60.171875 35.933594 C 60.148438 35.957031 60.046875 36.089844 59.9375 36.191406 C 59.882812 36.246094 59.824219 36.289062 59.78125 36.316406 C 59.742188 36.34375 59.714844 36.355469 59.71875 36.351562 C 59.757812 36.328125 59.867188 36.257812 59.957031 36.167969 C 60.046875 36.082031 60.117188 35.992188 60.125 35.972656 C 60.125 35.964844 60.007812 36.109375 59.9375 36.175781 C 60.140625 35.96875 60.253906 35.769531 60.296875 35.691406 C 60.335938 35.613281 60.304688 35.660156 60.144531 35.871094 C 60.257812 35.722656 60.394531 35.503906 60.480469 35.328125 C 60.480469 35.328125 60.480469 35.328125 60.476562 35.328125 C 60.433594 35.414062 60.351562 35.558594 60.304688 35.636719 C 60.359375 35.542969 60.414062 35.445312 60.464844 35.347656 C 60.457031 35.363281 60.445312 35.378906 60.433594 35.394531 C 60.394531 35.46875 60.351562 35.539062 60.304688 35.613281 C 60.34375 35.550781 60.378906 35.484375 60.414062 35.421875 C 60.382812 35.46875 60.351562 35.519531 60.3125 35.578125 C 60.171875 35.796875 60.003906 35.976562 59.910156 36.074219 C 59.816406 36.167969 59.714844 36.257812 59.613281 36.292969 C 59.582031 36.304688 59.554688 36.316406 59.523438 36.320312 C 59.496094 36.328125 59.464844 36.335938 59.453125 36.335938 L 59.417969 36.332031 C 59.402344 36.332031 59.390625 36.324219 59.375 36.324219 C 59.363281 36.320312 59.347656 36.316406 59.335938 36.3125 C 59.320312 36.308594 59.308594 36.304688 59.292969 36.296875 C 59.183594 36.253906 59.078125 36.175781 58.984375 36.082031 C 58.886719 35.992188 58.800781 35.882812 58.722656 35.769531 C 58.5625 35.542969 58.429688 35.289062 58.320312 35.027344 C 58.207031 34.765625 58.113281 34.496094 58.039062 34.222656 C 58.03125 34.21875 58.042969 34.28125 58.015625 34.191406 C 57.972656 34.046875 57.945312 33.914062 57.921875 33.78125 C 57.894531 33.648438 57.875 33.515625 57.851562 33.375 L 57.839844 33.351562 C 57.816406 33.125 57.804688 32.882812 57.804688 32.636719 C 57.789062 32.183594 57.792969 31.722656 57.839844 31.28125 C 57.835938 31.292969 57.832031 31.296875 57.835938 31.253906 C 57.851562 31.070312 57.90625 30.820312 57.972656 30.558594 C 57.984375 30.523438 57.996094 30.484375 58.003906 30.445312 C 58.011719 30.417969 58.007812 30.40625 58.007812 30.402344 C 58.023438 30.34375 58.042969 30.289062 58.058594 30.238281 C 58.078125 30.1875 58.089844 30.136719 58.109375 30.089844 C 58.214844 29.78125 58.34375 29.476562 58.503906 29.191406 C 58.589844 29.050781 58.679688 28.914062 58.785156 28.792969 C 58.890625 28.671875 59.011719 28.558594 59.144531 28.5 C 59.164062 28.492188 59.179688 28.484375 59.195312 28.476562 C 59.210938 28.472656 59.230469 28.46875 59.246094 28.464844 C 59.277344 28.457031 59.3125 28.457031 59.347656 28.460938 C 59.417969 28.464844 59.492188 28.492188 59.5625 28.527344 C 59.703125 28.597656 59.828125 28.710938 59.949219 28.835938 C 60.179688 29.089844 60.371094 29.394531 60.523438 29.722656 C 60.660156 30 60.765625 30.289062 60.847656 30.578125 C 60.902344 30.792969 60.957031 31.039062 60.992188 31.285156 C 61.03125 31.535156 61.054688 31.78125 61.070312 31.996094 C 61.082031 31.960938 61.113281 32.207031 61.128906 32.4375 C 61.132812 32.472656 61.132812 32.503906 61.136719 32.539062 C 61.136719 33.550781 60.949219 34.566406 60.558594 35.363281 C 60.359375 35.765625 60.105469 36.109375 59.878906 36.296875 Z M 59.878906 36.296875 " fill-opacity="1" fill-rule="nonzero"/>
<title>Title</title></svg>
